<svg id="Capa_1" data-name="Capa 1" xmlns="http://www.w3.org/2000/svg" xmlns:xlink="http://www.w3.org/1999/xlink" viewBox="0 0 480 480"><defs><style>.cls-1,.cls-16,.cls-4{fill:none;}.cls-2{fill:url(#Degradado_sin_nombre_11);}.cls-3{fill:url(#Degradado_sin_nombre_11-2);}.cls-4{stroke:#f13681;}.cls-16,.cls-4{stroke-miterlimit:10;stroke-width:4px;}.cls-5{fill:url(#Degradado_sin_nombre_13);}.cls-6{fill:url(#Degradado_sin_nombre_92);}.cls-7{fill:url(#Degradado_sin_nombre_11-3);}.cls-8{fill:url(#Degradado_sin_nombre_159);}.cls-9{fill:#68cccc;}.cls-10{fill:url(#Degradado_sin_nombre_92-2);}.cls-11{fill:url(#Degradado_sin_nombre_159-2);}.cls-12{fill:url(#Degradado_sin_nombre_159-3);}.cls-13{clip-path:url(#clip-path);}.cls-14{fill:#1d71b8;}.cls-15{fill:#f13681;}.cls-16{stroke:#29c0cd;}</style><linearGradient id="Degradado_sin_nombre_11" x1="87.96" y1="317.8" x2="90.54" y2="244.4" gradientUnits="userSpaceOnUse"><stop offset="0" stop-color="#e6e5c9"/><stop offset="0.02" stop-color="#dce1c9"/><stop offset="0.14" stop-color="#b0d1c8"/><stop offset="0.26" stop-color="#8ac2c7"/><stop offset="0.39" stop-color="#6bb7c6"/><stop offset="0.52" stop-color="#53adc6"/><stop offset="0.66" stop-color="#41a7c5"/><stop offset="0.82" stop-color="#37a3c5"/><stop offset="1" stop-color="#34a2c5"/></linearGradient><linearGradient id="Degradado_sin_nombre_11-2" x1="368.97" y1="233.59" x2="372.42" y2="135.73" xlink:href="#Degradado_sin_nombre_11"/><linearGradient id="Degradado_sin_nombre_13" x1="102.8" y1="368.67" x2="409.17" y2="368.67" gradientUnits="userSpaceOnUse"><stop offset="0" stop-color="#e6e5c9"/><stop offset="0.12" stop-color="#bacbc6"/><stop offset="0.24" stop-color="#95b5c4"/><stop offset="0.38" stop-color="#76a3c2"/><stop offset="0.51" stop-color="#5e95c0"/><stop offset="0.65" stop-color="#4c8bbf"/><stop offset="0.81" stop-color="#4285be"/><stop offset="1" stop-color="#3f83be"/></linearGradient><linearGradient id="Degradado_sin_nombre_92" x1="102.8" y1="331.89" x2="409.17" y2="331.89" gradientUnits="userSpaceOnUse"><stop offset="0" stop-color="#4a65b6"/><stop offset="0.13" stop-color="#465fab" stop-opacity="0.92"/><stop offset="0.37" stop-color="#3b4e8e" stop-opacity="0.72"/><stop offset="0.71" stop-color="#29335f" stop-opacity="0.4"/><stop offset="1" stop-color="#181a33" stop-opacity="0.1"/></linearGradient><linearGradient id="Degradado_sin_nombre_11-3" x1="102.8" y1="388.69" x2="409.17" y2="388.69" xlink:href="#Degradado_sin_nombre_11"/><linearGradient id="Degradado_sin_nombre_159" x1="39.39" y1="306.81" x2="270.58" y2="119.88" gradientUnits="userSpaceOnUse"><stop offset="0" stop-color="#f13681"/><stop offset="0.18" stop-color="#ef4f8b"/><stop offset="0.55" stop-color="#eb91a6"/><stop offset="1" stop-color="#e6e5c9"/></linearGradient><linearGradient id="Degradado_sin_nombre_92-2" x1="871.65" y1="1334.42" x2="1003.46" y2="1334.42" gradientTransform="matrix(0, 0.9, -0.97, 0, 1386.65, -587.23)" xlink:href="#Degradado_sin_nombre_92"/><linearGradient id="Degradado_sin_nombre_159-2" x1="204.12" y1="51.2" x2="204.63" y2="50.79" xlink:href="#Degradado_sin_nombre_159"/><linearGradient id="Degradado_sin_nombre_159-3" x1="314.44" y1="194.02" x2="315.27" y2="193.35" xlink:href="#Degradado_sin_nombre_159"/><clipPath id="clip-path"><path class="cls-1" d="M340.26,101.35v67a25.19,25.19,0,0,1-24.55,25.18h-1.38l-50.68-.07L133.43,305.17l-77.58-90.3L149,134.95l0,0V113c0-.31,0-.62,0-.93a24.61,24.61,0,0,1,24.6-23.67h0c.24,0,.48,0,.72,0v0h24.94V73.06a1.62,1.62,0,0,0,0,.24V70.5a23.19,23.19,0,0,1,2.07-8.34s0,0,0-.06a21.46,21.46,0,0,1,39.28,1.47,24.54,24.54,0,0,1,2.16-2.69,20.67,20.67,0,0,1,2.33-2.15s0,0,0,0a21.44,21.44,0,0,1,28.71,1.9A21.12,21.12,0,0,1,276.66,64a21.44,21.44,0,0,1,1.15,2.07,21.52,21.52,0,0,1,10.55-2.77l1,0A21.45,21.45,0,0,1,309.62,82a21.27,21.27,0,0,1,9.18-2.07l1,0A21.46,21.46,0,0,1,340.26,101.35Z"/></clipPath></defs><title>Iconoss</title><path class="cls-2" d="M151.85,292.53a21.94,21.94,0,0,1-21.94,21.95H47.36a21.95,21.95,0,0,1-6.91-42.62,17.63,17.63,0,0,1,17.72-27.37,14.43,14.43,0,0,1,20.31-11.33,13.8,13.8,0,0,1,21.67.35,14.42,14.42,0,0,1,21,10.75c.54-.05,1.09-.08,1.65-.08a17.62,17.62,0,0,1,14.47,27.67A22,22,0,0,1,151.85,292.53Z"/><path class="cls-3" d="M454.15,199.9a29.26,29.26,0,0,1-29.25,29.26h-110a29.26,29.26,0,0,1-9.22-56.82,23.5,23.5,0,0,1,23.63-36.49,19.23,19.23,0,0,1,27.07-15.1,18.4,18.4,0,0,1,28.89.47,19.23,19.23,0,0,1,28,14.33c.72-.07,1.46-.1,2.2-.1a23.49,23.49,0,0,1,19.3,36.89A29.26,29.26,0,0,1,454.15,199.9Z"/><line class="cls-4" x1="333.76" y1="159.49" x2="333.76" y2="370.27"/><rect class="cls-5" x="102.8" y="317.59" width="306.37" height="102.15"/><polygon class="cls-6" points="102.8 346.19 409.17 346.19 374.24 330.89 409.17 317.59 102.8 317.59 132.63 331.89 102.8 346.19"/><rect class="cls-7" x="102.8" y="346.19" width="306.37" height="84.99"/><path class="cls-8" d="M340.26,101.35v67a25.19,25.19,0,0,1-24.55,25.18h-1.38l-50.68-.07L133.43,305.17l-77.58-90.3L149,134.95l0,0V113c0-.31,0-.62,0-.93a24.61,24.61,0,0,1,24.6-23.67h0c.24,0,.48,0,.72,0v0h24.94V73.06a1.62,1.62,0,0,0,0,.24V70.5a23.19,23.19,0,0,1,2.07-8.34s0,0,0-.06a21.46,21.46,0,0,1,39.28,1.47,24.54,24.54,0,0,1,2.16-2.69,20.67,20.67,0,0,1,2.33-2.15s0,0,0,0a21.44,21.44,0,0,1,28.71,1.9A21.12,21.12,0,0,1,276.66,64a21.44,21.44,0,0,1,1.15,2.07,21.52,21.52,0,0,1,10.55-2.77l1,0A21.45,21.45,0,0,1,309.62,82a21.27,21.27,0,0,1,9.18-2.07l1,0A21.46,21.46,0,0,1,340.26,101.35Z"/><ellipse class="cls-9" cx="94.7" cy="259.99" rx="8.1" ry="59.55" transform="translate(-146.73 124.8) rotate(-40.74)"/><ellipse class="cls-10" cx="94.7" cy="259.99" rx="8.1" ry="59.55" transform="translate(-146.73 124.8) rotate(-40.74)"/><path class="cls-11" d="M204.93,50.82v0a6.92,6.92,0,0,0-.71,0Z"/><path class="cls-4" d="M200.46,93.56H187.76c-10.22,0-18.51,10.44-18.51,23.31v253.4"/><path class="cls-4" d="M201.34,87.89a7.17,7.17,0,0,1-5.81,11.39"/><path class="cls-12" d="M315.71,193.55a5.9,5.9,0,0,1-.65,0c-.24,0-.48,0-.72,0Z"/><g class="cls-13"><path class="cls-14" d="M91.94,172.23c-.24,0-.47,0-.71,0q-.67,0-1.34,0Z"/><path class="cls-11" d="M204.93,50.82v0a6.92,6.92,0,0,0-.71,0Z"/><path class="cls-12" d="M315.71,193.55a5.9,5.9,0,0,1-.65,0c-.24,0-.48,0-.72,0Z"/><path class="cls-4" d="M227.88,127.63a15.23,15.23,0,0,0,15.23-15.23V54.14"/><path class="cls-4" d="M265,145.9a15.23,15.23,0,0,0,15.23-15.23V61.39"/><path class="cls-4" d="M296.78,161.9A15.23,15.23,0,0,0,312,146.67V72"/></g><path class="cls-15" d="M269.79,238.09a18.19,18.19,0,0,0-6.23-4.32,23.44,23.44,0,0,0-8.76-1.87v21.76a.91.91,0,0,1,.29,0,.86.86,0,0,0,.29,0,78,78,0,0,1,8.35,2.2A24,24,0,0,1,270,259a12.67,12.67,0,0,1,4,4.44,13.8,13.8,0,0,1,1.39,6.52,14.79,14.79,0,0,1-1.51,6.85,13.38,13.38,0,0,1-4.2,4.85,19.47,19.47,0,0,1-6.4,2.89,34.3,34.3,0,0,1-8.11,1.06v7.91h-3v-8a33.52,33.52,0,0,1-20.87-8.31l2.85-4.65a23.68,23.68,0,0,0,7.62,5.3,30.09,30.09,0,0,0,10.64,2.61V258.71l-.49-.16q-4.56-1.06-8-2.2a21.31,21.31,0,0,1-5.79-2.85,11.09,11.09,0,0,1-3.54-4.12,13.31,13.31,0,0,1-1.18-5.91,15.93,15.93,0,0,1,1.39-6.81,14.67,14.67,0,0,1,3.83-5.05,18,18,0,0,1,5.91-3.26,28.8,28.8,0,0,1,7.62-1.43V218.7h3v8.15a27.53,27.53,0,0,1,9.66,1.92,27.1,27.1,0,0,1,7.7,4.77Zm-30.48,4.56a9,9,0,0,0,.77,4,7.58,7.58,0,0,0,2.36,2.77,15,15,0,0,0,4.07,2q2.48.86,5.91,1.67V232q-6.93.33-10,3.18A9.72,9.72,0,0,0,239.31,242.66Zm30.08,27.87a8.56,8.56,0,0,0-.94-4.16,9.07,9.07,0,0,0-2.77-3,18.83,18.83,0,0,0-4.57-2.28q-2.73-1-6.32-1.87v21.35q6.93,0,10.76-2.49A8.38,8.38,0,0,0,269.38,270.53Z"/><line class="cls-16" x1="214.86" y1="292.69" x2="195.9" y2="311.66"/><line class="cls-16" x1="310.03" y1="197.53" x2="292.48" y2="215.07"/><line class="cls-16" x1="215.76" y1="217.39" x2="195.9" y2="197.53"/><line class="cls-16" x1="310.03" y1="311.66" x2="292.55" y2="294.18"/><line class="cls-16" x1="199.16" y1="254.59" x2="172.26" y2="254.59"/><line class="cls-16" x1="333.67" y1="254.59" x2="308.55" y2="254.59"/><line class="cls-16" x1="252.96" y1="308.76" x2="252.96" y2="335.3"/><line class="cls-16" x1="252.96" y1="173.89" x2="252.96" y2="199.01"/></svg>