<?xml version="1.0" encoding="UTF-8" standalone="no"?>
<svg
   xmlns:dc="http://purl.org/dc/elements/1.1/"
   xmlns:cc="http://creativecommons.org/ns#"
   xmlns:rdf="http://www.w3.org/1999/02/22-rdf-syntax-ns#"
   xmlns:svg="http://www.w3.org/2000/svg"
   xmlns="http://www.w3.org/2000/svg"
   xmlns:sodipodi="http://sodipodi.sourceforge.net/DTD/sodipodi-0.dtd"
   xmlns:inkscape="http://www.inkscape.org/namespaces/inkscape"
   sodipodi:docname="covid.svg"
   inkscape:version="1.0 (6e3e5246a0, 2020-05-07)"
   id="svg8"
   version="1.1"
   viewBox="0 0 132.29166 132.29167"
   height="500"
   width="500">
  <defs
     id="defs2" />
  <sodipodi:namedview
     inkscape:window-maximized="1"
     inkscape:window-y="27"
     inkscape:window-x="1920"
     inkscape:window-height="1016"
     inkscape:window-width="1920"
     units="px"
     showgrid="false"
     inkscape:document-rotation="0"
     inkscape:current-layer="layer1"
     inkscape:document-units="mm"
     inkscape:cy="241.8273"
     inkscape:cx="62.205046"
     inkscape:zoom="1.3460444"
     inkscape:pageshadow="2"
     inkscape:pageopacity="0.0"
     borderopacity="1.0"
     bordercolor="#666666"
     pagecolor="#ffffff"
     id="base" />
  <metadata
     id="metadata5">
    <rdf:RDF>
      <cc:Work
         rdf:about="">
        <dc:format>image/svg+xml</dc:format>
        <dc:type
           rdf:resource="http://purl.org/dc/dcmitype/StillImage" />
        <dc:title></dc:title>
      </cc:Work>
    </rdf:RDF>
  </metadata>
  <g
     id="layer1"
     inkscape:groupmode="layer"
     inkscape:label="Layer 1">
    <path
       id="path16"
       d="m 50.521835,12.693894 c -2.353027,-0.313053 -3.389744,1.562743 -4.999175,2.791751 -0.335254,0.256009 -1.109406,0.628004 -1.281888,1.038258 -0.167502,0.398411 0.06273,1.150983 -0.35891,1.245906 -0.201668,0.0454 -1.349404,-0.638727 -1.666375,-0.969039 -0.596257,-0.621352 0.426749,-1.697892 -0.07693,-2.261087 -0.787191,-0.880209 -2.818749,-1.483296 -3.589205,-2.653321 -0.212649,-0.322929 1.177623,-3.9183019 1.102407,-3.968445 -0.299336,-0.19955 -3.663852,-0.3720113 -3.666085,-0.3691564 -1.055079,1.3493723 -1.187021,2.6836774 -1.820227,4.2222364 -0.62864,1.527455 -2.936301,3.796211 -0.333285,4.868266 1.804741,0.743284 2.618472,-2.326889 3.819937,-1.453556 0.537536,0.39073 0.544738,1.561692 0.846,2.122657 0.25278,0.470691 3.431786,2.825837 3.409725,2.860969 -0.457763,0.728969 -1.223473,0.884562 -1.845855,1.361273 -0.96666,0.74041 -1.075983,2.134256 -2.435545,1.384337 -0.919099,-0.506965 -1.908106,-0.897557 -2.691855,-1.615063 -0.862515,-0.789614 -0.22702,-0.677015 -1.410065,-1.430485 -1.255771,-0.799788 -2.764467,-0.281981 -4.101875,-0.299944 -1.12449,-0.0151 -0.871265,-0.723175 -1.640798,-1.292048 -0.732014,-0.541139 -1.725017,-0.701835 -2.435496,-1.222836 -2.51275,-1.842622 2.982496,-4.916594 0.743448,-6.068025 -0.929264,-0.477874 -2.083185,0.423747 -2.743157,0.807531 -1.945025,1.131065 -1.977242,2.050758 -2.768782,3.945369 -0.47639,1.140275 -3.015844,4.651462 -2.281693,5.745016 0.33853,0.504256 0.892433,0.825597 1.307513,1.268977 0.708836,0.757166 2.015218,2.59464 2.230392,2.537961 1.503486,-0.396035 1.217374,-2.782985 2.845709,-2.884047 0.548589,-0.03405 2.795502,2.806915 3.666084,3.253204 0.818907,0.419797 1.436322,0.161576 2.256065,0.253796 1.219237,0.137163 0.01389,0.09662 0.948555,0.276868 1.955906,0.377199 2.42624,0.552726 2.922635,1.222836 0.08855,0.119531 0.54093,0.348279 0.512718,0.576805 -0.03496,0.283202 -0.625367,1.216864 -0.79475,1.407414 -0.193308,0.217466 -0.406522,0.225554 -0.640895,0.346085 -0.454475,0.233725 -0.69732,0.835182 -1.051156,1.153618 -1.527921,1.375064 -3.065896,-0.312994 -4.691562,-0.276868 -0.653725,0.01453 -1.80278,0.510141 -2.435498,0.622954 -0.809494,0.144333 -4.939055,0.289435 -5.691419,-0.02307 -0.764317,-0.317468 -2.461559,-5.028322 -3.204619,-4.799047 -0.946375,0.29201 -1.615891,1.617745 -1.948408,2.445666 -0.125506,0.312491 -0.435838,1.71473 -0.435838,1.961149 0,0.371626 1.532075,4.66153 1.87153,5.16821 0.336652,0.502499 1.195253,0.963533 1.820228,0.715243 0.570032,-0.226462 1.929193,-1.238002 2.358571,-1.984227 0.167202,-0.290581 0.156141,-0.708478 0.0513,-1.01518 -0.02786,-0.08151 -0.227109,-0.162322 -0.153854,-0.207648 1.021986,-0.632375 1.878683,0.475925 2.948262,0.392227 0.976571,-0.07642 1.893117,-0.539676 2.871336,-0.622954 0.804522,-0.06849 4.219628,0.03802 4.871043,0.276868 0.46891,0.171926 0.18496,1.638313 -0.12818,1.89193 -0.419634,0.33987 -1.027099,0.293333 -1.461318,0.669102 -0.253788,0.219628 -0.453046,0.861779 -0.769122,0.87675 -0.480076,0.02273 -0.643496,-0.384411 -1.153658,-0.507593 -1.06803,-0.257884 -3.27858,-0.558604 -4.35828,-0.461446 -0.62619,0.05635 0.367217,-0.623626 0.333285,-0.715243 -0.09387,-0.253442 -0.767664,-0.550432 -1.02548,-0.392235 -0.234912,0.144145 -0.701871,0.480111 -0.820375,0.73832 -0.401002,0.87375 -0.939758,4.385556 0.384537,4.799047 2.091662,0.653092 1.754458,-1.013754 2.794457,-1.268976 0.218378,-0.05359 0.337721,0.297175 0.512716,0.438375 0.378621,0.305504 0.81334,0.335309 1.179286,0.576805 0.110758,0.07309 -0.689502,0.492239 -1.307465,1.038259 -0.567081,0.50106 -1.001109,1.235305 -1.615123,1.68428 -0.395603,0.289271 -0.984496,0.41349 -1.256212,0.853672 -0.201704,0.326763 -1.720864,6.488388 -2.050961,6.414119 -0.529289,-0.119086 -1.702296,-0.753086 -2.05096,-1.176694 -0.661305,-0.803453 -0.609881,-1.883691 -0.897302,-2.814823 -0.117032,-0.37914 -0.266287,-0.226933 -0.53839,-0.415303 -1.045921,-0.724064 -0.705514,-1.002533 -1.615123,-0.138438 -0.277314,0.263438 -0.6408,0.431501 -0.897302,0.715243 -1.118813,1.237631 0.464005,3.867803 0.282033,5.698868 -0.141195,1.420752 -1.405954,3.449796 -0.358911,4.799047 0.188312,0.242665 0.525226,0.320818 0.769074,0.507595 0.227146,0.173982 0.442113,0.646602 0.692196,0.507593 1.194887,-0.664181 1.225429,-2.39045 1.820228,-3.460846 0.471967,-0.849349 1.088071,0.745961 1.179334,1.430483 0.137525,1.031518 -0.493379,1.993707 -0.461464,2.999407 0.02717,0.85634 0.829021,2.53107 -0.102552,3.276269 -0.963569,0.770792 -2.871119,0.312809 -2.973889,0.415298 -0.519956,0.518536 -0.01124,1.72162 -0.02562,2.330318 -0.0051,0.216799 -0.05128,0.430678 -0.07693,0.646017 -0.07691,0.29994 -0.217508,0.59046 -0.230732,0.899821 -0.013,0.304012 0.04351,0.61622 0.153805,0.899822 0.317613,0.816702 2.64316,4.208745 3.717384,3.922297 1.049501,-0.279855 1.183236,-1.351862 1.333091,-2.23801 0.01163,-0.06877 0.04433,-0.274852 0.02567,-0.20765 -0.372493,1.34148 -0.227416,2.707989 -0.53839,4.106875 -0.08434,0.379413 -0.49871,0.47103 -0.692196,0.784456 -0.626468,1.014809 -1.290666,2.775214 -0.769122,3.207057 0.832754,0.689522 2.103172,2.196901 3.307173,2.076513 0.640674,-0.06406 1.356163,-0.498755 1.974034,-0.692171 0.149922,-0.04693 0.265658,0.294455 0.410211,0.253801 0.291337,-0.08193 0.91918,-0.440282 0.897301,-0.138435 -0.04372,0.603245 -0.0199,2.602037 -0.48709,3.022476 -0.376898,0.339188 -0.482118,-3.186793 -0.435837,0.438369 0.01376,1.077736 0.202117,1.866911 0.461464,2.930195 0.05024,0.205962 0.32905,0.555164 0.128179,0.622948 -0.541575,0.182753 -0.69884,-0.27087 -1.281839,0.253801 -0.883999,0.795557 -1.568141,1.793563 -2.435545,2.607181 -0.939472,0.881216 -2.127502,1.658067 -3.102068,2.491811 -0.445634,0.381243 -0.827751,0.705826 -1.461317,0.461441 -0.04861,-0.01876 0.155704,-0.671189 0.102552,-0.830609 -0.07531,-0.225885 -1.379421,0.0049 -1.486944,0.207661 -0.569022,1.073042 0.215478,4.127079 1.230586,4.868259 2.773201,2.024857 4.259711,1.628572 5.640118,-1.684274 0.189013,-0.453615 -1.010614,-0.867595 -0.256358,-1.638146 0.842364,-0.86056 0.573993,-0.236715 1.717676,-0.922891 0.40261,-0.241556 0.738848,-0.579651 1.102407,-0.876749 2.217978,-1.812531 2.882338,-3.160718 5.768297,-4.268386 0.631705,-0.242456 4.059676,-1.83062 4.204475,-1.661205 0.260305,0.304562 -0.502386,0.539639 -1.64075,1.430486 -0.21653,0.16945 -0.341159,0.694507 -0.589643,0.576805 -0.440169,-0.2085 -1.044924,-0.869371 -1.666422,-0.576805 -0.758042,0.356841 -1.151046,1.178793 -1.615125,1.79964 -0.366673,0.490543 -1.029764,0.755338 -1.461318,1.222838 -0.214688,0.232572 -1.893136,2.680843 -1.563871,3.045547 0.418813,0.463889 1.611623,0.252111 1.871531,0.646031 0.47053,0.713145 -0.141234,2.889567 0.8973,3.160914 0.312854,0.08174 1.393079,-0.595588 1.615123,-0.692172 0.310282,-0.134966 1.408422,-0.379626 1.563872,-0.807537 0.08676,-0.238839 0.165312,-2.713299 0.461463,-2.814828 1.30852,-0.448606 1.975368,-1.56147 3.050767,-2.353379 0.372012,-0.273941 0.846418,-0.496546 1.128033,-0.87675 0.02455,-0.03314 0.116871,-0.107886 0.102552,-0.06921 -0.0402,0.108585 0.90524,1.057892 1.102408,1.361263 0.647615,0.99645 0.145132,1.076317 0.30761,1.661215 0.51562,1.856161 0.223173,0.733727 0.66657,1.7535 0.107735,0.247785 -0.608984,0.271216 -1.307465,0.899821 -0.451805,0.406604 -1.233538,1.490237 -1.307513,2.122657 -0.07687,0.657217 -0.01019,1.483058 0.153853,2.122654 0.01347,0.05247 0.342585,0.809615 0.307612,0.830599 -1.638215,0.982869 -3.413225,-1.671024 -3.717337,-1.52277 -0.177104,0.08634 -0.755857,1.009703 -0.794748,1.061329 -1.12708,1.496142 -0.826844,1.632296 0.589643,2.907106 0.830646,0.74757 1.238501,1.17626 2.127887,1.77657 0.975471,0.65842 7.258455,3.96059 7.998735,3.507 0.810922,-0.49687 0.633461,-0.75104 1.307465,-1.22283 0.03411,-0.0239 0.55285,-0.0631 0.564018,-0.0692 0.349335,-0.19135 0.43865,-0.64856 0.692195,-0.87675 0.07784,-0.0701 0.188021,-0.0923 0.282033,-0.13843 0.196548,-0.11536 0.429133,-0.1843 0.589642,-0.34609 0.389144,-0.39224 0.834821,-1.64166 1.486945,-1.84579 1.379101,-0.43169 0.151072,0.29092 1.666375,0.0461 1.117148,-0.18046 0.933995,-0.52381 1.87153,-0.83061 0.132567,-0.0434 0.02077,0.29588 -0.0513,0.4153 -0.335264,0.55545 -0.744921,1.06615 -1.051104,1.63815 -0.59126,1.10455 -1.155184,2.78153 -0.948555,4.0838 0.04275,0.26946 -1.546342,0.059 -2.256065,0.66909 -0.866056,0.74452 -0.51565,2.24037 -0.897303,3.16091 -0.373838,0.9017 -0.773594,0.57501 -1.20491,1.1767 -0.161126,0.22477 -0.317971,0.70646 -0.615318,0.87675 -0.212121,0.12148 -0.405421,-0.0137 -0.589642,0.0692 -1.531953,0.68935 -0.299487,1.87165 0.71782,2.46874 2.155319,1.26502 4.67084,0.42127 6.998933,0.87675 1.617699,0.3165 2.438789,1.04815 3.845515,1.7535 1.304769,0.65424 3.32441,0.30633 4.665937,0.18458 0.110514,-0.01 2.043618,-0.12605 2.10226,-0.18458 0.522248,-0.52128 0.883579,-2.13056 0.769123,-2.81483 -0.113538,-0.67877 -0.69515,-0.75254 -1.20496,-0.69217 -0.148442,0.0176 -0.395595,0.37979 -0.384538,0.23072 0.02745,-0.37 0.517798,-1.13036 0.61527,-1.29205 1.299197,-2.15508 2.018419,-4.42378 3.717386,-6.32181 0.103962,-0.11615 0.890061,-1.30966 1.256209,-1.03826 0.500888,0.37127 0.0063,1.25095 -0.07693,1.86886 -0.129764,0.96356 -0.619101,1.66264 -0.84605,2.56103 -0.06196,0.24527 0.09198,0.57315 -0.05125,0.80753 -0.418386,0.68465 -5.171308,0.50835 -2.66623,2.88404 0.360606,0.34198 1.524476,1.19422 2.25602,1.45356 0.441616,0.15657 1.14327,-0.165 1.512617,0.23073 0.562311,0.60246 0.941885,2.3103 1.10236,2.30723 2.44797,-0.0469 4.694323,-1.46484 7.024556,-2.03036 1.472861,-0.35744 3.977362,0.88431 4.742817,-0.46145 0.234662,-0.41257 0.296881,-0.91111 0.333285,-1.38435 0.09353,-1.21588 -0.285591,-1.75673 -0.435837,-2.83789 -0.05861,-0.42175 0.140655,-1.00118 -0.179433,-1.36128 -0.167351,-0.18827 -0.844857,-0.69767 -1.07678,-0.80752 -0.536025,-0.2539 -0.992854,0.36431 -1.435645,-0.4153 -0.435888,-0.76747 0.334433,-3.03765 1.102408,-3.43779 0.768411,-0.40037 1.291738,0.71571 1.538197,1.15362 0.276421,0.49116 1.110308,1.80335 1.281838,2.23801 0.322217,0.81652 0.03486,1.75418 0.384585,2.51489 0.159533,0.347 0.658807,0.37183 0.846002,0.76139 0.526516,1.09573 0.529241,2.42005 1.25621,3.43778 0.274564,0.38438 0.495313,1.93961 1.256213,1.52278 1.07787,-0.59047 1.753923,-1.56885 2.66623,-2.35339 1.271492,-1.09342 3.740425,-2.35806 2.58935,-4.42989 -1.306515,-2.35161 -0.675526,-0.33075 -2.486798,-2.33031 -0.744336,-0.8217 -0.589642,-2.86214 -0.589642,-3.85307 0,-0.046 0.06326,0.0684 0.102552,0.0923 0.27767,0.16885 0.547455,0.35616 0.846003,0.48453 0.775502,0.33345 1.713984,0.3405 2.384245,0.85368 0.331695,0.25396 0.510416,0.66297 0.794747,0.96903 0.847069,0.91179 1.853285,1.43194 3.102068,1.45355 0.378008,0.007 4.627544,-0.75664 4.94797,-1.45355 0.189325,-0.41177 0.694203,-2.15304 0.871628,-2.79176 0.02853,-0.10271 -0.81678,-0.56209 -0.589643,-0.50758 1.577572,0.37859 3.951332,-1.10558 5.178702,-1.98423 1.00867,-0.72209 1.95341,-1.863102 2.97389,-2.630235 1.86342,-1.400808 0.41189,-0.09056 2.43549,-1.245918 0.90272,-0.515398 1.89209,-1.599136 1.79461,-2.768674 -0.0595,-0.713449 -2.70834,0.35963 -2.71753,0.27686 -0.0176,-0.158456 2.90044,-1.662441 2.82008,-2.699462 -0.086,-1.11025 -0.74894,-1.877888 -1.38439,-2.745602 -0.0576,-0.07861 -0.22783,-0.146132 -0.17948,-0.230733 0.1426,-0.249552 0.44784,-0.363915 0.64094,-0.576804 0.19598,-0.216059 0.27592,-0.623348 0.56402,-0.669103 2.18487,-0.346993 3.61106,1.066959 5.25558,-1.384331 0.15749,-0.234749 1.07032,-1.975125 1.0511,-2.307233 -0.0596,-1.030351 -1.43907,-2.230281 -1.30751,-3.207057 0.0185,-0.137599 1.75707,-0.747133 2.38425,-1.407414 0.69218,-0.728721 0.91735,-2.875632 1.28184,-3.876156 0.57056,-1.566201 1.80743,-2.869129 2.33299,-4.42989 0.165,-0.490019 0.0133,-1.041728 0.12818,-1.545852 0.21122,-0.926751 0.8898,-2.24649 0.30766,-3.183985 -0.54965,-0.885166 -3.01711,-2.479106 -2.46118,-3.830013 0.5606,-1.362231 0.86193,-0.933482 2.05096,-1.176684 0.44412,-0.09084 1.9175,-0.419238 2.38425,-0.576805 0.0768,-0.02593 -0.1163,0.159853 -0.0769,0.230719 0.0778,0.140002 0.27329,0.197594 0.33329,0.346086 0.14444,0.357452 -0.14121,1.375627 0.41021,1.499698 0.56146,0.12633 0.69794,-0.880748 0.76912,-1.245907 0.34644,-1.77723 -0.25986,-2.506144 -0.48714,-4.060735 -0.0636,-0.434753 0.21332,-1.127885 -0.48709,-1.15361 -2.0527,-0.0754 -2.56926,1.481339 -4.87104,1.522767 -0.99211,0.01786 -1.78326,-0.250164 -2.79441,-0.115353 -0.36813,0.04908 -1.39955,0.384297 -1.10241,0.161507 0.74935,-0.561832 0.15054,0.502618 1.07679,-0.692171 0.56516,-0.729023 -0.68664,-0.591701 -0.48714,-1.130554 0.0583,-0.157454 0.32506,-0.142759 0.35896,-0.346086 0.0998,-0.598641 -0.44079,-1.283195 -0.10256,-1.891924 0.18539,-0.333645 0.88515,-0.243946 1.15366,-0.507593 0.10993,-0.107931 -0.15772,-0.540713 -0.0256,-0.461451 0.52451,0.314716 1.56668,1.879491 1.7433,1.822725 0.22339,-0.0718 -0.0277,-0.5168 0.12818,-0.692174 0.43141,-0.485301 1.9052,-0.687144 2.4868,-0.853678 2.44434,-0.699918 0.035,0.407281 1.71767,1.038257 0.44775,0.167899 0.61975,-0.678331 0.6409,-0.830607 0.16032,-1.154491 -0.0749,-2.277464 -0.74345,-3.230126 -0.73034,-1.040691 -3.46985,-5.854165 -4.99922,-4.522181 -1.31022,1.141105 1.13542,2.193017 -0.92293,3.391632 -0.32484,0.189162 -0.99169,-0.02848 -1.35877,0 -2.41897,0.187669 -1.86171,0.689386 -3.35842,-1.453554 -0.25533,-0.36557 -0.65735,-0.872863 -1.02548,-1.130546 -0.15758,-0.110302 -0.64695,-0.366438 -0.53839,-0.207651 0.36192,0.529392 0.62928,0.876197 0.71782,0.23072 0.138,-1.006036 0.6987,-2.60722 0.35891,-3.668501 -0.32098,-1.002527 -2.74148,-1.586889 -0.20506,-2.976335 0.48238,-0.264245 1.43896,-0.288467 1.87148,-0.576805 0.98453,-0.656325 1.9937,-1.162886 2.99952,-1.776571 0.93377,-0.569722 1.7946,-1.513866 1.7946,-1.015188 0,1.020895 -0.34874,0.566555 0.28199,1.799643 0.0248,0.04852 1.18799,1.109774 1.33313,1.015185 0.23794,-0.155056 0.51342,-0.291491 0.66657,-0.530664 0.22771,-0.355611 0.99059,-4.317111 0.846,-4.660617 -0.33427,-0.794181 -2.4358,-1.596525 -3.30717,-2.630244 -0.34935,-0.414438 -4.38474,-5.626579 -4.97355,-3.506999 -0.21728,0.782151 -0.26037,1.305245 0,2.076516 0.20785,0.615691 1.29076,1.621417 0.38454,2.307236 -0.754,0.570618 -1.5177,0.610576 -2.35857,0.969039 -1.49517,0.637386 -3.02379,1.063474 -4.56339,1.59199 -0.42735,0.146703 -4.1971,1.193678 -4.25577,1.153617 -1.2285,-0.838766 0.62572,-2.115743 0.53839,-3.137842 -0.0752,-0.88044 -2.07659,-1.982991 -2.07659,-2.422596 0,-0.562681 0.51704,-0.820105 0.8973,-1.084397 2.91501,-2.025978 1.95206,-1.585439 3.87119,-4.176101 1.20742,-1.629911 3.18255,-1.184659 2.61493,-3.599283 -0.0916,-0.389853 -0.48899,-1.016879 -0.846,-1.222836 -0.44243,-0.255236 -0.96058,-0.357193 -1.41001,-0.599882 -2.55022,-1.37708 -2.71694,-2.020992 -5.99908,-2.191869 -0.214,-0.01114 -2.403329,-0.08822 -2.486797,0.299938 -0.181658,0.844765 -0.245296,1.720965 -0.205058,2.584102 0.06912,1.482807 0.748554,2.096013 -0.538393,3.183985 -1.754848,1.483536 -0.897024,1.517654 -2.922635,1.845789 -0.394893,0.06397 -0.950756,0.340045 -0.8973,0.23072 0.738442,-1.510259 1.874028,-0.391872 0.179481,-1.684282 -0.219393,-0.167327 -0.464125,-0.322898 -0.61527,-0.553734 -0.478552,-0.730864 0.627636,-1.91147 -0.307658,-2.353377 -1.299146,-0.613817 -2.879434,-0.476617 -4.17885,-1.061328 -0.419629,-0.188826 -0.77624,-0.697317 -1.153658,-0.969039 -0.230288,-0.165794 -0.719629,-0.366478 -0.871627,-0.622953 -0.570812,-0.963162 0.886367,-2.912009 1.204912,-3.507 0.298175,-0.556944 1.685335,-4.217322 1.461318,-4.822119 C 89.167891,10.601078 85.330136,9.3486825 85.029297,9.2791674 84.44783,9.1448083 83.717117,8.8513775 83.106515,8.8638695 c -0.770298,0.015759 -1.561132,0.304283 -2.307318,0.4614458 -0.273518,0.057609 -0.870582,0.026602 -1.07678,0.2307198 -0.922941,0.9136219 -0.490701,2.7850929 -0.179432,3.8761559 0.218699,0.766587 0.891341,1.365759 0.692195,2.238017 -0.152916,0.669785 -1.094603,2.075065 -1.307513,2.491819 -0.333576,0.652949 -0.07669,0.883131 -0.666567,1.338195 -0.08291,0.06396 -0.208989,0.213502 -0.281985,0.138431 -0.454435,-0.467346 -1.2724,-0.718275 -1.974035,-0.599882 -0.3629,0.06123 -0.60737,0.396944 -0.8973,0.599882 -0.0439,0.03073 0.164123,-0.11996 0.102552,-0.138431 -0.157094,-0.04713 -0.327292,-0.03249 -0.487137,-0.06922 -0.242758,-0.05578 -0.476901,-0.144407 -0.717823,-0.207649 -0.599768,-0.157439 -1.231638,-0.12201 -1.794603,-0.392234 -0.261479,-0.12551 -0.02764,-3.823641 -0.02564,-3.853079 0.146624,-2.144203 0.45597,-4.135726 0.820373,-6.2295385 C 73.133484,8.0128694 74.424531,5.017227 73.954054,4.3186283 73.474875,3.6071066 72.894234,4.0300333 72.287632,3.6495333 71.921406,3.4198149 71.666843,2.9362341 71.210899,2.7958544 69.474164,2.2611349 67.565468,1.7406693 65.750212,2.1036827 c -0.30787,0.061568 -0.71019,-0.1620025 -0.999853,-0.046141 -0.904952,0.3619664 -1.168694,1.9667993 -0.97423,2.7917513 0.213447,0.9054754 2.208284,1.8093653 2.127888,2.6533205 -0.164074,1.7223428 -2.909234,2.2996752 -3.281545,5.2143515 -0.136695,1.070122 -0.112118,2.116571 -0.512718,3.137843 -0.07708,0.196511 -0.328147,0.336804 -0.41021,0.530664 -0.156112,0.368781 -0.209325,0.794133 -0.333285,1.176688 -0.251807,0.777098 -0.411999,1.382675 -0.43579,1.361267 -0.119634,-0.107647 -0.217771,-0.444671 -0.769122,-0.830603 -0.158727,-0.111104 -1.518151,-0.942207 -1.666423,-1.245906 -0.645798,-1.322759 1.229961,-2.81032 1.410065,-4.060735 0.179417,-1.245648 -0.282033,-2.305056 -0.282033,-3.5069991 0,-0.4302924 0.116557,-1.4318482 0.179481,-1.8919303 C 59.943295,6.3573064 60.20123,5.2588895 60.238226,4.2263393 60.254393,3.7752268 60.099074,3.2597561 59.956242,2.842002 59.908836,2.7033556 59.456465,2.6285423 59.597329,2.5882053 c 0.461576,-0.1321734 1.662049,-0.3514315 2.17914,-0.4153042 0.10178,-0.012572 0.207608,0.02251 0.30766,0 0.04578,-0.0103 0.02561,-0.1853583 0.02561,-0.1384307 0,0.046927 -0.06452,0.1646841 -0.02561,0.1384307 1.651212,-1.1144903 -2.778866,-0.9772946 -2.922638,-0.9690361 -0.4261,0.024476 -3.90648,0.5603038 -3.896815,0.6690979 0.127802,1.4382856 1.686592,1.6341577 2.076588,2.814828 0.303728,0.9195077 -0.961268,2.9183171 -1.307465,3.8530794 -0.322326,0.870309 -0.07693,3.6027657 -0.07693,4.6836877 0,0.436769 -0.07397,3.595289 -0.07693,3.599283 -0.120351,0.162539 -0.258699,0.478386 -0.307609,0.669101 -0.01924,0.07496 -0.03782,0.307149 -0.02566,0.230726 0.01214,-0.07642 0.102582,-0.222168 0.02566,-0.230726 -0.160743,-0.01789 -0.01543,0.323109 -0.02566,0.484516 -0.02508,0.395034 -0.102553,0.760511 -0.102553,1.153618 0,0.04921 0.0513,0.187649 0.0513,0.138436 0,-0.0025 -3.352535,-2.905497 -4.153172,-4.037657 -0.33623,-0.475453 2.72215,-1.994667 2.050912,-2.561032 -0.692639,-0.584422 -2.086882,-0.190857 -2.871335,0.02307 z"
       style="fill:#ffffff;stroke:#fffffd;stroke-width:0.264583px;stroke-linecap:butt;stroke-linejoin:miter;stroke-opacity:1" />
    <path
       id="path18"
       d="m 23.859393,85.256435 c 0.548934,-1.468601 1.640526,-1.398706 2.717532,-2.168811 1.075451,-0.768995 1.880319,-1.838298 2.948212,-2.607167 0.443748,-0.319492 0.981871,-0.436504 1.435693,-0.761396 1.802307,-1.290273 4.358637,-2.861149 6.10158,-3.645424"
       style="fill:#ffffff;stroke:#fffffd;stroke-width:0.264583px;stroke-linecap:butt;stroke-linejoin:miter;stroke-opacity:1" />
    <path
       id="path20"
       d="m 24.37211,63.522277 c -1.11228,-0.182009 -0.778318,0.153588 -0.897302,-0.761383 -0.132704,-1.020488 -0.230862,-2.422602 -0.564016,-2.422602 -1.18594,0 -1.83465,1.827326 -1.922734,2.699462 -0.16258,1.609733 0.644777,3.341629 0.999806,4.891344 0.167478,0.731046 0.186763,1.776148 1.20496,1.79964 0.858873,0.01982 2.690749,-0.289719 3.230246,-1.107469 0.519551,-0.787517 0.223207,-1.70162 0.435837,-2.514883 0.02077,-0.07941 0.770326,-0.119134 0.820375,-0.138438 0.443008,-0.170865 0.487627,-0.35809 0.948603,-0.415311 0.879075,-0.109117 1.896517,0.01132 2.794407,-0.02307 0.24765,-0.0095 0.98352,-0.06173 0.743498,0"
       style="fill:#ffffff;stroke:#fffffd;stroke-width:0.264583px;stroke-linecap:butt;stroke-linejoin:miter;stroke-opacity:1" />
    <path
       id="path22"
       d="m 26.679429,49.125134 c -0.147179,-0.471022 -0.02566,-2.575962 -0.974181,-2.676393 -1.694733,-0.17944 -2.01497,1.491959 -2.332945,2.768682 -0.191825,0.77021 -1.520402,5.240348 0.43579,5.560436 1.888303,0.308983 2.042443,-1.927879 3.435351,-2.445671 0.455459,-0.169309 0.890527,0.480886 1.179336,0.576805 1.031885,0.34272 1.919266,0.187365 2.973887,0.253804 0.13399,0.0084 4.059835,0.53153 3.56353,-0.138438"
       style="fill:#ffffff;stroke:#fffffd;stroke-width:0.264583px;stroke-linecap:butt;stroke-linejoin:miter;stroke-opacity:1" />
    <path
       id="path24"
       d="m 26.679429,49.125134 c 0.333285,-0.36916 0.578647,-0.843013 0.999853,-1.107477 1.334145,-0.837674 3.70273,-0.275323 5.101775,-0.184579 0.409623,0.02657 0.826458,-0.0258 1.230588,0.04615 0.381058,0.06783 2.493679,0.644107 1.717675,0.207648"
       style="fill:#ffffff;stroke:#fffffd;stroke-width:0.264583px;stroke-linecap:butt;stroke-linejoin:miter;stroke-opacity:1" />
    <path
       id="path26"
       d="m 45.984122,22.776512 c -2.208829,-2.057958 -4.947113,4.996184 -4.460832,5.422001 0.614436,0.538036 2.159635,0.593837 2.820035,0.13843 0.913701,-0.630078 1.35328,-1.615477 1.640797,-1.292047 0.07923,0.08913 0.102537,0.215339 0.153805,0.323008 0.153821,0.153819 0.299773,0.315931 0.461465,0.461452 0.953882,0.858483 2.593933,1.088565 3.512278,1.915001 0.0583,0.05247 -0.153165,-0.03451 -0.230733,-0.04614"
       style="fill:#ffffff;stroke:#fffffd;stroke-width:0.264583px;stroke-linecap:butt;stroke-linejoin:miter;stroke-opacity:1" />
    <path
       id="path28"
       d="m 45.984122,22.776512 c 0.350282,-1.954591 -0.213204,-2.245819 1.615123,-2.676397 0.492191,-0.115913 1.023382,-0.243342 1.512572,-0.11536 1.315623,0.344194 2.448158,4.360301 2.94826,5.560438 0.128479,0.308319 3.331636,0.85725 1.589498,0.669094"
       style="fill:#ffffff;stroke:#fffffd;stroke-width:0.264583px;stroke-linecap:butt;stroke-linejoin:miter;stroke-opacity:1" />
    <path
       id="path30"
       d="m 77.671413,40.796016 c 0.789488,-0.97691 1.712595,-1.170691 2.71753,-1.82272 0.708792,-0.459885 1.384705,-1.152413 2.127885,-1.545843 0.232852,-0.12327 0.381259,0.363958 0.564018,0.553733 0.672129,0.697974 2.397188,1.579276 3.178945,0.692174 0.331631,-0.37632 0.487912,-0.926963 0.769122,-1.338197 1.827501,-2.672482 0.697333,-4.111932 -0.948552,-6.46026 -0.494784,-0.705948 -0.87009,-1.716711 -1.845855,-1.915006 -2.558619,-0.519962 -7.809574,0.163973 -6.152883,3.830016 -0.555474,0.553735 -1.118625,1.099874 -1.666422,1.661204 -0.459321,0.470667 -0.952018,0.913706 -1.358765,1.430485 -0.242035,0.307509 -0.341736,0.712392 -0.589643,1.015186 -0.651692,0.795979 0.402623,-1.056688 -0.461464,0.369157 -0.111168,0.18344 -0.719095,1.378764 -0.307658,1.061328"
       style="fill:#ffffff;stroke:#fffffd;stroke-width:0.264583px;stroke-linecap:butt;stroke-linejoin:miter;stroke-opacity:1" />
    <path
       id="path32"
       d="m 104.79536,59.761487 c 1.5514,0.750279 3.46661,0.592677 4.64027,2.03036 1.04599,1.281297 1.1537,2.613522 1.1537,4.12996 0,0.759632 0.37027,1.773346 -0.28203,2.399517 -0.35647,0.342191 -0.97835,0.18207 -1.43569,0.369157 -1.23299,0.504383 -2.35057,1.538745 -3.79426,1.430486 -0.78853,-0.05913 -2.5878,-1.36833 -2.25607,-2.330307 0.24803,-0.719254 0.68373,-0.831443 0.17948,-1.568921 -0.41766,-0.610836 -1.30447,-0.34598 -1.89715,-0.715243 -0.674,-0.419923 -0.38625,-1.327618 -1.333094,-1.061328"
       style="fill:#ffffff;stroke:#fffffd;stroke-width:0.264583px;stroke-linecap:butt;stroke-linejoin:miter;stroke-opacity:1" />
    <path
       id="path34"
       d="m 97.975914,103.48358 c -0.810943,-0.53031 -1.829422,-0.5742 -1.768931,-1.7535 0.05098,-0.99392 1.83623,-1.67237 2.512426,-2.191868 0.367971,-0.282702 0.551897,-0.689507 0.769075,-1.015188 0.0312,-0.04679 0.159035,-0.01323 0.153852,-0.06921 -0.09669,-1.044604 -0.17462,-0.07528 -0.435837,-0.715243 -0.33242,-0.814395 -0.477055,-1.714058 -0.820375,-2.537955 -0.620134,-1.48818 -1.61494,-2.599769 -2.538098,-3.899225 -0.359392,-0.505886 -0.552458,-0.974312 -1.02548,-1.361273"
       style="fill:#ffffff;stroke:#fffffd;stroke-width:0.264583px;stroke-linecap:butt;stroke-linejoin:miter;stroke-opacity:1" />
    <path
       id="path36"
       d="m 99.283376,86.594623 c 2.161234,1.319821 0.739594,0.339426 2.435544,1.7535 0.44338,0.369686 1.02436,0.75061 1.41002,1.199766 0.16682,0.194284 0.17715,0.489202 0.33329,0.692172 0.0887,0.115263 0.40403,0.225234 0.53839,0.138424 1.03512,-0.668806 0.53776,-0.771763 1.28183,-1.868855 0.2933,-0.432451 0.80445,-0.672624 1.15366,-1.061326 0.89454,-0.995693 2.21201,-2.970133 1.6408,-4.383751 -0.46125,-1.14149 -2.33064,-1.656168 -3.3841,-1.845781 -0.0615,-0.01109 -1.26845,0.135615 -1.38439,0.06921 -0.29921,-0.171373 -0.24257,-0.793226 -0.35891,-1.107472"
       style="fill:#ffffff;stroke:#fffffd;stroke-width:0.264583px;stroke-linecap:butt;stroke-linejoin:miter;stroke-opacity:1" />
    <path
       id="path38"
       d="m 106.30793,86.871497 c -0.32494,-0.118264 -5.35961,-4.555342 -5.94777,-3.299349 -0.453574,0.968576 -0.717858,2.014982 -1.076784,3.022473"
       style="fill:#ffffff;stroke:#fffffd;stroke-width:0.264583px;stroke-linecap:butt;stroke-linejoin:miter;stroke-opacity:1" />
    <path
       id="path40"
       d="m 113.84521,67.583012 c 0.49565,-0.05384 0.99018,-0.119155 1.48694,-0.161509 0.54282,-0.04628 1.2803,-0.130289 1.84586,-0.06921 1.65206,0.178411 -0.44281,3.483467 -1.92279,2.514886 -0.11483,-0.07515 -1.13338,-1.94559 -1.41001,-2.284164 z"
       style="fill:#ffffff;stroke:#fffffd;stroke-width:0.264583px;stroke-linecap:butt;stroke-linejoin:miter;stroke-opacity:1" />
    <path
       id="path42"
       d="m 115.25522,74.758507 c -0.41988,0.420274 -0.94933,0.695497 -1.41001,1.061328 -0.26109,0.207333 -0.41443,0.72294 -0.74345,0.6691 -1.37168,-0.224452 -2.50788,-1.536735 -3.35847,-2.514883 -0.18967,-0.21811 -0.32584,-0.636429 -0.58965,-0.761384 -0.45031,-0.213302 -0.53249,-0.156334 -1.0511,-0.299945 -0.36978,-0.102396 -1.09553,-0.79058 -1.41007,-0.507592"
       style="fill:#ffffff;stroke:#fffffd;stroke-width:0.264583px;stroke-linecap:butt;stroke-linejoin:miter;stroke-opacity:1" />
    <path
       id="path44"
       d="m 61.494458,72.935795 c -1.285053,1.614506 -3.090072,2.481191 -4.768443,3.55314 -0.15045,0.09609 -0.185372,-0.308309 -0.307657,-0.43837 -0.163468,-0.173858 -0.372555,-0.228026 -0.589643,-0.276873 -1.250101,-0.281281 -2.431182,-1.471036 -3.666085,-0.530664 -1.080376,0.822703 -0.55708,3.771111 0.205108,4.637539 0.394216,0.448136 1.627653,0.628026 2.127837,0.969048 0.891265,0.607655 1.550834,1.534202 2.538053,2.030359 0.672835,0.338156 1.914075,0.461137 2.563722,0.622962 0.793761,0.19772 1.52345,0.643641 2.332945,0.761383 1.409933,0.205073 2.805425,-0.214556 4.204475,-0.184579 0.844175,0.0181 1.755368,0.295336 2.512425,-0.253791 2.858302,-2.073253 0.360109,-2.571371 -1.102407,-4.106888 -0.490083,-0.514544 -0.273336,-1.932626 -0.102505,-2.537955 0.309875,-1.098024 0.926989,-1.928506 1.256212,-3.022476 0.356259,-1.183807 0.103471,-2.526331 0.410163,-3.737721 0.08443,-0.333462 0.78953,-1.426337 0.230732,-1.476626"
       style="fill:#ffffff;stroke:#fffffd;stroke-width:0.264583px;stroke-linecap:butt;stroke-linejoin:miter;stroke-opacity:1" />
    <path
       id="path46"
       d="m 49.675835,62.345581 c 0.0012,-5.6e-4 0.61152,-0.329809 0.66657,-0.230719 0.150406,0.270724 -0.416073,0.466236 -0.564017,0.738312 -0.556982,1.024334 -0.94375,2.144173 -1.56387,3.137845 -0.586034,0.939048 -0.498756,0.286445 -1.051108,1.453554 -0.101687,0.214863 -0.03098,0.410768 0.05125,0.59989 0.20116,0.462645 0.628351,0.92233 0.410212,1.476626 -0.169293,0.430178 -1.715752,1.325497 -1.666422,1.591993 0.137276,0.741593 2.482172,2.668048 2.922635,3.622352 0.58493,1.267312 -0.330899,1.881778 -0.743498,2.930194 -0.460859,1.171054 -0.05233,2.159 -1.974032,2.722534 -1.06095,0.311121 -3.300161,0.194849 -4.127548,-0.715243 -1.902108,-2.09224 0.850501,0.213648 -1.128032,-1.638133 -0.419018,-0.392176 -1.106821,-0.74286 -1.589498,-1.03826 -0.960501,-0.587825 -2.811806,-0.05129 -3.614782,-1.107469 -0.484537,-0.63732 1.201803,-4.756597 1.692,-5.468149 0.582549,-0.8456 1.567465,-1.159997 2.127887,-2.00729 0.207066,-0.313058 0.200443,-0.745903 0.435838,-1.038257 0.16475,-0.204613 1.736114,-1.793103 2.102212,-1.915007 0.486542,-0.162011 1.025499,-0.01537 1.538245,-0.02307 0.816714,-2.320568 2.872375,-3.728309 4.48646,-5.445077 0.379511,-0.403655 0.454331,-0.819528 0.846,-1.130541 0.07911,-0.06281 0.35316,-0.190524 0.256407,-0.161507 -0.04967,0.0149 -0.102569,0.01538 -0.153854,0.02307"
       style="fill:#ffffff;stroke:#fffffd;stroke-width:0.264583px;stroke-linecap:butt;stroke-linejoin:miter;stroke-opacity:1" />
    <path
       id="path48"
       d="m 34.191075,57.408111 c -1.626733,-0.501605 -3.297436,-0.02418 -4.383906,1.292048 -0.836514,1.01342 -0.860043,1.432671 -0.615317,2.722533 0.162555,0.85675 0.128847,1.410396 0.79475,2.030373 0.527532,0.491148 0.356097,0.03027 0.743495,0.622945 0.370197,0.566357 0.548645,1.282851 1.179285,1.661219 0.411038,0.24661 0.806707,-0.09938 1.230588,-0.02307 0.335248,0.06034 -0.598165,0.602271 0.461462,0.369154 0.641167,-0.141054 1.414418,-1.415938 1.69205,-1.730414 0.729769,-0.826617 1.656903,-1.380649 2.409873,-2.145729 0.732538,-0.74432 1.102783,-2.018744 1.538242,-2.953266 0.223068,-0.478713 0.3243,-1.056229 0.871628,-1.015185"
       style="fill:#ffffff;stroke:#fffffd;stroke-width:0.264583px;stroke-linecap:butt;stroke-linejoin:miter;stroke-opacity:1" />
    <path
       id="path50"
       d="m 45.855895,38.165764 c -0.339855,-0.620347 0.260485,-1.560049 -0.05125,-2.238015 -0.759375,-1.6515 -2.036291,-1.030708 -2.794407,0.184579 -0.679244,1.088848 -0.73547,2.306346 -1.02548,3.506999 -0.190005,0.786619 -0.584007,1.470194 -0.820423,2.238015 -0.164092,0.532926 -0.417462,0.934432 0.02566,1.315127 1.085927,0.932905 2.294861,1.541463 3.64041,0.80753 0.472482,-0.257715 0.714208,-0.882671 1.33314,-0.945968 0.826717,-0.08454 1.363041,0.887588 1.845855,1.338197 0.199051,0.185774 0.448567,0.08066 0.640942,0.253796"
       style="fill:#ffffff;stroke:#fffffd;stroke-width:0.264583px;stroke-linecap:butt;stroke-linejoin:miter;stroke-opacity:1" />
    <path
       id="path52"
       d="m 58.059108,89.893975 c -0.218149,0.938003 -0.639665,2.943974 -1.02548,3.853074 -0.02397,0.05645 -2.152719,3.74495 -2.17914,3.760801 -0.965716,0.579323 -2.753699,-1.370793 -2.691858,0.715243 0.105722,3.566147 3.016274,2.936127 5.717045,3.091687 3.459803,0.19928 3.231213,0.60667 6.58872,-0.5768 0.515086,-0.18156 1.747491,-0.428 2.17914,-0.945966 0.168267,-0.20192 0.208958,-0.498584 0.205058,-0.761395 -0.01185,-0.798621 -0.464709,-1.717669 -1.333093,-1.845783 -0.05557,-0.0082 -2.350323,0.216297 -2.179137,-0.369157 0.237601,-0.812602 0.865296,-1.452711 0.999805,-2.330305 0.145902,-0.951918 -0.48709,-3.146499 -0.48709,-3.991522"
       style="fill:#ffffff;stroke:#fffffd;stroke-width:0.264583px;stroke-linecap:butt;stroke-linejoin:miter;stroke-opacity:1" />
    <path
       id="path56"
       d="m 97.975914,81.149546 c -0.222192,0.399921 -0.452607,0.795383 -0.666571,1.199764 -0.893966,1.689558 -1.890119,3.453445 -2.640602,5.214358 -0.431824,1.013219 -0.527225,2.485109 -1.358765,3.276269 -0.378256,0.359884 -3.173497,1.042689 -3.845565,0.853678 -0.554318,-0.155895 -3.361471,-2.050108 -3.486603,-2.422599 -0.09208,-0.27409 -0.195633,-0.567579 -0.153807,-0.853681 0.142152,-0.972314 3.717337,-4.822557 3.717337,-5.029766 0,-0.170489 -0.651798,-0.103137 -0.66657,-0.115366 -0.651166,-0.539128 -0.308649,-3.146409 -1.358765,-3.483917 -0.195567,-0.06285 -0.351012,0.215641 -0.538342,0.299932"
       style="fill:#ffffff;stroke:#fffffd;stroke-width:0.264583px;stroke-linecap:butt;stroke-linejoin:miter;stroke-opacity:1" />
    <path
       id="path58"
       d="m 82.465528,52.35526 c -1.125455,-0.643377 -3.850042,-0.623893 -3.358425,1.384342 0.22502,0.919202 0.777706,1.3057 0.743447,2.353376 -0.03065,0.937461 -0.944379,1.009156 -1.204909,1.868866 -0.435004,1.435452 0.698566,1.798315 1.486942,2.607167 0.524386,0.538004 0.769451,1.518417 1.538198,1.776571 2.279173,0.765377 3.891351,-0.587901 5.563237,-1.891924 0.896948,-0.699593 1.387438,-0.824653 1.845855,-2.007304 0.429427,-1.107855 0.109691,-2.059635 -0.205105,-3.091688 -0.18003,-0.590229 0.181586,-1.298723 -0.153805,-1.845783 -0.437681,-0.713907 -3.261095,-0.746141 -3.922442,-0.39224 -0.296781,0.158814 -0.459648,0.654701 -0.794748,0.622959 -0.338907,-0.0321 -0.60276,-0.715759 -0.743495,-0.969044 -0.145179,-0.261282 -0.525505,-0.285486 -0.79475,-0.415298 z"
       style="fill:#ffffff;stroke:#fffffd;stroke-width:0.264583px;stroke-linecap:butt;stroke-linejoin:miter;stroke-opacity:1" />
    <path
       id="path60"
       d="m 45.855895,38.165764 c -0.08923,2.161532 0.148465,0.543746 1.666425,0.599885 1.045694,0.03867 1.333836,1.124048 2.23044,1.384342 0.268645,0.07799 1.40998,0.05772 0.846,0.43837"
       style="fill:#ffffff;stroke:#fffffd;stroke-width:0.264583px;stroke-linecap:butt;stroke-linejoin:miter;stroke-opacity:1" />
    <path
       id="path62"
       d="m 49.880937,29.698217 c 1.678509,0.892699 5.732526,3.537667 0,0"
       style="fill:#ffffff;stroke:#fffffd;stroke-width:0.264583px;stroke-linecap:butt;stroke-linejoin:miter;stroke-opacity:1" />
    <path
       id="path64"
       d="m 64.98111,32.766836 c 0.240644,-1.316993 0.557774,-2.92825 0.07693,-4.245314 -0.233672,-0.64004 -0.719651,-1.081117 -0.692195,-1.822712 0.01347,-0.363578 1.010213,-0.841878 0.564015,-1.315125 -0.696389,-0.738606 -2.652051,-0.107328 -3.025188,-0.830602 -0.375676,-0.728193 1.060881,-2.230373 1.615123,-2.537961 0.657256,-0.364758 1.41851,-0.511606 2.153515,-0.669101 0.530608,-0.113698 5.244166,-0.287854 5.61449,0.06922 0.226301,0.218202 0.375332,0.513724 0.487137,0.807531 0.572337,1.503997 -0.274793,3.206191 -1.43569,4.153024 -0.245173,0.199965 -1.33314,0.16367 -1.33314,0.576811 0,0.06107 0.909918,3.454477 0.71787,2.676393"
       style="fill:#ffffff;stroke:#fffffd;stroke-width:0.264583px;stroke-linecap:butt;stroke-linejoin:miter;stroke-opacity:1" />
    <path
       id="path66"
       d="m 57.13618,41.834273 c -1.757841,1.169236 -3.344791,2.562175 -3.973743,4.63754 -0.18366,0.606023 0.313302,1.114941 -0.179432,2.330304 -0.09481,0.233852 -0.883145,1.969167 -0.820375,2.030368 0.832456,0.811638 2.521614,0.742442 3.537905,1.199758 0.892368,0.401556 2.116296,1.631805 3.127695,1.176695 1.19293,-0.536795 6.685756,-7.151463 6.255433,-8.559842 -0.335884,-1.099304 -1.648429,-0.299755 -2.256065,-0.807532 -0.611378,-0.510903 0.504494,-2.100567 -0.35891,-2.561032 -1.279771,-0.682519 -3.889727,0.675463 -5.332508,0.553741 z"
       style="fill:#ffffff;stroke:#fffffd;stroke-width:0.264583px;stroke-linecap:butt;stroke-linejoin:miter;stroke-opacity:1" />
    <path
       id="path68"
       d="m 94.156023,43.680057 c 0.86427,-1.868821 2.978611,-2.074678 4.358281,-3.276275 0.114384,-0.09962 0.15382,-0.261485 0.230729,-0.392229 0.10254,-0.130741 0.179692,-0.286189 0.307613,-0.392226 0.351801,-0.291621 1.373414,-0.722934 1.589494,-1.176695 0.43688,-0.917421 -1.793244,-0.907259 -0.820371,-2.00729 0.393021,-0.444392 1.163161,-0.729107 1.717671,-0.830609 0.96149,-0.175993 0.81802,0.505483 1.61513,1.222838 0.23608,0.212457 0.56122,0.300968 0.82042,0.484521 1.65818,1.174263 0.0645,0.03735 1.05111,1.268978 0.61147,0.763323 1.71714,1.190972 2.28169,2.030368 0.7449,1.107553 0.47551,2.333021 0.79475,3.530071 0.24376,0.914045 1.36277,2.06425 0.82037,2.976326 -0.35065,0.589648 -1.33693,1.114428 -1.89715,1.384345 -0.5051,0.243356 -1.53581,0.749475 -2.2304,0.738312 -0.75516,-0.01214 -0.50923,-0.203139 -1.1024,-0.461444 -0.65129,-0.283612 -2.34397,-0.60004 -3.02514,-0.392234 -0.25783,0.07866 -1.270919,0.87018 -1.435697,0.969039 -0.465658,0.279376 -0.816109,-0.448386 -1.153657,-0.02307"
       style="fill:#ffffff;stroke:#fffffd;stroke-width:0.264583px;stroke-linecap:butt;stroke-linejoin:miter;stroke-opacity:1" />
    <path
       id="path72"
       d="m 112.51207,47.463924 c -1.15702,-0.653661 -2.27512,-0.337553 -3.48661,-0.461447 -0.46177,-0.04722 -0.94741,-0.267171 -1.38439,-0.299945"
       style="fill:#ffffff;stroke:#fffffd;stroke-width:0.264583px;stroke-linecap:butt;stroke-linejoin:miter;stroke-opacity:1" />
    <path
       id="path74"
       d="m 112.15316,55.308523 c -0.17763,-1.138944 -0.65438,-1.560057 0.76912,-1.938078 1.77155,-0.47045 1.17326,5.572667 -0.25636,5.791152 -0.57623,0.08806 -1.25037,-0.05706 -1.71767,-0.415298 -0.61237,-0.469445 -0.3061,-1.175435 -0.79475,-1.568921 -0.59824,-0.481729 -3.91863,-2.23366 -4.58901,-2.261081 -0.16483,-0.0067 -0.27348,0.184573 -0.41022,0.276862"
       style="fill:#ffffff;stroke:#fffffd;stroke-width:0.264583px;stroke-linecap:butt;stroke-linejoin:miter;stroke-opacity:1" />
    <path
       id="path76"
       d="m 54.623755,103.46051 c -0.618866,0.52496 -3.050146,4.98166 -2.743155,5.65273 0.17122,0.37428 2.082469,0.29606 2.46117,0.43838 1.474682,0.55419 1.9094,1.23679 2.973888,0.0692 0.138652,-0.15208 0.330718,-0.27161 0.410165,-0.46145 0.547102,-0.52774 0.201813,-1.26608 0.41021,-1.86886 0.249483,-0.7216 0.999855,-1.35081 0.999855,-2.14572 0,-0.50213 -3.319172,-0.82718 -3.768638,-1.13056 -0.256127,-0.17288 -0.495662,-0.36915 -0.743495,-0.55373 z"
       style="fill:#ffffff;stroke:#fffffd;stroke-width:0.264583px;stroke-linecap:butt;stroke-linejoin:miter;stroke-opacity:1" />
  </g>
</svg>
