<svg id="Capa_1" data-name="Capa 1" xmlns="http://www.w3.org/2000/svg" xmlns:xlink="http://www.w3.org/1999/xlink" viewBox="0 0 480 480"><defs><style>.cls-1{fill:url(#Degradado_sin_nombre_11);}.cls-2{fill:url(#Degradado_sin_nombre_11-2);}.cls-3{fill:url(#Degradado_sin_nombre_11-3);}.cls-4{fill:#c0dc15;}.cls-5{fill:url(#Degradado_sin_nombre_159);}.cls-6{fill:#68cccc;}.cls-7{fill:url(#Degradado_sin_nombre_92);}.cls-8{font-size:95.57px;}.cls-8,.cls-9{fill:#f13681;font-family:Raleway-Medium, Raleway;}.cls-9{font-size:89.77px;}</style><linearGradient id="Degradado_sin_nombre_11" x1="353.71" y1="213.16" x2="358.41" y2="79.69" gradientUnits="userSpaceOnUse"><stop offset="0" stop-color="#e6e5c9"/><stop offset="0.02" stop-color="#dce1c9"/><stop offset="0.14" stop-color="#b0d1c8"/><stop offset="0.26" stop-color="#8ac2c7"/><stop offset="0.39" stop-color="#6bb7c6"/><stop offset="0.52" stop-color="#53adc6"/><stop offset="0.66" stop-color="#41a7c5"/><stop offset="0.82" stop-color="#37a3c5"/><stop offset="1" stop-color="#34a2c5"/></linearGradient><linearGradient id="Degradado_sin_nombre_11-2" x1="96.08" y1="334.94" x2="99.65" y2="233.35" xlink:href="#Degradado_sin_nombre_11"/><linearGradient id="Degradado_sin_nombre_11-3" x1="386.72" y1="393.11" x2="389.21" y2="322.48" xlink:href="#Degradado_sin_nombre_11"/><linearGradient id="Degradado_sin_nombre_159" x1="265.75" y1="511.46" x2="265.75" y2="211.86" gradientUnits="userSpaceOnUse"><stop offset="0" stop-color="#f13681"/><stop offset="0.18" stop-color="#ef4f8b"/><stop offset="0.55" stop-color="#eb91a6"/><stop offset="1" stop-color="#e6e5c9"/></linearGradient><linearGradient id="Degradado_sin_nombre_92" x1="168.9" y1="419.92" x2="298.2" y2="419.92" gradientUnits="userSpaceOnUse"><stop offset="0" stop-color="#4a65b6"/><stop offset="0.13" stop-color="#465fab" stop-opacity="0.92"/><stop offset="0.37" stop-color="#3b4e8e" stop-opacity="0.72"/><stop offset="0.71" stop-color="#29335f" stop-opacity="0.4"/><stop offset="1" stop-color="#181a33" stop-opacity="0.1"/></linearGradient></defs><title>Iconoss</title><path class="cls-1" d="M469.87,167.2A39.9,39.9,0,0,1,430,207.1H279.89a39.91,39.91,0,0,1-12.57-77.5,32,32,0,0,1,32.22-49.76,26.23,26.23,0,0,1,36.92-20.59,25.09,25.09,0,0,1,39.39.64A26.23,26.23,0,0,1,414,79.43c1-.09,2-.14,3-.14a32,32,0,0,1,26.32,50.31A39.91,39.91,0,0,1,469.87,167.2Z"/><path class="cls-2" d="M184.49,300a30.37,30.37,0,0,1-30.37,30.37H39.89a30.37,30.37,0,0,1-9.57-59,24.39,24.39,0,0,1,24.53-37.88A20,20,0,0,1,83,217.78a19.1,19.1,0,0,1,30,.49A20,20,0,0,1,142,233.15c.75-.07,1.51-.11,2.28-.11a24.38,24.38,0,0,1,20,38.29A30.38,30.38,0,0,1,184.49,300Z"/><path class="cls-3" d="M448.19,368.79a21.11,21.11,0,0,1-21.11,21.12H347.66a21.12,21.12,0,0,1-6.65-41,17,17,0,0,1,17.05-26.33,13.88,13.88,0,0,1,19.54-10.9,13.28,13.28,0,0,1,20.85.34,13.88,13.88,0,0,1,20.2,10.34c.52-.05,1.05-.08,1.59-.08a17,17,0,0,1,13.93,26.62A21.12,21.12,0,0,1,448.19,368.79Z"/><path class="cls-4" d="M235,124a17.85,17.85,0,0,1-.1,1.93V122.1A17.85,17.85,0,0,1,235,124Z"/><path class="cls-4" d="M234.95,121.43v.67c0-.22,0-.45-.07-.67Z"/><path class="cls-5" d="M387.67,266.61q-.37.62-.78,1.19v0l-59,83.06-.05.1a43.71,43.71,0,0,1-29.67,18.76v50.17H168.9V367.36a43.7,43.7,0,0,1-28.07-40.81c0-.63,0-1.26,0-1.87V171.11a20.62,20.62,0,1,1,41.25,0v50.16h4.34V121.43h.25a20.63,20.63,0,0,1,40.93,0c0,.22.05.45.07.67v99.17H232V106.46a20.62,20.62,0,0,1,41.25,0V221.27h4.27V143.62h0c0-.3,0-.6,0-.9a20.63,20.63,0,0,1,41.26,0c0,.3,0,.6,0,.9h0V272.35a6.42,6.42,0,0,0,11.37,4.09c.15-.19.29-.38.42-.59l22.64-31.9c.29-.4.57-.78.88-1.15a20.62,20.62,0,0,1,33.56,23.81Z"/><ellipse class="cls-6" cx="233.55" cy="419.92" rx="64.65" ry="10.11"/><ellipse class="cls-7" cx="233.55" cy="419.92" rx="64.65" ry="10.11"/><text class="cls-8" transform="translate(339.37 187.01)">!</text><text class="cls-9" transform="translate(173.99 332.43)">***-</text></svg>