<svg id="Capa_1" data-name="Capa 1" xmlns="http://www.w3.org/2000/svg" xmlns:xlink="http://www.w3.org/1999/xlink" viewBox="0 0 480 480"><defs><style>.cls-1{fill:url(#Degradado_sin_nombre_11);}.cls-2{fill:url(#Degradado_sin_nombre_11-2);}.cls-3{fill:url(#Degradado_sin_nombre_11-3);}.cls-4{fill:#c0dc15;}.cls-5{fill:url(#Degradado_sin_nombre_159);}.cls-6{fill:#68cccc;}.cls-7{fill:url(#Degradado_sin_nombre_92);}.cls-8{font-size:95.42px;fill:#f13681;font-family:Raleway-Medium, Raleway;}.cls-9{fill:none;stroke:#f13681;stroke-miterlimit:10;stroke-width:4px;}</style><linearGradient id="Degradado_sin_nombre_11" x1="353.54" y1="212.91" x2="358.23" y2="79.64" gradientUnits="userSpaceOnUse"><stop offset="0" stop-color="#e6e5c9"/><stop offset="0.02" stop-color="#dce1c9"/><stop offset="0.14" stop-color="#b0d1c8"/><stop offset="0.26" stop-color="#8ac2c7"/><stop offset="0.39" stop-color="#6bb7c6"/><stop offset="0.52" stop-color="#53adc6"/><stop offset="0.66" stop-color="#41a7c5"/><stop offset="0.82" stop-color="#37a3c5"/><stop offset="1" stop-color="#34a2c5"/></linearGradient><linearGradient id="Degradado_sin_nombre_11-2" x1="96.29" y1="334.51" x2="99.87" y2="233.07" xlink:href="#Degradado_sin_nombre_11"/><linearGradient id="Degradado_sin_nombre_11-3" x1="386.5" y1="392.59" x2="388.99" y2="322.07" xlink:href="#Degradado_sin_nombre_11"/><linearGradient id="Degradado_sin_nombre_159" x1="265.72" y1="510.77" x2="265.72" y2="211.62" gradientUnits="userSpaceOnUse"><stop offset="0" stop-color="#f13681"/><stop offset="0.18" stop-color="#ef4f8b"/><stop offset="0.55" stop-color="#eb91a6"/><stop offset="1" stop-color="#e6e5c9"/></linearGradient><linearGradient id="Degradado_sin_nombre_92" x1="169.01" y1="419.36" x2="298.11" y2="419.36" gradientUnits="userSpaceOnUse"><stop offset="0" stop-color="#4a65b6"/><stop offset="0.13" stop-color="#465fab" stop-opacity="0.92"/><stop offset="0.37" stop-color="#3b4e8e" stop-opacity="0.72"/><stop offset="0.71" stop-color="#29335f" stop-opacity="0.4"/><stop offset="1" stop-color="#181a33" stop-opacity="0.1"/></linearGradient></defs><title>Iconoss</title><path class="cls-1" d="M469.53,167a39.84,39.84,0,0,1-39.84,39.84H279.83a39.85,39.85,0,0,1-12.55-77.38,32,32,0,0,1,32.18-49.69,26.19,26.19,0,0,1,36.87-20.56,25.05,25.05,0,0,1,39.34.64,26.19,26.19,0,0,1,38.11,19.52c1-.09,2-.14,3-.14A32,32,0,0,1,443,129.47,39.85,39.85,0,0,1,469.53,167Z"/><path class="cls-2" d="M184.57,299.58a30.32,30.32,0,0,1-30.32,30.33H40.19A30.33,30.33,0,0,1,30.63,271a24.36,24.36,0,0,1,24.49-37.82,19.94,19.94,0,0,1,28.06-15.65,19.07,19.07,0,0,1,29.94.49,19.93,19.93,0,0,1,29,14.86c.75-.07,1.51-.11,2.28-.11a24.35,24.35,0,0,1,20,38.24A30.33,30.33,0,0,1,184.57,299.58Z"/><path class="cls-3" d="M447.88,368.31a21.08,21.08,0,0,1-21.08,21.08h-79.3a21.09,21.09,0,0,1-6.64-40.95,16.93,16.93,0,0,1,17-26.29,13.86,13.86,0,0,1,19.51-10.88,13.26,13.26,0,0,1,20.82.34,13.86,13.86,0,0,1,20.17,10.33c.52-.05,1-.08,1.58-.08a16.93,16.93,0,0,1,13.9,26.58A21.09,21.09,0,0,1,447.88,368.31Z"/><path class="cls-4" d="M235.05,123.92a17.82,17.82,0,0,1-.1,1.93V122A17.82,17.82,0,0,1,235.05,123.92Z"/><path class="cls-4" d="M235,121.33V122c0-.22,0-.45-.07-.67Z"/><path class="cls-5" d="M387.44,266.29q-.37.62-.78,1.19v0l-58.87,82.93-.05.1a43.64,43.64,0,0,1-29.63,18.73v50.1H169V366.89a43.64,43.64,0,0,1-28-40.75c0-.63,0-1.26,0-1.87V170.93a20.59,20.59,0,1,1,41.19,0V221h4.33V121.33h.25a20.6,20.6,0,0,1,40.87,0c0,.22.05.45.07.67v99H232V106.38a20.59,20.59,0,0,1,41.19,0V221h4.26V143.48h0c0-.3,0-.6,0-.9a20.6,20.6,0,0,1,41.2,0c0,.3,0,.6,0,.9h0V272A6.42,6.42,0,0,0,330,276.1c.15-.19.29-.38.42-.59l22.6-31.85c.29-.4.57-.78.87-1.15a20.59,20.59,0,0,1,33.51,23.78Z"/><ellipse class="cls-6" cx="233.56" cy="419.36" rx="64.55" ry="10.1"/><ellipse class="cls-7" cx="233.56" cy="419.36" rx="64.55" ry="10.1"/><text class="cls-8" transform="translate(339.22 186.81)">!</text><rect class="cls-9" x="207.54" y="282.29" width="55.02" height="48.09"/><path class="cls-9" d="M214,272.8a21.08,21.08,0,0,1,42.15,0"/><line class="cls-9" x1="213.98" y1="272.8" x2="213.98" y2="282.29"/><line class="cls-9" x1="256.13" y1="272.8" x2="256.13" y2="282.29"/><circle class="cls-9" cx="235.05" cy="299.63" r="6.7"/><line class="cls-9" x1="235.05" y1="306.33" x2="235.05" y2="317.87"/></svg>