<svg id="Capa_1" data-name="Capa 1" xmlns="http://www.w3.org/2000/svg" xmlns:xlink="http://www.w3.org/1999/xlink" viewBox="0 0 480 480"><defs><style>.cls-1{fill:url(#Degradado_sin_nombre_111);}.cls-2{fill:url(#Degradado_sin_nombre_99);}.cls-3{fill:#68cccc;}.cls-4{fill:url(#Degradado_sin_nombre_92);}.cls-5{fill:none;stroke:#f13681;stroke-miterlimit:10;stroke-width:4px;}.cls-6{fill:url(#Degradado_sin_nombre_111-2);}.cls-7{fill:url(#Degradado_sin_nombre_111-3);}</style><linearGradient id="Degradado_sin_nombre_111" x1="222.96" y1="356.45" x2="231.81" y2="104.87" gradientUnits="userSpaceOnUse"><stop offset="0" stop-color="#e6e5c9"/><stop offset="0.05" stop-color="#d1e1c9"/><stop offset="0.16" stop-color="#a5d8ca"/><stop offset="0.28" stop-color="#7fd1cb"/><stop offset="0.41" stop-color="#60cbcc"/><stop offset="0.54" stop-color="#48c6cc"/><stop offset="0.67" stop-color="#36c3cd"/><stop offset="0.82" stop-color="#2cc1cd"/><stop offset="1" stop-color="#29c0cd"/></linearGradient><linearGradient id="Degradado_sin_nombre_99" x1="229.97" y1="507.02" x2="219.89" y2="267.59" gradientUnits="userSpaceOnUse"><stop offset="0" stop-color="#f13681"/><stop offset="0.18" stop-color="#ef4f8b"/><stop offset="0.55" stop-color="#eb91a6"/><stop offset="1" stop-color="#e6e5c9"/></linearGradient><linearGradient id="Degradado_sin_nombre_92" x1="155.01" y1="420.38" x2="323.59" y2="420.38" gradientUnits="userSpaceOnUse"><stop offset="0" stop-color="#4a65b6"/><stop offset="0.13" stop-color="#465fab" stop-opacity="0.92"/><stop offset="0.37" stop-color="#3b4e8e" stop-opacity="0.72"/><stop offset="0.71" stop-color="#29335f" stop-opacity="0.4"/><stop offset="1" stop-color="#181a33" stop-opacity="0.1"/></linearGradient><linearGradient id="Degradado_sin_nombre_111-2" x1="80.11" y1="417.46" x2="82.68" y2="344.42" xlink:href="#Degradado_sin_nombre_111"/><linearGradient id="Degradado_sin_nombre_111-3" x1="385.09" y1="394.96" x2="388.52" y2="297.58" xlink:href="#Degradado_sin_nombre_111"/></defs><title>Sin título-1</title><path class="cls-1" d="M441.9,269.82A75.2,75.2,0,0,1,366.7,345H85.33c-.5,0-1,0-1.52,0A75.22,75.22,0,0,1,60.12,198.94a60.41,60.41,0,0,1,60.74-93.8,49.44,49.44,0,0,1,69.6-38.81,47.29,47.29,0,0,1,74.25,1.21,49.43,49.43,0,0,1,71.94,36.85c1.85-.18,3.74-.27,5.65-.27a60.38,60.38,0,0,1,49.6,94.83A75.22,75.22,0,0,1,441.9,269.82Z"/><path class="cls-2" d="M323.59,188.36v232H155V325.07h-24.6V253.54H112.18l11.9-68.82h.08a99.75,99.75,0,0,1,199.06-5Q323.59,184,323.59,188.36Z"/><ellipse class="cls-3" cx="239.3" cy="420.38" rx="84.29" ry="10.7"/><ellipse class="cls-4" cx="239.3" cy="420.38" rx="84.29" ry="10.7"/><path class="cls-5" d="M168.28,201.23a13,13,0,1,1-26-1.22"/><path class="cls-5" d="M226.67,150.2a31.92,31.92,0,1,1,0,45.15,31.92,31.92,0,0,1,0-45.15"/><circle class="cls-5" cx="249.25" cy="172.78" r="19.87" transform="translate(-49.17 226.85) rotate(-45)"/><line class="cls-5" x1="226.67" y1="195.35" x2="215.64" y2="206.38"/><line class="cls-5" x1="282.03" y1="140" x2="271.82" y2="150.2"/><line class="cls-5" x1="227.19" y1="151.55" x2="215.64" y2="140"/><line class="cls-5" x1="282.03" y1="206.38" x2="271.86" y2="196.22"/><line class="cls-5" x1="217.54" y1="173.19" x2="201.89" y2="173.19"/><line class="cls-5" x1="295.78" y1="173.19" x2="281.17" y2="173.19"/><line class="cls-5" x1="248.83" y1="204.69" x2="248.83" y2="220.13"/><line class="cls-5" x1="248.83" y1="126.25" x2="248.83" y2="140.86"/><path class="cls-6" d="M143.69,392.31a21.84,21.84,0,0,1-21.84,21.84H39.71a21.84,21.84,0,0,1-6.88-42.41,17.54,17.54,0,0,1,17.64-27.24,14.36,14.36,0,0,1,20.21-11.27,13.73,13.73,0,0,1,21.56.35,14.35,14.35,0,0,1,20.89,10.7c.54-.05,1.09-.08,1.64-.08a17.53,17.53,0,0,1,14.4,27.53A21.84,21.84,0,0,1,143.69,392.31Z"/><path class="cls-7" d="M469.84,361.43a29.11,29.11,0,0,1-29.11,29.12H331.22A29.12,29.12,0,0,1,322.05,334a23.38,23.38,0,0,1,23.51-36.31,19.14,19.14,0,0,1,26.94-15,18.31,18.31,0,0,1,28.74.47,19.14,19.14,0,0,1,27.85,14.26c.72-.07,1.45-.1,2.19-.1A23.37,23.37,0,0,1,450.49,334,29.12,29.12,0,0,1,469.84,361.43Z"/></svg>