<svg id="Capa_1" data-name="Capa 1" xmlns="http://www.w3.org/2000/svg" xmlns:xlink="http://www.w3.org/1999/xlink" viewBox="0 0 480 480"><defs><style>.cls-1{fill:url(#Degradado_sin_nombre_11);}.cls-2{fill:url(#Degradado_sin_nombre_159);}.cls-3{fill:#68cccc;}.cls-4{fill:url(#Degradado_sin_nombre_92);}.cls-5{fill:none;stroke:#f13681;stroke-miterlimit:10;stroke-width:4px;}.cls-6{fill:url(#Degradado_sin_nombre_11-2);}.cls-7{fill:url(#Degradado_sin_nombre_11-3);}</style><linearGradient id="Degradado_sin_nombre_11" x1="223.12" y1="355.98" x2="231.9" y2="106.49" gradientUnits="userSpaceOnUse"><stop offset="0" stop-color="#e6e5c9"/><stop offset="0.02" stop-color="#dce1c9"/><stop offset="0.14" stop-color="#b0d1c8"/><stop offset="0.26" stop-color="#8ac2c7"/><stop offset="0.39" stop-color="#6bb7c6"/><stop offset="0.52" stop-color="#53adc6"/><stop offset="0.66" stop-color="#41a7c5"/><stop offset="0.82" stop-color="#37a3c5"/><stop offset="1" stop-color="#34a2c5"/></linearGradient><linearGradient id="Degradado_sin_nombre_159" x1="230.08" y1="505.31" x2="220.08" y2="267.86" gradientUnits="userSpaceOnUse"><stop offset="0" stop-color="#f13681"/><stop offset="0.18" stop-color="#ef4f8b"/><stop offset="0.55" stop-color="#eb91a6"/><stop offset="1" stop-color="#e6e5c9"/></linearGradient><linearGradient id="Degradado_sin_nombre_92" x1="155.73" y1="419.39" x2="322.91" y2="419.39" gradientUnits="userSpaceOnUse"><stop offset="0" stop-color="#4a65b6"/><stop offset="0.13" stop-color="#465fab" stop-opacity="0.92"/><stop offset="0.37" stop-color="#3b4e8e" stop-opacity="0.72"/><stop offset="0.71" stop-color="#29335f" stop-opacity="0.4"/><stop offset="1" stop-color="#181a33" stop-opacity="0.1"/></linearGradient><linearGradient id="Degradado_sin_nombre_11-2" x1="81.46" y1="416.49" x2="84.01" y2="344.05" xlink:href="#Degradado_sin_nombre_11"/><linearGradient id="Degradado_sin_nombre_11-3" x1="383.91" y1="394.18" x2="387.31" y2="297.6" xlink:href="#Degradado_sin_nombre_11"/></defs><title>Iconoss</title><path class="cls-1" d="M440.25,270.07a74.58,74.58,0,0,1-74.58,74.59h-279c-.5,0-1,0-1.51,0A74.6,74.6,0,0,1,61.63,199.78a59.91,59.91,0,0,1,60.23-93,49,49,0,0,1,69-38.49,46.9,46.9,0,0,1,73.64,1.2A49,49,0,0,1,335.86,106c1.84-.18,3.71-.27,5.6-.27a59.88,59.88,0,0,1,49.19,94A74.6,74.6,0,0,1,440.25,270.07Z"/><path class="cls-2" d="M322.91,189.29v230.1H155.74V324.86H131.34V253.93H113.26l11.8-68.25h.07a98.92,98.92,0,0,1,197.41-5Q322.92,185,322.91,189.29Z"/><ellipse class="cls-3" cx="239.32" cy="419.39" rx="83.59" ry="10.61"/><ellipse class="cls-4" cx="239.32" cy="419.39" rx="83.59" ry="10.61"/><path class="cls-5" d="M168.9,202.05a12.92,12.92,0,0,1-25.82-1.21"/><path class="cls-5" d="M226.81,151.45a31.66,31.66,0,1,1,0,44.77,31.66,31.66,0,0,1,0-44.77"/><circle class="cls-5" cx="249.19" cy="173.83" r="19.71" transform="translate(-49.93 227.12) rotate(-45)"/><line class="cls-5" x1="226.81" y1="196.22" x2="215.86" y2="207.16"/><line class="cls-5" x1="281.7" y1="141.33" x2="271.58" y2="151.45"/><line class="cls-5" x1="227.32" y1="152.78" x2="215.86" y2="141.33"/><line class="cls-5" x1="281.7" y1="207.16" x2="271.62" y2="197.08"/><line class="cls-5" x1="217.74" y1="174.24" x2="202.23" y2="174.24"/><line class="cls-5" x1="295.33" y1="174.24" x2="280.85" y2="174.24"/><line class="cls-5" x1="248.78" y1="205.49" x2="248.78" y2="220.8"/><line class="cls-5" x1="248.78" y1="127.69" x2="248.78" y2="142.18"/><path class="cls-6" d="M144.51,391.55a21.66,21.66,0,0,1-21.66,21.66H41.39a21.66,21.66,0,0,1-6.82-42.06,17.4,17.4,0,0,1,17.49-27A14.24,14.24,0,0,1,72.1,333a13.62,13.62,0,0,1,21.38.35,14.23,14.23,0,0,1,20.72,10.61c.53-.05,1.08-.08,1.63-.08a17.39,17.39,0,0,1,14.28,27.31A21.66,21.66,0,0,1,144.51,391.55Z"/><path class="cls-7" d="M468,360.92a28.87,28.87,0,0,1-28.87,28.87H330.49a28.88,28.88,0,0,1-9.09-56.08,23.19,23.19,0,0,1,23.32-36,19,19,0,0,1,26.72-14.9,18.15,18.15,0,0,1,28.51.46,19,19,0,0,1,27.62,14.15c.71-.07,1.44-.1,2.17-.1a23.18,23.18,0,0,1,19,36.4A28.88,28.88,0,0,1,468,360.92Z"/></svg>