<svg id="prefix__Capa_1" data-name="Capa 1" xmlns="http://www.w3.org/2000/svg" xmlns:xlink="http://www.w3.org/1999/xlink" viewBox="0 0 480 480"><defs><linearGradient id="prefix__Degradado_sin_nombre_111" x1="222.96" y1="356.45" x2="231.81" y2="104.87" gradientUnits="userSpaceOnUse"><stop offset="0" stop-color="#e6e5c9"/><stop offset=".05" stop-color="#d1e1c9"/><stop offset=".16" stop-color="#a5d8ca"/><stop offset=".28" stop-color="#7fd1cb"/><stop offset=".41" stop-color="#60cbcc"/><stop offset=".54" stop-color="#48c6cc"/><stop offset=".67" stop-color="#36c3cd"/><stop offset=".82" stop-color="#2cc1cd"/><stop offset="1" stop-color="#29c0cd"/></linearGradient><linearGradient id="prefix__Degradado_sin_nombre_99" x1="229.97" y1="507.02" x2="219.89" y2="267.59" gradientUnits="userSpaceOnUse"><stop offset="0" stop-color="#f13681"/><stop offset=".18" stop-color="#ef4f8b"/><stop offset=".55" stop-color="#eb91a6"/><stop offset="1" stop-color="#e6e5c9"/></linearGradient><linearGradient id="prefix__Degradado_sin_nombre_92" x1="155.01" y1="420.38" x2="323.59" y2="420.38" gradientUnits="userSpaceOnUse"><stop offset="0" stop-color="#4a65b6"/><stop offset=".13" stop-color="#465fab" stop-opacity=".92"/><stop offset=".37" stop-color="#3b4e8e" stop-opacity=".72"/><stop offset=".71" stop-color="#29335f" stop-opacity=".4"/><stop offset="1" stop-color="#181a33" stop-opacity=".1"/></linearGradient><linearGradient id="prefix__Degradado_sin_nombre_111-2" x1="80.11" y1="417.46" x2="82.68" y2="344.42" xlink:href="#prefix__Degradado_sin_nombre_111"/><linearGradient id="prefix__Degradado_sin_nombre_111-3" x1="385.09" y1="394.96" x2="388.52" y2="297.58" xlink:href="#prefix__Degradado_sin_nombre_111"/><style>.prefix__cls-5{fill:none;stroke:#f13681;stroke-miterlimit:10;stroke-width:4px}</style></defs><path d="M441.9 269.82A75.2 75.2 0 01366.7 345H83.81a75.22 75.22 0 01-23.69-146.06 60.41 60.41 0 0160.74-93.8 49.44 49.44 0 0169.6-38.81 47.29 47.29 0 0174.25 1.21 49.43 49.43 0 0171.94 36.85c1.85-.18 3.74-.27 5.65-.27a60.38 60.38 0 0149.6 94.83 75.22 75.22 0 0150 70.87z" fill="url(#prefix__Degradado_sin_nombre_111)"/><path d="M323.59 188.36v232H155v-95.29h-24.6v-71.53h-18.22l11.9-68.82h.08a99.75 99.75 0 01199.06-5q.37 4.28.37 8.64z" fill="url(#prefix__Degradado_sin_nombre_99)"/><ellipse cx="239.3" cy="420.38" rx="84.29" ry="10.7" fill="#68cccc"/><ellipse cx="239.3" cy="420.38" rx="84.29" ry="10.7" fill="url(#prefix__Degradado_sin_nombre_92)"/><path class="prefix__cls-5" d="M168.28 201.23a13 13 0 11-26-1.22M226.67 150.2a31.92 31.92 0 110 45.15 31.92 31.92 0 010-45.15"/><circle class="prefix__cls-5" cx="249.25" cy="172.78" r="19.87" transform="rotate(-45 249.247 172.778)"/><path class="prefix__cls-5" d="M226.67 195.35l-11.03 11.03M282.03 140l-10.21 10.2M227.19 151.55L215.64 140M282.03 206.38l-10.17-10.16M217.54 173.19h-15.65M295.78 173.19h-14.61M248.83 204.69v15.44M248.83 126.25v14.61"/><path d="M143.69 392.31a21.84 21.84 0 01-21.84 21.84H39.71a21.84 21.84 0 01-6.88-42.41 17.54 17.54 0 0117.64-27.24 14.36 14.36 0 0120.21-11.27 13.73 13.73 0 0121.56.35 14.35 14.35 0 0120.89 10.7c.54-.05 1.09-.08 1.64-.08a17.53 17.53 0 0114.4 27.53 21.84 21.84 0 0114.52 20.58z" fill="url(#prefix__Degradado_sin_nombre_111-2)"/><path d="M469.84 361.43a29.11 29.11 0 01-29.11 29.12H331.22a29.12 29.12 0 01-9.17-56.55 23.38 23.38 0 0123.51-36.31 19.14 19.14 0 0126.94-15 18.31 18.31 0 0128.74.47 19.14 19.14 0 0127.85 14.26c.72-.07 1.45-.1 2.19-.1A23.37 23.37 0 01450.49 334a29.12 29.12 0 0119.35 27.43z" fill="url(#prefix__Degradado_sin_nombre_111-3)"/></svg>