<svg id="Capa_1" data-name="Capa 1" xmlns="http://www.w3.org/2000/svg" xmlns:xlink="http://www.w3.org/1999/xlink" viewBox="0 0 480 480"><defs><style>.cls-1,.cls-22,.cls-23{fill:none;stroke-miterlimit:10;}.cls-1{stroke:#6c92b4;}.cls-1,.cls-22{stroke-width:1.5px;}.cls-2{fill:url(#Degradado_sin_nombre_121);}.cls-3{fill:url(#Degradado_sin_nombre_86);}.cls-4{fill:url(#Degradado_sin_nombre_20);}.cls-5{fill:url(#Degradado_sin_nombre_31);}.cls-6{fill:url(#Degradado_sin_nombre_43);}.cls-7{fill:url(#Degradado_sin_nombre_19);}.cls-8{fill:url(#Degradado_sin_nombre_98);}.cls-9{fill:url(#Degradado_sin_nombre_20-2);}.cls-10{fill:url(#Degradado_sin_nombre_31-2);}.cls-11{fill:url(#Degradado_sin_nombre_47);}.cls-12{fill:url(#Degradado_sin_nombre_31-3);}.cls-13{fill:url(#Degradado_sin_nombre_20-3);}.cls-14{fill:url(#Degradado_sin_nombre_31-4);}.cls-15{fill:url(#Degradado_sin_nombre_125);}.cls-16{fill:url(#Degradado_sin_nombre_47-2);}.cls-17{fill:url(#Degradado_sin_nombre_31-5);}.cls-18{fill:url(#Degradado_sin_nombre_20-4);}.cls-19{fill:url(#Degradado_sin_nombre_31-6);}.cls-20{fill:url(#Degradado_sin_nombre_47-3);}.cls-21{fill:url(#Degradado_sin_nombre_31-7);}.cls-22{stroke:#e6e5c9;}.cls-23{stroke:#f13681;stroke-width:4px;}.cls-24{fill:#e6e5c9;}.cls-25{fill:url(#Degradado_sin_nombre_20-5);}.cls-26{fill:url(#Degradado_sin_nombre_47-4);}.cls-27{fill:url(#Degradado_sin_nombre_47-5);}.cls-28{fill:url(#Degradado_sin_nombre_20-6);}.cls-29{fill:url(#Degradado_sin_nombre_20-7);}.cls-30{fill:url(#Degradado_sin_nombre_47-6);}.cls-31{fill:url(#Degradado_sin_nombre_20-8);}</style><radialGradient id="Degradado_sin_nombre_121" cx="171.45" cy="370.65" r="94.18" gradientUnits="userSpaceOnUse"><stop offset="0" stop-color="#f13681"/><stop offset="0.32" stop-color="#6e91b3"/><stop offset="0.49" stop-color="#29c0cd"/><stop offset="1" stop-color="#c0dc15"/></radialGradient><linearGradient id="Degradado_sin_nombre_86" x1="149.29" y1="327.88" x2="262.15" y2="154.73" gradientUnits="userSpaceOnUse"><stop offset="0" stop-color="#29c0cd"/><stop offset="0.11" stop-color="#31c1c3"/><stop offset="0.29" stop-color="#47c5a9"/><stop offset="0.53" stop-color="#6acc7e"/><stop offset="0.8" stop-color="#9ad544"/><stop offset="1" stop-color="#c0dc15"/></linearGradient><linearGradient id="Degradado_sin_nombre_20" x1="209.02" y1="96.01" x2="259.84" y2="96.01" gradientTransform="translate(192.52 -153.83) rotate(58.21)" gradientUnits="userSpaceOnUse"><stop offset="0" stop-color="#f13681"/><stop offset="1" stop-color="#d0a539"/></linearGradient><linearGradient id="Degradado_sin_nombre_31" x1="215.65" y1="95.47" x2="253.88" y2="95.47" gradientTransform="translate(192.22 -154.37) rotate(58.21)" gradientUnits="userSpaceOnUse"><stop offset="0" stop-color="#4a65b6"/><stop offset="1" stop-color="#181a33" stop-opacity="0.5"/></linearGradient><linearGradient id="Degradado_sin_nombre_43" x1="98.64" y1="184.38" x2="234.69" y2="409.33" gradientUnits="userSpaceOnUse"><stop offset="0" stop-color="#c0dc15"/><stop offset="0.08" stop-color="#abd82f"/><stop offset="0.24" stop-color="#83d15f"/><stop offset="0.4" stop-color="#63cb86"/><stop offset="0.56" stop-color="#4ac6a5"/><stop offset="0.72" stop-color="#38c3bb"/><stop offset="0.87" stop-color="#2dc1c9"/><stop offset="1" stop-color="#29c0cd"/></linearGradient><linearGradient id="Degradado_sin_nombre_19" x1="192.43" y1="300.49" x2="376.41" y2="233.24" gradientUnits="userSpaceOnUse"><stop offset="0" stop-color="#f13681"/><stop offset="1" stop-color="#c0dc15"/></linearGradient><linearGradient id="Degradado_sin_nombre_98" x1="397.82" y1="377.59" x2="110.25" y2="271.69" gradientUnits="userSpaceOnUse"><stop offset="0" stop-color="#c2d718"/><stop offset="0.1" stop-color="#cdb230"/><stop offset="0.26" stop-color="#dc7d53"/><stop offset="0.4" stop-color="#e8566c"/><stop offset="0.51" stop-color="#ee3f7b"/><stop offset="0.58" stop-color="#f13681"/></linearGradient><linearGradient id="Degradado_sin_nombre_20-2" x1="321.48" y1="379.4" x2="440.95" y2="379.4" gradientTransform="translate(114.49 -87.64) rotate(15.41)" xlink:href="#Degradado_sin_nombre_20"/><linearGradient id="Degradado_sin_nombre_31-2" x1="333.72" y1="379.4" x2="428.71" y2="379.4" gradientTransform="translate(114.49 -87.64) rotate(15.41)" xlink:href="#Degradado_sin_nombre_31"/><linearGradient id="Degradado_sin_nombre_47" x1="-1320.94" y1="1381" x2="-1270.12" y2="1381" gradientTransform="translate(710.35 -1710.04) rotate(-31.79)" gradientUnits="userSpaceOnUse"><stop offset="0" stop-color="#29c0cd"/><stop offset="1" stop-color="#8ed352"/></linearGradient><linearGradient id="Degradado_sin_nombre_31-3" x1="-1314.65" y1="1381" x2="-1276.41" y2="1381" gradientTransform="matrix(0.85, -0.53, 0.53, 0.85, 710.35, -1710.04)" xlink:href="#Degradado_sin_nombre_31"/><linearGradient id="Degradado_sin_nombre_20-3" x1="311.6" y1="-952.31" x2="362.42" y2="-952.31" gradientTransform="translate(-849.76 354.59) rotate(58.21)" xlink:href="#Degradado_sin_nombre_20"/><linearGradient id="Degradado_sin_nombre_31-4" x1="318.63" y1="-952.8" x2="356.86" y2="-952.8" gradientTransform="translate(-849.68 354.19) rotate(58.21)" xlink:href="#Degradado_sin_nombre_31"/><radialGradient id="Degradado_sin_nombre_125" cx="291.6" cy="120.82" r="486.56" gradientUnits="userSpaceOnUse"><stop offset="0" stop-color="#c0dc15"/><stop offset="0.15" stop-color="#c1d917"/><stop offset="0.26" stop-color="#c4d01d"/><stop offset="0.36" stop-color="#c8c027"/><stop offset="0.44" stop-color="#cfaa36"/><stop offset="0.53" stop-color="#d78d48"/><stop offset="0.61" stop-color="#e26a5f"/><stop offset="0.68" stop-color="#ee407a"/><stop offset="0.7" stop-color="#f13681"/><stop offset="0.82" stop-color="#29c0cd"/></radialGradient><linearGradient id="Degradado_sin_nombre_47-2" x1="-1991.33" y1="1185.82" x2="-1940.52" y2="1185.82" gradientTransform="translate(1196.49 -1856.69) rotate(-31.79)" xlink:href="#Degradado_sin_nombre_47"/><linearGradient id="Degradado_sin_nombre_31-5" x1="-1985.04" y1="1185.82" x2="-1946.81" y2="1185.82" gradientTransform="translate(1196.49 -1856.69) rotate(-31.79)" xlink:href="#Degradado_sin_nombre_31"/><linearGradient id="Degradado_sin_nombre_20-4" x1="565.3" y1="-710.69" x2="616.12" y2="-710.69" gradientTransform="matrix(0.53, 0.85, -0.85, 0.53, -566.21, 84.98)" xlink:href="#Degradado_sin_nombre_20"/><linearGradient id="Degradado_sin_nombre_31-6" x1="571.95" y1="-710.16" x2="610.19" y2="-710.16" gradientTransform="matrix(0.53, 0.85, -0.85, 0.53, -565.82, 85.02)" xlink:href="#Degradado_sin_nombre_31"/><linearGradient id="Degradado_sin_nombre_47-3" x1="-566.86" y1="824.07" x2="-529.61" y2="824.07" gradientTransform="matrix(0.53, 0.85, -0.85, 0.53, 1054.46, 364.42)" xlink:href="#Degradado_sin_nombre_47"/><linearGradient id="Degradado_sin_nombre_31-7" x1="-562.24" y1="824.07" x2="-534.22" y2="824.07" gradientTransform="translate(1054.46 364.42) rotate(58.21)" xlink:href="#Degradado_sin_nombre_31"/><linearGradient id="Degradado_sin_nombre_20-5" x1="320.94" y1="379.55" x2="440.41" y2="379.55" gradientTransform="matrix(1, 0, 0, 1, 0, 0)" xlink:href="#Degradado_sin_nombre_20"/><linearGradient id="Degradado_sin_nombre_47-4" x1="49.15" y1="342.07" x2="81.25" y2="323.15" gradientTransform="matrix(1, 0, 0, 1, 0, 0)" xlink:href="#Degradado_sin_nombre_47"/><linearGradient id="Degradado_sin_nombre_47-5" x1="146.98" y1="212.15" x2="153.57" y2="161.76" gradientTransform="matrix(1, 0, 0, 1, 0, 0)" xlink:href="#Degradado_sin_nombre_47"/><linearGradient id="Degradado_sin_nombre_20-6" x1="115.57" y1="126.02" x2="158.87" y2="152.6" gradientTransform="matrix(1, 0, 0, 1, 0, 0)" xlink:href="#Degradado_sin_nombre_20"/><linearGradient id="Degradado_sin_nombre_20-7" x1="325.72" y1="202.8" x2="372.64" y2="222.29" gradientTransform="matrix(1, 0, 0, 1, 0, 0)" xlink:href="#Degradado_sin_nombre_20"/><linearGradient id="Degradado_sin_nombre_47-6" x1="326.08" y1="169.34" x2="347.46" y2="123.24" gradientTransform="matrix(1, 0, 0, 1, 0, 0)" xlink:href="#Degradado_sin_nombre_47"/><linearGradient id="Degradado_sin_nombre_20-8" x1="209.02" y1="96.01" x2="259.84" y2="96.01" gradientTransform="matrix(1, 0, 0, 1, 0, 0)" xlink:href="#Degradado_sin_nombre_20"/></defs><title>Sin título-3</title><path class="cls-1" d="M138,238.07a9.85,9.85,0,0,1,10.71-8.91,9.85,9.85,0,0,0,10.71-8.91"/><path class="cls-2" d="M132.26,410.49a111.24,111.24,0,0,1-46.42-9.59c-35-15.93-42.48-51.56-41.37-70.1l41.67,2.49v-.23c-.08,2.23-.29,22,17,29.85,40.1,18.25,92.34-11.55,92.86-11.85l3.08-1.79,3.55-.69c.53-.1,53.23-10.08,87-17.47l8.92,40.78c-29.43,6.43-72.74,14.76-84.89,17.08C203.05,394.59,169.74,410.49,132.26,410.49Z"/><path class="cls-3" d="M196.91,369.14l-32.22-47.27,16.11,23.63-16.14-23.61c26.6-18.23,66-56.22,66-79.84,0-22.8-7.88-35.22-17-49.59-7-11.05-15-23.59-17.89-39.82-6.75-37.58,12.39-68.75,14.6-72.18l48.12,30.93.16-.25c-.09.15-9.41,15.61-6.57,31.4.93,5.17,4.88,11.39,9.88,19.26,10.94,17.23,25.92,40.83,25.92,80.26,0,28.59-16,59.1-47.59,90.69A335.41,335.41,0,0,1,196.91,369.14Z"/><ellipse class="cls-4" cx="234.43" cy="96.01" rx="14.27" ry="28.54" transform="translate(29.32 244.68) rotate(-58.21)"/><ellipse class="cls-5" cx="234.76" cy="95.47" rx="10.74" ry="21.48" transform="translate(29.93 244.71) rotate(-58.21)"/><path class="cls-6" d="M198.76,383,147.3,368.44c2.28-20.83-5.48-47.79-17.94-60.25-5.7-5.7-12.4-10.55-19.5-15.69-21-15.21-49.76-36-49.76-85.64,0-48.53,40.79-81.54,64.89-93.4l25.25,51.33.16-.08c-.33.17-33.09,17.49-33.09,42.15,0,20.4,7.65,25.94,26.12,39.32,8.19,5.93,17.48,12.66,26.39,21.57C206.54,304.48,199.67,375.07,198.76,383Z"/><path class="cls-7" d="M203.75,405.66l-17.5-54.46c37.18-12,144.34-59.23,148.49-116.48,2.62-36.12-21.49-72-21.74-72.3l47-32.64c1.47,2.11,35.93,52.43,31.81,109.08-3.42,47.14-37.28,89.88-100.63,127A486.58,486.58,0,0,1,203.75,405.66Z"/><path class="cls-8" d="M274.08,387.76s30.52-15.1,48.89,9.58l117.57-34s-6.6-68.41-134.33-36.69S274.08,387.76,274.08,387.76Z"/><ellipse class="cls-9" cx="381.22" cy="379.4" rx="61.45" ry="28.7" transform="translate(-87.09 114.91) rotate(-15.41)"/><ellipse class="cls-10" cx="381.22" cy="379.4" rx="48.86" ry="22.82" transform="translate(-87.09 114.91) rotate(-15.41)"/><ellipse class="cls-11" cx="336.77" cy="146.29" rx="28.54" ry="14.27" transform="translate(-24.99 209.09) rotate(-33.33)"/><ellipse class="cls-12" cx="336.77" cy="146.29" rx="21.48" ry="10.74" transform="translate(-24.99 209.09) rotate(-33.33)"/><ellipse class="cls-13" cx="137.22" cy="139.31" rx="14.27" ry="28.54" transform="translate(-47.92 76.38) rotate(-26.66)"/><ellipse class="cls-14" cx="138.1" cy="139.28" rx="10.74" ry="21.48" transform="translate(-47.81 76.77) rotate(-26.66)"/><path class="cls-15" d="M215.56,406.73C166,406.73,130,377.1,130,336.28c0-22.68,10.85-38.62,19.56-51.43,8.38-12.31,13.12-19.85,13.27-31.73.16-13.44-18.26-34.23-30.76-44l35.12-45.15c5.47,4.24,53.41,42.78,52.84,89.89-.36,29.7-13.5,49.11-23.17,63.23-13.26,19.36,2.81,32.49,18.73,32.49,29,0,33.85-4.3,41.33-13.26,4.58-5.49,6.34-14.4,9.06-29.69,2.26-12.71,5.07-28.52,11.52-45.85,17-45.65,52.42-70,56.41-72.67l31.52,47.74.17-.11c-.24.16-23.88,16.52-34.49,45-4.64,12.47-6.76,24.38-8.81,35.9-3.4,19.13-6.91,38.91-21.47,56.35C277.19,401.2,251.67,406.73,215.56,406.73Z"/><ellipse class="cls-16" cx="150.28" cy="186.96" rx="28.54" ry="14.27" transform="translate(-89.58 185.08) rotate(-50.76)"/><ellipse class="cls-17" cx="150.28" cy="186.96" rx="21.48" ry="10.74" transform="translate(-89.58 185.08) rotate(-50.76)"/><ellipse class="cls-18" cx="349.06" cy="212.63" rx="14.27" ry="28.54" transform="translate(-58.51 243.28) rotate(-35.65)"/><ellipse class="cls-19" cx="349.18" cy="213.26" rx="10.74" ry="21.48" transform="translate(-58.86 243.47) rotate(-35.65)"/><ellipse class="cls-20" cx="65.19" cy="332.6" rx="10.46" ry="20.92" transform="translate(-268.78 390.34) rotate(-88.72)"/><ellipse class="cls-21" cx="65.19" cy="332.6" rx="7.87" ry="15.74" transform="translate(-268.78 390.34) rotate(-88.72)"/><path class="cls-22" d="M225.17,86a9.85,9.85,0,0,0-6.41,11.71"/><path class="cls-22" d="M225.92,104.79a9.82,9.82,0,0,1,6.08-4.52,9.84,9.84,0,0,0,7-6.53"/><path class="cls-22" d="M241.69,112.22A9.85,9.85,0,0,1,245.31,102"/><path class="cls-22" d="M136.13,129.71a9.83,9.83,0,0,1-3.4-.56,9.84,9.84,0,0,0-9.06,1.33"/><path class="cls-22" d="M125.39,142.84a9.83,9.83,0,0,1,3.47.56,9.85,9.85,0,0,0,11.47-3.84"/><path class="cls-22" d="M131.43,153.28a9.82,9.82,0,0,1,7.82-.56"/><path class="cls-22" d="M54.45,331.4l.26.32a9.84,9.84,0,0,1,2.08,8.75"/><path class="cls-22" d="M64.91,342.1a9.89,9.89,0,0,0-1.14-1.64,9.84,9.84,0,0,1-1.9-9.39"/><path class="cls-22" d="M76.07,340.47A9.84,9.84,0,0,0,74,331.71"/><path class="cls-22" d="M344.95,199a9.85,9.85,0,0,1-11.46,7.92"/><path class="cls-22" d="M337.45,220.23a9.85,9.85,0,0,1,10.18-4.56,9.85,9.85,0,0,0,9.66-3.78"/><path class="cls-22" d="M346,228.74q.46.09.91.23a9.85,9.85,0,0,0,12.25-6.62q.14-.48.33-.93"/><path class="cls-1" d="M40.72,237.44a9.85,9.85,0,0,1,13.74-2.31,9.85,9.85,0,0,0,13.74-2.31"/><path class="cls-1" d="M131.43,276.73a9.85,9.85,0,0,1,13,5,9.85,9.85,0,0,0,13,5"/><path class="cls-1" d="M111.48,338.93a9.85,9.85,0,0,1,13.91-.76,9.85,9.85,0,0,0,13.91-.76"/><path class="cls-1" d="M149.43,401.66a9.85,9.85,0,0,1,9.17-10.48,9.85,9.85,0,0,0,9.17-10.48"/><path class="cls-1" d="M307.74,392.51A9.85,9.85,0,0,1,297.56,383a9.85,9.85,0,0,0-10.18-9.51"/><path class="cls-1" d="M346.84,310.19a9.85,9.85,0,0,1-13.36-3.95,9.85,9.85,0,0,0-13.36-3.95"/><path class="cls-1" d="M403.31,172a9.85,9.85,0,0,1-11.89,7.25,9.85,9.85,0,0,0-11.89,7.25"/><path class="cls-1" d="M405.49,265a9.85,9.85,0,0,1-13.36-3.95,9.85,9.85,0,0,0-13.36-3.95"/><path class="cls-1" d="M382.28,306.73a9.85,9.85,0,0,1-10.56-9.09,9.85,9.85,0,0,0-10.56-9.09"/><path class="cls-1" d="M415.66,308.75a9.85,9.85,0,0,1-10.17,9.52,9.85,9.85,0,0,0-10.17,9.52"/><path class="cls-1" d="M314.62,375.55a9.85,9.85,0,0,1-10.17,9.52,9.85,9.85,0,0,0-10.17,9.52"/><path class="cls-1" d="M348.52,301.44A9.85,9.85,0,0,1,343,314.23,9.85,9.85,0,0,0,337.49,327"/><path class="cls-1" d="M52.21,155.41a9.85,9.85,0,0,1,13,5,9.85,9.85,0,0,0,13,5"/><path class="cls-1" d="M82.05,294.77a9.85,9.85,0,0,1,10.24-9.44,9.85,9.85,0,0,0,10.24-9.44"/><path class="cls-1" d="M39,389.64a9.85,9.85,0,0,1,13.16-4.57,9.85,9.85,0,0,0,13.16-4.57"/><path class="cls-1" d="M123.09,429.55a9.85,9.85,0,0,1,6-12.56,9.85,9.85,0,0,0,6-12.56"/><path class="cls-1" d="M111.84,239.83a9.85,9.85,0,0,1,10.47-9.19,9.85,9.85,0,0,0,10.47-9.19"/><path class="cls-1" d="M249.39,143.94a9.85,9.85,0,0,1,13.91-.73,9.85,9.85,0,0,0,13.91-.73"/><path class="cls-1" d="M273.93,214a9.85,9.85,0,0,1,13.91-.73,9.85,9.85,0,0,0,13.91-.73"/><path class="cls-1" d="M252.07,308.48A9.85,9.85,0,0,1,259.84,320a9.85,9.85,0,0,0,7.77,11.56"/><path class="cls-1" d="M184.56,191.06a9.85,9.85,0,0,1,11.17-8.32,9.85,9.85,0,0,0,11.17-8.32"/><path class="cls-1" d="M211,244.92a9.85,9.85,0,0,1,13.88-1.21,9.85,9.85,0,0,0,13.88-1.21"/><path class="cls-1" d="M244.8,298.69A9.85,9.85,0,0,1,258,303.06a9.85,9.85,0,0,0,13.23,4.36"/><path class="cls-1" d="M272.17,226.63a9.85,9.85,0,0,1,11,8.5,9.85,9.85,0,0,0,11,8.5"/><path class="cls-1" d="M304.45,180.27a9.85,9.85,0,0,1,13.77-2.11A9.85,9.85,0,0,0,332,176"/><path class="cls-1" d="M190.33,300.49A9.85,9.85,0,0,1,203,306.25,9.85,9.85,0,0,0,215.7,312"/><path class="cls-1" d="M225.53,354.17A9.85,9.85,0,0,1,228,340.47a9.85,9.85,0,0,0,2.48-13.71"/><path class="cls-1" d="M114.46,189.3a9.85,9.85,0,0,1,10.93,8.63,9.85,9.85,0,0,0,10.93,8.63"/><path class="cls-1" d="M179.4,90.64a9.85,9.85,0,0,1,10.93,8.63,9.85,9.85,0,0,0,10.93,8.63"/><path class="cls-1" d="M208.58,271.54a9.85,9.85,0,0,1,13.24,4.34,9.85,9.85,0,0,0,13.24,4.34"/><path class="cls-1" d="M103.23,366.74a9.85,9.85,0,0,1,8.11-11.32,9.85,9.85,0,0,0,8.11-11.33"/><path class="cls-1" d="M196.95,194.48a9.85,9.85,0,0,1,13.69-2.56,9.85,9.85,0,0,0,13.69-2.56"/><path class="cls-22" d="M325.62,151.44a9.85,9.85,0,0,0,8.36,9.22"/><path class="cls-22" d="M344.13,155.71a9.81,9.81,0,0,1-1.13-6.26,9.81,9.81,0,0,0-1.11-6.24"/><path class="cls-22" d="M354.13,147a9.87,9.87,0,0,1-4.46-7.86"/><path class="cls-22" d="M141.3,193.38a9.85,9.85,0,0,0,10,9.71"/><path class="cls-22" d="M158.61,197.94a9.8,9.8,0,0,1-1.76-5.48,9.85,9.85,0,0,0-10-9.71"/><path class="cls-22" d="M166,185.82a9.83,9.83,0,0,1-4-7.78,9.81,9.81,0,0,0-2.2-6.06"/><path class="cls-23" d="M272.86,237.16a13.53,13.53,0,0,1-19.14.06"/><path class="cls-23" d="M387.42,276.68a13.53,13.53,0,0,1-13.49,13.57"/><path class="cls-23" d="M384.63,157.18a13.53,13.53,0,0,1,13.57,13.49"/><path class="cls-23" d="M282.18,91.54a13.53,13.53,0,0,1,19.14-.06"/><path class="cls-23" d="M183.59,133.38a13.53,13.53,0,0,1,13.49-13.57"/><path class="cls-23" d="M118.13,282.63a13.53,13.53,0,0,1-13.57-13.49"/><path class="cls-24" d="M363.49,359.63s10.26,8.91,10.18,8.82,3-13,3-13Z"/><path class="cls-24" d="M376.1,355.43s8.72,10.43,8.65,10.32,5-12.39,5-12.39Z"/><path class="cls-24" d="M390,353s7.3,11.47,7.25,11.35,6.56-11.64,6.56-11.64Z"/><path class="cls-24" d="M403.79,352.25s4.66,12.77,4.64,12.65,8.91-10,8.91-10Z"/><path class="cls-24" d="M417.68,354.45s-1.91,13.46-1.87,13.34,12.55-4.58,12.55-4.58Z"/><path class="cls-24" d="M398,399.35s-10.26-8.91-10.18-8.82-3,13-3,13Z"/><path class="cls-24" d="M385.39,403.55s-8.72-10.43-8.65-10.32-5,12.39-5,12.39Z"/><path class="cls-24" d="M371.51,405.94s-7.3-11.47-7.25-11.35-6.56,11.64-6.56,11.64Z"/><path class="cls-24" d="M357.7,406.73S353,394,353.06,394.08s-8.91,10-8.91,10Z"/><path class="cls-24" d="M344.53,404.52s1.91-13.46,1.87-13.34-12.55,4.58-12.55,4.58Z"/><path class="cls-25" d="M439.92,363.23c-4.22-15.29-34.15-20.36-66.87-11.35s-55.83,28.71-51.62,44,34.15,20.38,66.87,11.35S444.12,378.5,439.92,363.23Zm-53.18,38.33c-26,7.16-49.81,3.12-53.15-9s15-27.81,41-35,49.81-3.14,53.17,9S412.75,394.38,386.73,401.55Z"/><path class="cls-26" d="M65.43,322.14c-11.55-.25-21,4.22-21.15,10S53.41,342.81,65,343.06s21-4.21,21.15-10S77,322.41,65.43,322.14ZM65,340.48c-8.69-.2-15.66-3.88-15.57-8.22s7.24-7.71,15.92-7.51S81,328.61,80.93,333,73.71,340.67,65,340.48Z"/><path class="cls-22" d="M56.88,303.94a9.85,9.85,0,0,1-1.08,13.89,9.85,9.85,0,0,0-1.34,13.57"/><path class="cls-22" d="M61.87,331.07a9.8,9.8,0,0,1,3-4.49,9.85,9.85,0,0,0,1.08-13.89"/><path class="cls-22" d="M74,331.71a9.85,9.85,0,0,1,1.08-13.89,9.85,9.85,0,0,0,1.08-13.89"/><path class="cls-27" d="M168.34,164.85c-6.11-5-19.14.87-29.11,13.08s-13.11,26.14-7,31.14,19.14-.88,29.11-13.08S174.44,169.83,168.34,164.85Zm-9.74,28.9c-7.51,9.18-17.32,13.59-21.91,9.83s-2.24-14.24,5.27-23.42,17.3-13.59,21.91-9.83S166.09,184.56,158.6,193.75Z"/><path class="cls-22" d="M111.34,164.25a9.85,9.85,0,0,1,10,9.71,9.85,9.85,0,0,0,10,9.71,9.85,9.85,0,0,1,10,9.71"/><path class="cls-22" d="M146.86,182.75a9.85,9.85,0,0,1-10-9.71,9.85,9.85,0,0,0-10-9.71"/><path class="cls-28" d="M150,132.91c-7.08-14.1-18.52-22.65-25.57-19.11s-7,17.83.06,31.91S143,168.36,150,164.82,157,147,150,132.91Zm-2.24,25.56c-5.3,2.66-13.91-3.77-19.23-14.38s-5.33-21.35,0-24,13.91,3.77,19.25,14.38S153,155.81,147.74,158.47Z"/><path class="cls-22" d="M159.85,172a9.83,9.83,0,0,0-7.79-3.65,9.85,9.85,0,0,1-10-9.71,9.85,9.85,0,0,0-10-9.71"/><path class="cls-22" d="M170.4,111.06a9.85,9.85,0,0,1-12.56,6,9.85,9.85,0,0,0-12.56,6,9.85,9.85,0,0,1-9.16,6.59"/><path class="cls-22" d="M140.34,139.55a9.87,9.87,0,0,0,1.09-2.19,9.85,9.85,0,0,1,12.56-6,9.85,9.85,0,0,0,12.56-6"/><path class="cls-22" d="M139.26,152.72a9.85,9.85,0,0,0,12.56-6,9.85,9.85,0,0,1,12.56-6,9.85,9.85,0,0,0,12.56-6"/><path class="cls-29" d="M360.77,204.22c-9.18-12.82-21.83-19.46-28.23-14.87s-4.14,18.69,5,31.51,21.83,19.48,28.23,14.87S370,217,360.77,204.22Zm1.05,26.41c-4.82,3.45-14.33-1.56-21.24-11.19s-8.61-20.25-3.79-23.72,14.32,1.56,21.24,11.19S366.65,227.17,361.83,230.63Z"/><path class="cls-22" d="M367.87,183.16a9.85,9.85,0,0,1-11.46,7.92A9.85,9.85,0,0,0,344.95,199"/><path class="cls-22" d="M357.29,211.89a9.81,9.81,0,0,0,1.81-4.14,9.85,9.85,0,0,1,11.46-7.92A9.85,9.85,0,0,0,382,191.92"/><path class="cls-22" d="M359.54,221.41a9.85,9.85,0,0,1,11.92-5.69,9.85,9.85,0,0,0,12.25-6.62"/><path class="cls-30" d="M360.63,130.61c-4.34-6.59-18.52-4.9-31.69,3.76s-20.35,21-16,27.61,18.52,4.9,31.69-3.76S365,137.19,360.63,130.61Zm-17.95,24.66c-9.93,6.51-20.59,7.78-23.86,2.83s2.13-14.25,12-20.78,20.59-7.78,23.86-2.83S352.59,148.74,342.68,155.27Z"/><path class="cls-22" d="M300.94,115.8A9.85,9.85,0,0,1,309.2,127a9.85,9.85,0,0,0,8.26,11.22,9.85,9.85,0,0,1,8.26,11.22,9.89,9.89,0,0,0-.1,2"/><path class="cls-22" d="M341.89,143.21a9.83,9.83,0,0,0-7.15-5A9.85,9.85,0,0,1,326.48,127a9.85,9.85,0,0,0-8.26-11.22"/><path class="cls-22" d="M349.66,139.18a9.9,9.9,0,0,1,.11-1.87,9.85,9.85,0,0,0-8.26-11.22,9.85,9.85,0,0,1-8.26-11.22A9.85,9.85,0,0,0,325,103.67"/><path class="cls-31" d="M242,83.88c-13.4-8.32-27.63-9.62-31.79-2.91s3.34,18.86,16.74,27.16,27.63,9.6,31.79,2.91S255.35,92.19,242,83.88ZM253,106.78c-3.12,5-13.84,4.07-23.92-2.18s-15.72-15.4-12.6-20.44,13.84-4.07,23.92,2.18S256.14,101.74,253,106.78Z"/><path class="cls-22" d="M247.47,50a9.85,9.85,0,0,1-7.18,11.94,9.85,9.85,0,0,0-7.18,11.94,9.85,9.85,0,0,1-7.18,11.94q-.39.1-.77.23"/><path class="cls-22" d="M239.05,93.75a9.79,9.79,0,0,0,.18-5.4,9.84,9.84,0,0,1,7.17-11.92,9.84,9.84,0,0,0,7.17-11.92"/><path class="cls-22" d="M245.36,102a9.8,9.8,0,0,1,3.55-1.69,9.84,9.84,0,0,0,7.17-11.92,9.84,9.84,0,0,1,7.17-11.92,9.84,9.84,0,0,0,7.17-11.92"/></svg>