<svg id="prefix__Capa_1" data-name="Capa 1" xmlns="http://www.w3.org/2000/svg" xmlns:xlink="http://www.w3.org/1999/xlink" viewBox="0 0 480 480"><defs><linearGradient id="prefix__Degradado_sin_nombre_86" x1="149.29" y1="327.88" x2="262.15" y2="154.73" gradientUnits="userSpaceOnUse"><stop offset="0" stop-color="#29c0cd"/><stop offset=".11" stop-color="#31c1c3"/><stop offset=".29" stop-color="#47c5a9"/><stop offset=".53" stop-color="#6acc7e"/><stop offset=".8" stop-color="#9ad544"/><stop offset="1" stop-color="#c0dc15"/></linearGradient><linearGradient id="prefix__Degradado_sin_nombre_20" x1="209.02" y1="96.01" x2="259.84" y2="96.01" gradientTransform="rotate(58.21 234.42 95.995)" gradientUnits="userSpaceOnUse"><stop offset="0" stop-color="#f13681"/><stop offset="1" stop-color="#d0a539"/></linearGradient><linearGradient id="prefix__Degradado_sin_nombre_31" x1="215.65" y1="95.47" x2="253.88" y2="95.47" gradientTransform="rotate(58.21 234.756 95.455)" gradientUnits="userSpaceOnUse"><stop offset="0" stop-color="#4a65b6"/><stop offset="1" stop-color="#181a33" stop-opacity=".5"/></linearGradient><linearGradient id="prefix__Degradado_sin_nombre_43" x1="98.64" y1="184.38" x2="234.69" y2="409.33" gradientUnits="userSpaceOnUse"><stop offset="0" stop-color="#c0dc15"/><stop offset=".08" stop-color="#abd82f"/><stop offset=".24" stop-color="#83d15f"/><stop offset=".4" stop-color="#63cb86"/><stop offset=".56" stop-color="#4ac6a5"/><stop offset=".72" stop-color="#38c3bb"/><stop offset=".87" stop-color="#2dc1c9"/><stop offset="1" stop-color="#29c0cd"/></linearGradient><linearGradient id="prefix__Degradado_sin_nombre_19" x1="192.43" y1="300.49" x2="376.41" y2="233.24" gradientUnits="userSpaceOnUse"><stop offset="0" stop-color="#f13681"/><stop offset="1" stop-color="#c0dc15"/></linearGradient><linearGradient id="prefix__Degradado_sin_nombre_98" x1="397.82" y1="377.59" x2="110.25" y2="271.69" gradientUnits="userSpaceOnUse"><stop offset="0" stop-color="#c2d718"/><stop offset=".1" stop-color="#cdb230"/><stop offset=".26" stop-color="#dc7d53"/><stop offset=".4" stop-color="#e8566c"/><stop offset=".51" stop-color="#ee3f7b"/><stop offset=".58" stop-color="#f13681"/></linearGradient><linearGradient id="prefix__Degradado_sin_nombre_20-2" x1="321.48" y1="379.4" x2="440.95" y2="379.4" gradientTransform="rotate(15.41 381.132 379.295)" xlink:href="#prefix__Degradado_sin_nombre_20"/><linearGradient id="prefix__Degradado_sin_nombre_31-2" x1="333.72" y1="379.4" x2="428.71" y2="379.4" gradientTransform="rotate(15.41 381.132 379.295)" xlink:href="#prefix__Degradado_sin_nombre_31"/><linearGradient id="prefix__Degradado_sin_nombre_47" x1="-1320.94" y1="1381" x2="-1270.12" y2="1381" gradientTransform="rotate(-31.79 -2647.39 -2102.285)" gradientUnits="userSpaceOnUse"><stop offset="0" stop-color="#29c0cd"/><stop offset="1" stop-color="#8ed352"/></linearGradient><linearGradient id="prefix__Degradado_sin_nombre_31-3" x1="-1314.65" y1="1381" x2="-1276.41" y2="1381" gradientTransform="rotate(-31.8 -2636.02 -2086.327)" xlink:href="#prefix__Degradado_sin_nombre_31"/><linearGradient id="prefix__Degradado_sin_nombre_20-3" x1="311.6" y1="-952.31" x2="362.42" y2="-952.31" gradientTransform="rotate(58.21 -743.35 -585.907)" xlink:href="#prefix__Degradado_sin_nombre_20"/><linearGradient id="prefix__Degradado_sin_nombre_31-4" x1="318.63" y1="-952.8" x2="356.86" y2="-952.8" gradientTransform="rotate(58.21 -742.952 -586.035)" xlink:href="#prefix__Degradado_sin_nombre_31"/><linearGradient id="prefix__Degradado_sin_nombre_47-2" x1="-1991.33" y1="1185.82" x2="-1940.52" y2="1185.82" gradientTransform="rotate(-31.79 -2661.815 -3029.196)" xlink:href="#prefix__Degradado_sin_nombre_47"/><linearGradient id="prefix__Degradado_sin_nombre_31-5" x1="-1985.04" y1="1185.82" x2="-1946.81" y2="1185.82" gradientTransform="rotate(-31.79 -2661.815 -3029.196)" xlink:href="#prefix__Degradado_sin_nombre_31"/><linearGradient id="prefix__Degradado_sin_nombre_20-4" x1="565.3" y1="-710.69" x2="616.12" y2="-710.69" gradientTransform="rotate(58 -358.651 -467.816)" xlink:href="#prefix__Degradado_sin_nombre_20"/><linearGradient id="prefix__Degradado_sin_nombre_31-6" x1="571.95" y1="-710.16" x2="610.19" y2="-710.16" gradientTransform="rotate(58 -358.493 -467.445)" xlink:href="#prefix__Degradado_sin_nombre_31"/><linearGradient id="prefix__Degradado_sin_nombre_47-3" x1="-566.86" y1="824.07" x2="-529.61" y2="824.07" gradientTransform="rotate(58 196.989 1131.618)" xlink:href="#prefix__Degradado_sin_nombre_47"/><linearGradient id="prefix__Degradado_sin_nombre_31-7" x1="-562.24" y1="824.07" x2="-534.22" y2="824.07" gradientTransform="rotate(58.21 199.93 1129.26)" xlink:href="#prefix__Degradado_sin_nombre_31"/><linearGradient id="prefix__Degradado_sin_nombre_20-5" x1="320.94" y1="379.55" x2="440.41" y2="379.55" xlink:href="#prefix__Degradado_sin_nombre_20"/><linearGradient id="prefix__Degradado_sin_nombre_47-4" x1="49.15" y1="342.07" x2="81.25" y2="323.15" xlink:href="#prefix__Degradado_sin_nombre_47"/><linearGradient id="prefix__Degradado_sin_nombre_47-5" x1="146.98" y1="212.15" x2="153.57" y2="161.76" xlink:href="#prefix__Degradado_sin_nombre_47"/><linearGradient id="prefix__Degradado_sin_nombre_20-6" x1="115.57" y1="126.02" x2="158.87" y2="152.6" xlink:href="#prefix__Degradado_sin_nombre_20"/><linearGradient id="prefix__Degradado_sin_nombre_20-7" x1="325.72" y1="202.8" x2="372.64" y2="222.29" xlink:href="#prefix__Degradado_sin_nombre_20"/><linearGradient id="prefix__Degradado_sin_nombre_47-6" x1="326.08" y1="169.34" x2="347.46" y2="123.24" xlink:href="#prefix__Degradado_sin_nombre_47"/><linearGradient id="prefix__Degradado_sin_nombre_20-8" x1="209.02" y1="96.01" x2="259.84" y2="96.01" xlink:href="#prefix__Degradado_sin_nombre_20"/><radialGradient id="prefix__Degradado_sin_nombre_121" cx="171.45" cy="370.65" r="94.18" gradientUnits="userSpaceOnUse"><stop offset="0" stop-color="#f13681"/><stop offset=".32" stop-color="#6e91b3"/><stop offset=".49" stop-color="#29c0cd"/><stop offset="1" stop-color="#c0dc15"/></radialGradient><radialGradient id="prefix__Degradado_sin_nombre_125" cx="291.6" cy="120.82" r="486.56" gradientUnits="userSpaceOnUse"><stop offset="0" stop-color="#c0dc15"/><stop offset=".15" stop-color="#c1d917"/><stop offset=".26" stop-color="#c4d01d"/><stop offset=".36" stop-color="#c8c027"/><stop offset=".44" stop-color="#cfaa36"/><stop offset=".53" stop-color="#d78d48"/><stop offset=".61" stop-color="#e26a5f"/><stop offset=".68" stop-color="#ee407a"/><stop offset=".7" stop-color="#f13681"/><stop offset=".82" stop-color="#29c0cd"/></radialGradient><style>.prefix__cls-1,.prefix__cls-22,.prefix__cls-23{fill:none;stroke-miterlimit:10}.prefix__cls-1,.prefix__cls-22{stroke:#6c92b4;stroke-width:1.5px}.prefix__cls-22{stroke:#e6e5c9}.prefix__cls-23{stroke:#f13681;stroke-width:4px}.prefix__cls-24{fill:#e6e5c9}</style></defs><path class="prefix__cls-1" d="M138 238.07a9.85 9.85 0 0110.71-8.91 9.85 9.85 0 0010.71-8.91"/><path d="M132.26 410.49a111.24 111.24 0 01-46.42-9.59c-35-15.93-42.48-51.56-41.37-70.1l41.67 2.49v-.23c-.08 2.23-.29 22 17 29.85 40.1 18.25 92.34-11.55 92.86-11.85l3.08-1.79 3.55-.69c.53-.1 53.23-10.08 87-17.47l8.92 40.78c-29.43 6.43-72.74 14.76-84.89 17.08-10.61 5.62-43.92 21.52-81.4 21.52z" fill="url(#prefix__Degradado_sin_nombre_121)"/><path d="M196.91 369.14l-32.22-47.27 16.11 23.63-16.14-23.61c26.6-18.23 66-56.22 66-79.84 0-22.8-7.88-35.22-17-49.59-7-11.05-15-23.59-17.89-39.82-6.75-37.58 12.39-68.75 14.6-72.18l48.12 30.93.16-.25c-.09.15-9.41 15.61-6.57 31.4.93 5.17 4.88 11.39 9.88 19.26 10.94 17.23 25.92 40.83 25.92 80.26 0 28.59-16 59.1-47.59 90.69a335.41 335.41 0 01-43.38 36.39z" fill="url(#prefix__Degradado_sin_nombre_86)"/><ellipse cx="234.43" cy="96.01" rx="14.27" ry="28.54" transform="rotate(-58.21 234.416 96.007)" fill="url(#prefix__Degradado_sin_nombre_20)"/><ellipse cx="234.76" cy="95.47" rx="10.74" ry="21.48" transform="rotate(-58.21 234.748 95.474)" fill="url(#prefix__Degradado_sin_nombre_31)"/><path d="M198.76 383l-51.46-14.56c2.28-20.83-5.48-47.79-17.94-60.25-5.7-5.7-12.4-10.55-19.5-15.69-21-15.21-49.76-36-49.76-85.64 0-48.53 40.79-81.54 64.89-93.4l25.25 51.33.16-.08c-.33.17-33.09 17.49-33.09 42.15 0 20.4 7.65 25.94 26.12 39.32 8.19 5.93 17.48 12.66 26.39 21.57 36.72 36.73 29.85 107.32 28.94 115.25z" fill="url(#prefix__Degradado_sin_nombre_43)"/><path d="M203.75 405.66l-17.5-54.46c37.18-12 144.34-59.23 148.49-116.48 2.62-36.12-21.49-72-21.74-72.3l47-32.64c1.47 2.11 35.93 52.43 31.81 109.08-3.42 47.14-37.28 89.88-100.63 127a486.58 486.58 0 01-87.43 39.8z" fill="url(#prefix__Degradado_sin_nombre_19)"/><path d="M274.08 387.76s30.52-15.1 48.89 9.58l117.57-34s-6.6-68.41-134.33-36.69-32.13 61.11-32.13 61.11z" fill="url(#prefix__Degradado_sin_nombre_98)"/><ellipse cx="381.22" cy="379.4" rx="61.45" ry="28.7" transform="rotate(-15.41 381.122 379.31)" fill="url(#prefix__Degradado_sin_nombre_20-2)"/><ellipse cx="381.22" cy="379.4" rx="48.86" ry="22.82" transform="rotate(-15.41 381.122 379.31)" fill="url(#prefix__Degradado_sin_nombre_31-2)"/><ellipse cx="336.77" cy="146.29" rx="28.54" ry="14.27" transform="rotate(-33.33 336.747 146.286)" fill="url(#prefix__Degradado_sin_nombre_47)"/><ellipse cx="336.77" cy="146.29" rx="21.48" ry="10.74" transform="rotate(-33.33 336.747 146.286)" fill="url(#prefix__Degradado_sin_nombre_31-3)"/><ellipse cx="137.22" cy="139.31" rx="14.27" ry="28.54" transform="rotate(-26.66 137.218 139.311)" fill="url(#prefix__Degradado_sin_nombre_20-3)"/><ellipse cx="138.1" cy="139.28" rx="10.74" ry="21.48" transform="rotate(-26.66 138.096 139.274)" fill="url(#prefix__Degradado_sin_nombre_31-4)"/><path d="M215.56 406.73C166 406.73 130 377.1 130 336.28c0-22.68 10.85-38.62 19.56-51.43 8.38-12.31 13.12-19.85 13.27-31.73.16-13.44-18.26-34.23-30.76-44l35.12-45.15c5.47 4.24 53.41 42.78 52.84 89.89-.36 29.7-13.5 49.11-23.17 63.23-13.26 19.36 2.81 32.49 18.73 32.49 29 0 33.85-4.3 41.33-13.26 4.58-5.49 6.34-14.4 9.06-29.69 2.26-12.71 5.07-28.52 11.52-45.85 17-45.65 52.42-70 56.41-72.67l31.52 47.74.17-.11c-.24.16-23.88 16.52-34.49 45-4.64 12.47-6.76 24.38-8.81 35.9-3.4 19.13-6.91 38.91-21.47 56.35-23.64 28.21-49.16 33.74-85.27 33.74z" fill="url(#prefix__Degradado_sin_nombre_125)"/><ellipse cx="150.28" cy="186.96" rx="28.54" ry="14.27" transform="rotate(-50.76 150.274 186.953)" fill="url(#prefix__Degradado_sin_nombre_47-2)"/><ellipse cx="150.28" cy="186.96" rx="21.48" ry="10.74" transform="rotate(-50.76 150.274 186.953)" fill="url(#prefix__Degradado_sin_nombre_31-5)"/><ellipse cx="349.06" cy="212.63" rx="14.27" ry="28.54" transform="rotate(-35.65 349.042 212.622)" fill="url(#prefix__Degradado_sin_nombre_20-4)"/><ellipse cx="349.18" cy="213.26" rx="10.74" ry="21.48" transform="rotate(-35.65 349.162 213.261)" fill="url(#prefix__Degradado_sin_nombre_31-6)"/><ellipse cx="65.19" cy="332.6" rx="10.46" ry="20.92" transform="rotate(-88.72 65.19 332.596)" fill="url(#prefix__Degradado_sin_nombre_47-3)"/><ellipse cx="65.19" cy="332.6" rx="7.87" ry="15.74" transform="rotate(-88.72 65.19 332.596)" fill="url(#prefix__Degradado_sin_nombre_31-7)"/><path class="prefix__cls-22" d="M225.17 86a9.85 9.85 0 00-6.41 11.71M225.92 104.79a9.82 9.82 0 016.08-4.52 9.84 9.84 0 007-6.53M241.69 112.22a9.85 9.85 0 013.62-10.22M136.13 129.71a9.83 9.83 0 01-3.4-.56 9.84 9.84 0 00-9.06 1.33M125.39 142.84a9.83 9.83 0 013.47.56 9.85 9.85 0 0011.47-3.84M131.43 153.28a9.82 9.82 0 017.82-.56M54.45 331.4l.26.32a9.84 9.84 0 012.08 8.75M64.91 342.1a9.89 9.89 0 00-1.14-1.64 9.84 9.84 0 01-1.9-9.39M76.07 340.47a9.84 9.84 0 00-2.07-8.76M344.95 199a9.85 9.85 0 01-11.46 7.92M337.45 220.23a9.85 9.85 0 0110.18-4.56 9.85 9.85 0 009.66-3.78M346 228.74q.46.09.91.23a9.85 9.85 0 0012.25-6.62q.14-.48.33-.93"/><path class="prefix__cls-1" d="M40.72 237.44a9.85 9.85 0 0113.74-2.31 9.85 9.85 0 0013.74-2.31M131.43 276.73a9.85 9.85 0 0113 5 9.85 9.85 0 0013 5M111.48 338.93a9.85 9.85 0 0113.91-.76 9.85 9.85 0 0013.91-.76M149.43 401.66a9.85 9.85 0 019.17-10.48 9.85 9.85 0 009.17-10.48M307.74 392.51a9.85 9.85 0 01-10.18-9.51 9.85 9.85 0 00-10.18-9.51M346.84 310.19a9.85 9.85 0 01-13.36-3.95 9.85 9.85 0 00-13.36-3.95M403.31 172a9.85 9.85 0 01-11.89 7.25 9.85 9.85 0 00-11.89 7.25M405.49 265a9.85 9.85 0 01-13.36-3.95 9.85 9.85 0 00-13.36-3.95M382.28 306.73a9.85 9.85 0 01-10.56-9.09 9.85 9.85 0 00-10.56-9.09M415.66 308.75a9.85 9.85 0 01-10.17 9.52 9.85 9.85 0 00-10.17 9.52"/><path class="prefix__cls-1" d="M314.62 375.55a9.85 9.85 0 01-10.17 9.52 9.85 9.85 0 00-10.17 9.52M348.52 301.44a9.85 9.85 0 01-5.52 12.79 9.85 9.85 0 00-5.51 12.77M52.21 155.41a9.85 9.85 0 0113 5 9.85 9.85 0 0013 5M82.05 294.77a9.85 9.85 0 0110.24-9.44 9.85 9.85 0 0010.24-9.44M39 389.64a9.85 9.85 0 0113.16-4.57 9.85 9.85 0 0013.16-4.57M123.09 429.55a9.85 9.85 0 016-12.56 9.85 9.85 0 006-12.56M111.84 239.83a9.85 9.85 0 0110.47-9.19 9.85 9.85 0 0010.47-9.19M249.39 143.94a9.85 9.85 0 0113.91-.73 9.85 9.85 0 0013.91-.73M273.93 214a9.85 9.85 0 0113.91-.73 9.85 9.85 0 0013.91-.73M252.07 308.48a9.85 9.85 0 017.77 11.52 9.85 9.85 0 007.77 11.56M184.56 191.06a9.85 9.85 0 0111.17-8.32 9.85 9.85 0 0011.17-8.32M211 244.92a9.85 9.85 0 0113.88-1.21 9.85 9.85 0 0013.88-1.21M244.8 298.69a9.85 9.85 0 0113.2 4.37 9.85 9.85 0 0013.23 4.36M272.17 226.63a9.85 9.85 0 0111 8.5 9.85 9.85 0 0011 8.5M304.45 180.27a9.85 9.85 0 0113.77-2.11A9.85 9.85 0 00332 176M190.33 300.49a9.85 9.85 0 0112.67 5.76 9.85 9.85 0 0012.7 5.75M225.53 354.17a9.85 9.85 0 012.47-13.7 9.85 9.85 0 002.48-13.71M114.46 189.3a9.85 9.85 0 0110.93 8.63 9.85 9.85 0 0010.93 8.63M179.4 90.64a9.85 9.85 0 0110.93 8.63 9.85 9.85 0 0010.93 8.63M208.58 271.54a9.85 9.85 0 0113.24 4.34 9.85 9.85 0 0013.24 4.34M103.23 366.74a9.85 9.85 0 018.11-11.32 9.85 9.85 0 008.11-11.33M196.95 194.48a9.85 9.85 0 0113.69-2.56 9.85 9.85 0 0013.69-2.56"/><path class="prefix__cls-22" d="M325.62 151.44a9.85 9.85 0 008.36 9.22M344.13 155.71a9.81 9.81 0 01-1.13-6.26 9.81 9.81 0 00-1.11-6.24M354.13 147a9.87 9.87 0 01-4.46-7.86M141.3 193.38a9.85 9.85 0 0010 9.71M158.61 197.94a9.8 9.8 0 01-1.76-5.48 9.85 9.85 0 00-10-9.71M166 185.82a9.83 9.83 0 01-4-7.78 9.81 9.81 0 00-2.2-6.06"/><path class="prefix__cls-23" d="M272.86 237.16a13.53 13.53 0 01-19.14.06M387.42 276.68a13.53 13.53 0 01-13.49 13.57M384.63 157.18a13.53 13.53 0 0113.57 13.49M282.18 91.54a13.53 13.53 0 0119.14-.06M183.59 133.38a13.53 13.53 0 0113.49-13.57M118.13 282.63a13.53 13.53 0 01-13.57-13.49"/><path class="prefix__cls-24" d="M363.49 359.63s10.26 8.91 10.18 8.82 3-13 3-13z"/><path class="prefix__cls-24" d="M376.1 355.43s8.72 10.43 8.65 10.32 5-12.39 5-12.39zM390 353s7.3 11.47 7.25 11.35 6.56-11.64 6.56-11.64zM403.79 352.25s4.66 12.77 4.64 12.65 8.91-10 8.91-10zM417.68 354.45s-1.91 13.46-1.87 13.34 12.55-4.58 12.55-4.58zM398 399.35s-10.26-8.91-10.18-8.82-3 13-3 13z"/><path class="prefix__cls-24" d="M385.39 403.55s-8.72-10.43-8.65-10.32-5 12.39-5 12.39zM371.51 405.94s-7.3-11.47-7.25-11.35-6.56 11.64-6.56 11.64zM357.7 406.73s-4.7-12.73-4.64-12.65-8.91 10-8.91 10z"/><path class="prefix__cls-24" d="M344.53 404.52s1.91-13.46 1.87-13.34-12.55 4.58-12.55 4.58z"/><path d="M439.92 363.23c-4.22-15.29-34.15-20.36-66.87-11.35s-55.83 28.71-51.62 44 34.15 20.38 66.87 11.35 55.82-28.73 51.62-44zm-53.18 38.33c-26 7.16-49.81 3.12-53.15-9s15-27.81 41-35 49.81-3.14 53.17 9-15.01 27.82-41.03 34.99z" fill="url(#prefix__Degradado_sin_nombre_20-5)"/><path d="M65.43 322.14c-11.55-.25-21 4.22-21.15 10s9.13 10.67 20.72 10.92 21-4.21 21.15-10-9.15-10.65-20.72-10.92zM65 340.48c-8.69-.2-15.66-3.88-15.57-8.22s7.24-7.71 15.92-7.51S81 328.61 80.93 333s-7.22 7.67-15.93 7.48z" fill="url(#prefix__Degradado_sin_nombre_47-4)"/><path class="prefix__cls-22" d="M56.88 303.94a9.85 9.85 0 01-1.08 13.89 9.85 9.85 0 00-1.34 13.57M61.87 331.07a9.8 9.8 0 013-4.49 9.85 9.85 0 001.08-13.89M74 331.71a9.85 9.85 0 011.08-13.89 9.85 9.85 0 001.08-13.89"/><path d="M168.34 164.85c-6.11-5-19.14.87-29.11 13.08s-13.11 26.14-7 31.14 19.14-.88 29.11-13.08 13.1-26.16 7-31.14zm-9.74 28.9c-7.51 9.18-17.32 13.59-21.91 9.83s-2.24-14.24 5.27-23.42 17.3-13.59 21.91-9.83 2.22 14.23-5.27 23.42z" fill="url(#prefix__Degradado_sin_nombre_47-5)"/><path class="prefix__cls-22" d="M111.34 164.25a9.85 9.85 0 0110 9.71 9.85 9.85 0 0010 9.71 9.85 9.85 0 0110 9.71M146.86 182.75a9.85 9.85 0 01-10-9.71 9.85 9.85 0 00-10-9.71"/><path d="M150 132.91c-7.08-14.1-18.52-22.65-25.57-19.11s-7 17.83.06 31.91S143 168.36 150 164.82s7-17.82 0-31.91zm-2.24 25.56c-5.3 2.66-13.91-3.77-19.23-14.38s-5.33-21.35 0-24 13.91 3.77 19.25 14.38 5.22 21.34-.04 24z" fill="url(#prefix__Degradado_sin_nombre_20-6)"/><path class="prefix__cls-22" d="M159.85 172a9.83 9.83 0 00-7.79-3.65 9.85 9.85 0 01-10-9.71 9.85 9.85 0 00-10-9.71M170.4 111.06a9.85 9.85 0 01-12.56 6 9.85 9.85 0 00-12.56 6 9.85 9.85 0 01-9.16 6.59M140.34 139.55a9.87 9.87 0 001.09-2.19 9.85 9.85 0 0112.56-6 9.85 9.85 0 0012.56-6"/><path class="prefix__cls-22" d="M139.26 152.72a9.85 9.85 0 0012.56-6 9.85 9.85 0 0112.56-6 9.85 9.85 0 0012.56-6"/><path d="M360.77 204.22c-9.18-12.82-21.83-19.46-28.23-14.87s-4.14 18.69 5 31.51 21.83 19.48 28.23 14.87 4.23-18.73-5-31.51zm1.05 26.41c-4.82 3.45-14.33-1.56-21.24-11.19s-8.61-20.25-3.79-23.72 14.32 1.56 21.24 11.19 8.62 20.26 3.8 23.72z" fill="url(#prefix__Degradado_sin_nombre_20-7)"/><path class="prefix__cls-22" d="M367.87 183.16a9.85 9.85 0 01-11.46 7.92 9.85 9.85 0 00-11.46 7.92M357.29 211.89a9.81 9.81 0 001.81-4.14 9.85 9.85 0 0111.46-7.92 9.85 9.85 0 0011.44-7.91M359.54 221.41a9.85 9.85 0 0111.92-5.69 9.85 9.85 0 0012.25-6.62"/><path d="M360.63 130.61c-4.34-6.59-18.52-4.9-31.69 3.76s-20.35 21-16 27.61 18.52 4.9 31.69-3.76 20.37-21.03 16-27.61zm-17.95 24.66c-9.93 6.51-20.59 7.78-23.86 2.83s2.13-14.25 12-20.78 20.59-7.78 23.86-2.83-2.09 14.25-12 20.78z" fill="url(#prefix__Degradado_sin_nombre_47-6)"/><path class="prefix__cls-22" d="M300.94 115.8a9.85 9.85 0 018.26 11.2 9.85 9.85 0 008.26 11.22 9.85 9.85 0 018.26 11.22 9.89 9.89 0 00-.1 2M341.89 143.21a9.83 9.83 0 00-7.15-5 9.85 9.85 0 01-8.26-11.21 9.85 9.85 0 00-8.26-11.22M349.66 139.18a9.9 9.9 0 01.11-1.87 9.85 9.85 0 00-8.26-11.22 9.85 9.85 0 01-8.26-11.22 9.85 9.85 0 00-8.25-11.2"/><path d="M242 83.88c-13.4-8.32-27.63-9.62-31.79-2.91s3.34 18.86 16.74 27.16 27.63 9.6 31.79 2.91-3.39-18.85-16.74-27.16zm11 22.9c-3.12 5-13.84 4.07-23.92-2.18s-15.72-15.4-12.6-20.44 13.84-4.07 23.92 2.18 15.74 15.4 12.6 20.44z" fill="url(#prefix__Degradado_sin_nombre_20-8)"/><path class="prefix__cls-22" d="M247.47 50a9.85 9.85 0 01-7.18 11.94 9.85 9.85 0 00-7.18 11.94 9.85 9.85 0 01-7.18 11.94q-.39.1-.77.23M239.05 93.75a9.79 9.79 0 00.18-5.4 9.84 9.84 0 017.17-11.92 9.84 9.84 0 007.17-11.92M245.36 102a9.8 9.8 0 013.55-1.69 9.84 9.84 0 007.17-11.92 9.84 9.84 0 017.17-11.92 9.84 9.84 0 007.17-11.92"/></svg>