<svg id="Capa_1" data-name="Capa 1" xmlns="http://www.w3.org/2000/svg" xmlns:xlink="http://www.w3.org/1999/xlink" viewBox="0 0 480 480"><defs><style>.cls-1{fill:url(#Degradado_sin_nombre_11);}.cls-2,.cls-8{fill:none;stroke-miterlimit:10;stroke-width:4px;}.cls-2{stroke:#f13681;}.cls-3{fill:url(#Degradado_sin_nombre_11-2);}.cls-4{fill:url(#Degradado_sin_nombre_11-3);}.cls-5{fill:url(#Degradado_sin_nombre_159);}.cls-6{fill:url(#Degradado_sin_nombre_159-2);}.cls-7{fill:url(#Degradado_sin_nombre_159-3);}.cls-8{stroke:#e6e5c9;}.cls-9{fill:url(#Degradado_sin_nombre_159-4);}.cls-10{fill:#68cccc;}.cls-11{fill:url(#Degradado_sin_nombre_92);}.cls-12{fill:url(#Degradado_sin_nombre_159-5);}.cls-13{fill:url(#Degradado_sin_nombre_92-2);}</style><linearGradient id="Degradado_sin_nombre_11" x1="222.6" y1="353.9" x2="231.38" y2="104.76" gradientUnits="userSpaceOnUse"><stop offset="0" stop-color="#e6e5c9"/><stop offset="0.02" stop-color="#dce1c9"/><stop offset="0.14" stop-color="#b0d1c8"/><stop offset="0.26" stop-color="#8ac2c7"/><stop offset="0.39" stop-color="#6bb7c6"/><stop offset="0.52" stop-color="#53adc6"/><stop offset="0.66" stop-color="#41a7c5"/><stop offset="0.82" stop-color="#37a3c5"/><stop offset="1" stop-color="#34a2c5"/></linearGradient><linearGradient id="Degradado_sin_nombre_11-2" x1="81.14" y1="414.33" x2="83.68" y2="341.99" xlink:href="#Degradado_sin_nombre_11"/><linearGradient id="Degradado_sin_nombre_11-3" x1="384.25" y1="392.05" x2="387.64" y2="295.6" xlink:href="#Degradado_sin_nombre_11"/><linearGradient id="Degradado_sin_nombre_159" x1="331.84" y1="194.56" x2="331.95" y2="194.56" gradientUnits="userSpaceOnUse"><stop offset="0" stop-color="#f13681"/><stop offset="0.18" stop-color="#ef4f8b"/><stop offset="0.55" stop-color="#eb91a6"/><stop offset="1" stop-color="#e6e5c9"/></linearGradient><linearGradient id="Degradado_sin_nombre_159-2" x1="308.31" y1="236.56" x2="358.46" y2="236.56" xlink:href="#Degradado_sin_nombre_159"/><linearGradient id="Degradado_sin_nombre_159-3" x1="275.4" y1="291.38" x2="358.99" y2="291.38" xlink:href="#Degradado_sin_nombre_159"/><linearGradient id="Degradado_sin_nombre_159-4" x1="134.42" y1="245.34" x2="285.6" y2="245.34" xlink:href="#Degradado_sin_nombre_159"/><linearGradient id="Degradado_sin_nombre_92" x1="6634.79" y1="390.55" x2="6801.74" y2="390.55" gradientTransform="matrix(1, 0, 0, -1, -6500.38, 781.1)" gradientUnits="userSpaceOnUse"><stop offset="0" stop-color="#4a65b6"/><stop offset="0.13" stop-color="#465fab" stop-opacity="0.92"/><stop offset="0.37" stop-color="#3b4e8e" stop-opacity="0.72"/><stop offset="0.71" stop-color="#29335f" stop-opacity="0.4"/><stop offset="1" stop-color="#181a33" stop-opacity="0.1"/></linearGradient><linearGradient id="Degradado_sin_nombre_159-5" x1="134.42" y1="404.8" x2="279.17" y2="404.8" xlink:href="#Degradado_sin_nombre_159"/><linearGradient id="Degradado_sin_nombre_92-2" x1="6634.79" y1="419.84" x2="6801.74" y2="419.84" gradientTransform="matrix(1, 0, 0, -1, -6500.38, 839.68)" xlink:href="#Degradado_sin_nombre_92"/></defs><title>Iconoss</title><path class="cls-1" d="M439.44,268.11A74.48,74.48,0,0,1,365,342.6H86.3c-.5,0-1,0-1.5,0A74.49,74.49,0,0,1,61.33,197.92,59.83,59.83,0,0,1,121.49,105a49,49,0,0,1,68.92-38.44,46.83,46.83,0,0,1,73.54,1.19,49,49,0,0,1,71.25,36.49c1.84-.18,3.71-.27,5.6-.27a59.8,59.8,0,0,1,49.12,93.91A74.5,74.5,0,0,1,439.44,268.11Z"/><circle class="cls-2" cx="233.18" cy="73.24" r="9.15" transform="translate(16.51 186.33) rotate(-45)"/><path class="cls-3" d="M144.1,389.42a21.63,21.63,0,0,1-21.63,21.63H41.12a21.63,21.63,0,0,1-6.81-42,17.37,17.37,0,0,1,17.47-27,14.22,14.22,0,0,1,20-11.16,13.6,13.6,0,0,1,21.35.35,14.21,14.21,0,0,1,20.69,10.6c.53-.05,1.08-.08,1.63-.08A17.36,17.36,0,0,1,129.72,369,21.63,21.63,0,0,1,144.1,389.42Z"/><path class="cls-4" d="M468.19,358.84a28.83,28.83,0,0,1-28.83,28.84H330.9a28.84,28.84,0,0,1-9.08-56,23.16,23.16,0,0,1,23.29-36,19,19,0,0,1,26.68-14.88,18.13,18.13,0,0,1,28.47.46,19,19,0,0,1,27.58,14.13c.71-.07,1.43-.1,2.17-.1a23.15,23.15,0,0,1,19,36.35A28.84,28.84,0,0,1,468.19,358.84Z"/><line class="cls-2" x1="233.18" y1="108.38" x2="233.18" y2="80.41"/><path class="cls-5" d="M331.95,193.81v1.51h0c0-.5,0-1-.07-1.51Z"/><path class="cls-6" d="M358.46,270.64H308.31V202.49h31.83a7.88,7.88,0,0,1,7.47,5.36l.42,2.4Z"/><path class="cls-7" d="M331.95,275.24v32.27H287.24a16.14,16.14,0,1,1,0-32.27Z"/><line class="cls-8" x1="285.96" y1="273.33" x2="285.96" y2="307.51"/><line class="cls-8" x1="307.65" y1="273.33" x2="307.65" y2="307.51"/><line class="cls-8" x1="328.81" y1="273.33" x2="328.81" y2="307.51"/><path class="cls-9" d="M287.24,275.24h44.71V195.32h0c0-.5,0-1-.07-1.51a98.78,98.78,0,0,0-197.06-3.46c-.26,2.83-.37,5.68-.37,8.56V390.55c0-5.85,37.37-10.6,83.47-10.6s83.48,4.75,83.48,10.6V334.31h30.58V307.51H287.24a16.14,16.14,0,1,1,0-32.27Zm-80.14-25.1a52.64,52.64,0,1,1,52.64-52.64A52.64,52.64,0,0,1,207.1,250.14Z"/><circle class="cls-2" cx="295.61" cy="210.51" r="14.13"/><line class="cls-2" x1="268.35" y1="180.53" x2="316.67" y2="180.53"/><ellipse class="cls-10" cx="217.89" cy="390.55" rx="83.47" ry="10.6"/><ellipse class="cls-11" cx="217.89" cy="390.55" rx="83.48" ry="10.6"/><path class="cls-12" d="M301.36,400.34v19.51H134.42V400.34c0-5.85,37.37-10.6,83.47-10.6S301.36,394.49,301.36,400.34Z"/><ellipse class="cls-10" cx="217.89" cy="419.84" rx="83.48" ry="10.6"/><ellipse class="cls-13" cx="217.89" cy="419.84" rx="83.48" ry="10.6"/><polyline class="cls-8" points="178.02 195.44 195.71 215.81 229.65 174.82"/></svg>