<svg id="svg918" xmlns="http://www.w3.org/2000/svg" viewBox="0 0 88 88"><defs><style>.cls-1{fill:none;stroke:#fff;stroke-miterlimit:10;}</style></defs><title>participa</title><path class="cls-1" d="M59.87,35v8.36a3.41,3.41,0,1,1-6.82,0V35a3.41,3.41,0,1,1,6.82,0Z"/><path class="cls-1" d="M53.05,32.6V42a3.42,3.42,0,0,1-6.83,0V32.6a3.42,3.42,0,1,1,6.83,0Z"/><path class="cls-1" d="M46.22,30.05V41.4a2.86,2.86,0,0,1,0,.51,3.41,3.41,0,0,1-6.74,0,2.15,2.15,0,0,1,0-.51V30.05a3.41,3.41,0,1,1,6.81,0Z"/><path class="cls-1" d="M39.41,31.62v8.29h0v1A3.41,3.41,0,0,0,36,37.5a3.1,3.1,0,0,0-.92.13,1.6,1.6,0,0,0-.31.1l-.11,0-2.07.73V31.62a3.41,3.41,0,0,1,6.82,0Z"/><path class="cls-1" d="M43.83,54.12c0,.19,0,.37,0,.56a11,11,0,0,1-.17,1.15c0,.11,0,.23-.07.35a8.43,8.43,0,0,1-.82,2A8.08,8.08,0,0,1,33.85,62a7.92,7.92,0,0,1-4.69-3.25l-.75-1.3L25.7,52.71l-1.24-2.15.05-.53.43-5.68.24-3.23,4.89-1.73,2.52-.89,2.07-.73.11,0a1.6,1.6,0,0,1,.31-.1A3.1,3.1,0,0,1,36,37.5a3.41,3.41,0,0,1,1,6.66h0l-.5.18-1.43.5-2.8,1a.46.46,0,0,0-.27.43.45.45,0,0,0,.45.46.39.39,0,0,0,.18,0,8.09,8.09,0,0,1,2.44-.6c.23,0,.47,0,.69,0A8.06,8.06,0,0,1,43.83,54.12Z"/><path class="cls-1" d="M59.88,54.68a7.21,7.21,0,0,1-4.64,6.74v13.7H33.85V62a8,8,0,0,0,8.9-3.79,8.43,8.43,0,0,0,.82-2c0-.12,0-.24.07-.35a11,11,0,0,0,.17-1.15c0-.19,0-.37,0-.56a8.06,8.06,0,0,0-8.06-8.06c-.22,0-.46,0-.69,0a8.09,8.09,0,0,0-2.44.6.39.39,0,0,1-.18,0,.45.45,0,0,1-.45-.46.46.46,0,0,1,.27-.43l2.8-1,1.43-.5.5-.18h0a3.42,3.42,0,0,0,2.37-3.25h0v.49a2.15,2.15,0,0,0,0,.51,3.41,3.41,0,0,0,6.74,0,2.86,2.86,0,0,0,0-.51V42a3.42,3.42,0,0,0,6.83,0v1.38a3.44,3.44,0,0,0,2.39,3.26,3.43,3.43,0,0,0,4.43-3.26V54.12h0A3.51,3.51,0,0,1,59.88,54.68Z"/><line class="cls-1" x1="44.17" y1="22.48" x2="44.17" y2="12.88"/><line class="cls-1" x1="70.61" y1="24.1" x2="63.92" y2="30.79"/><line class="cls-1" x1="58.03" y1="15.64" x2="54.44" y2="24.52"/><line class="cls-1" x1="33.1" y1="24.57" x2="29.53" y2="15.81"/><line class="cls-1" x1="23.98" y1="30.57" x2="17.39" y2="23.98"/></svg>