<?xml version="1.0" encoding="UTF-8" standalone="no"?>
<svg
   xmlns:dc="http://purl.org/dc/elements/1.1/"
   xmlns:cc="http://creativecommons.org/ns#"
   xmlns:rdf="http://www.w3.org/1999/02/22-rdf-syntax-ns#"
   xmlns:svg="http://www.w3.org/2000/svg"
   xmlns="http://www.w3.org/2000/svg"
   xmlns:sodipodi="http://sodipodi.sourceforge.net/DTD/sodipodi-0.dtd"
   xmlns:inkscape="http://www.inkscape.org/namespaces/inkscape"
   inkscape:version="1.0 (6e3e5246a0, 2020-05-07)"
   sodipodi:docname="iconos.svg"
   id="svg839"
   version="1.1"
   viewBox="0 0 222.79 82.2"
   height="310.676"
   width="842.041">
  <metadata
     id="metadata845">
    <rdf:RDF>
      <cc:Work
         rdf:about="">
        <dc:format>image/svg+xml</dc:format>
        <dc:type
           rdf:resource="http://purl.org/dc/dcmitype/StillImage" />
        <dc:title></dc:title>
      </cc:Work>
    </rdf:RDF>
  </metadata>
  <defs
     id="defs843" />
  <sodipodi:namedview
     inkscape:current-layer="svg839"
     inkscape:window-maximized="1"
     inkscape:window-y="0"
     inkscape:window-x="0"
     inkscape:cy="249.04499"
     inkscape:cx="360.6528"
     inkscape:zoom="1.036111"
     showgrid="false"
     id="namedview841"
     inkscape:window-height="1043"
     inkscape:window-width="1920"
     inkscape:pageshadow="2"
     inkscape:pageopacity="0"
     guidetolerance="10"
     gridtolerance="10"
     objecttolerance="10"
     borderopacity="1"
     bordercolor="#666666"
     pagecolor="#000000" />
  <path
     inkscape:label="icn-cuenta"
     sodipodi:nodetypes="ssssscccccccccccccccccc"
     style="fill:#ffffff"
     id="path833"
     d="m 34.039733,31.58716 c -5.522847,0 -10,4.477153 -10,10 0,5.522847 4.477153,10 10,10 5.522847,0 10,-4.477153 10,-10 0,-5.522847 -4.477153,-10 -10,-10 z m 0.019,4.322 c 1.592428,0.0022 2.882797,1.292572 2.885,2.885 -0.0028,1.5922 -1.2928,2.882248 -2.885,2.885 -1.5922,-0.0028 -2.882248,-1.2928 -2.885,-2.885 0.0022,-1.592428 1.292572,-2.882797 2.885,-2.885 z m 0,0.54 c -1.295864,-0.0022 -2.346771,1.049137 -2.344,2.345 -0.0022,1.295472 1.048528,2.346216 2.344,2.344 1.295472,0.0022 2.346216,-1.048528 2.344,-2.344 0.0022,-1.295472 -1.048528,-2.346216 -2.344,-2.344 z m 0.123,6.23 c 2.864,0 5.39,1.46 6.874,3.674 -0.109,0.16 -0.224,0.313 -0.342,0.465 -1.41487,-2.2416 -3.881223,-3.600133 -6.532,-3.598 -2.73441,-0.0019 -5.265835,1.442746 -6.655,3.798 -0.122784,-0.147626 -0.240519,-0.299381 -0.353,-0.455 1.510334,-2.416105 4.158672,-3.883877 7.008,-3.884 z" />
  <path
     inkscape:label="icn-credenciales"
     id="path835"
     paint-order="markers fill stroke"
     overflow="visible"
     font-family="sans-serif"
     font-weight="400"
     color="#000000"
     style="line-height:normal;font-variant-ligatures:normal;font-variant-position:normal;font-variant-caps:normal;font-variant-numeric:normal;font-variant-alternates:normal;font-variant-east-asian:normal;font-feature-settings:normal;font-variation-settings:normal;text-indent:0;text-align:start;text-decoration:none;text-decoration-line:none;text-decoration-style:solid;text-decoration-color:#000000;text-transform:none;text-orientation:mixed;white-space:normal;shape-padding:0;shape-margin:0;inline-size:0;isolation:auto;mix-blend-mode:normal;solid-color:#000000;solid-opacity:1;fill:#ffffff"
     d="m 103.21457,31.92416 a 3.2,3.2 0 0 0 -3.199,3.199 v 12.928 a 3.2,3.2 0 0 0 3.2,3.199 h 12.698 a 3.2,3.2 0 0 0 3.2,-3.2 v -12.926 a 3.2,3.2 0 0 0 -3.2,-3.2 z m 0.476,7.126 h 0.896 v 1.017 l 0.917,-0.553 0.323,0.55 0.137,0.236 -0.975,0.527 0.976,0.53 -0.462,0.78 -0.916,-0.552 v 1.017 h -0.896 v -1.017 l -0.916,0.552 -0.463,-0.78 0.976,-0.53 -0.974,-0.527 0.46,-0.786 0.917,0.554 z m 5.426,0 h 0.896 v 1.018 l 0.916,-0.554 0.323,0.55 0.139,0.236 -0.976,0.527 0.976,0.53 -0.462,0.78 -0.916,-0.552 v 1.017 h -0.896 v -1.017 l -0.915,0.552 -0.463,-0.78 0.975,-0.53 -0.975,-0.527 0.462,-0.786 0.916,0.553 z m 5.426,0 h 0.896 v 1.017 l 0.917,-0.553 0.323,0.55 0.137,0.236 -0.974,0.527 0.976,0.53 -0.463,0.78 -0.916,-0.552 v 1.017 h -0.896 v -1.017 l -0.916,0.552 -0.462,-0.78 0.975,-0.53 -0.974,-0.527 0.46,-0.786 0.917,0.553 z" />
  <path
     inkscape:label="icn-compras"
     sodipodi:nodetypes="ccscscccccsccccccccccccccscccsssss"
     style="fill:#ffffff"
     id="path837"
     d="m 188.94041,45.01816 c -0.49623,0.0066 -0.89504,0.410727 -0.895,0.907 5.5e-4,0.500532 0.40647,0.906 0.907,0.906 0.50053,0 0.90645,-0.405468 0.907,-0.906 0,-0.500922 -0.40608,-0.907 -0.907,-0.907 -0.004,-2.6e-5 -0.008,-2.6e-5 -0.012,0 z m -6.372,0 c -0.49584,0.0071 -0.89405,0.411111 -0.894,0.907 5.5e-4,0.500142 0.40586,0.905449 0.906,0.906 0.50053,0 0.90645,-0.405468 0.907,-0.906 0,-0.500922 -0.40608,-0.907 -0.907,-0.907 -0.004,-2.6e-5 -0.008,-2.6e-5 -0.012,0 z m -0.064,-5.186 0.917,3.099 5.82,0.042 0.773,-3.114 z m -1.18,-1.383 -1.875,0.039 c -0.19734,0.0044 -0.35391,0.16765 -0.35,0.365 0.003,0.19773 0.16627,0.355342 0.364,0.352 l 1.342,-0.03 1.623,5.024 h 0.262 c 2.234,-0.011 4.378,0.037 6.624,0.018 0.19772,-0.0022 0.35622,-0.164277 0.354,-0.362 -0.002,-0.197329 -0.16367,-0.355666 -0.361,-0.354 -2.144,0.018 -4.208,-0.024 -6.358,-0.018 z m 3.923,-6.862 c 5.52285,0 10,4.477153 10,10 0,5.522847 -4.47715,10 -10,10 -5.52285,0 -10,-4.477153 -10,-10 0,-5.522847 4.47715,-10 10,-10 z" />
  <path
     inkscape:label="icn-facilitadores"
     sodipodi:nodetypes="ccccccccccccccccccccscsccscscccccccsscssccccccc"
     d="m 143.58199,46.288679 v 1.572 h 7.366 v -1.572 z m 3.678,-3.968 -1.061,1.848 2.133,0.007 z m 9.819,-2.612 h 0.961 v 5.55 h -0.961 z m -20.758,0 h 0.962 v 5.55 h -0.962 z m 14.806,-0.996 c -0.8857,-5.53e-4 -1.604,0.717297 -1.604,1.603 0,0.885703 0.7183,1.603553 1.604,1.603 0.88531,0 1.603,-0.717688 1.603,-1.603 0,-0.885312 -0.71769,-1.603 -1.603,-1.603 z m -7.666,0 c -0.8857,-5.53e-4 -1.604,0.717297 -1.604,1.603 0,0.885703 0.7183,1.603553 1.604,1.603 0.88531,0 1.603,-0.717688 1.603,-1.603 0,-0.885312 -0.71769,-1.603 -1.603,-1.603 z m 3.702,-8.224 v -0.002 c 0.006,-5.1e-5 0.012,-5.1e-5 0.018,0 0.58542,0 1.06,0.474578 1.06,1.06 4.1e-4,0.394637 -0.21845,0.756829 -0.568,0.94 l 0.506,0.874 h 5.351 c 1.76731,0 3.2,1.432689 3.2,3.2 v 12.929 c -10e-4,1.76653 -1.43347,3.198 -3.2,3.198 h -12.698 c -1.76653,0 -3.1989,-1.43147 -3.2,-3.198 v -12.928 c 5.5e-4,-1.76653 1.43247,-3.198448 3.199,-3.199 h 5.347 l 0.504,-0.878 c -0.34557,-0.184388 -0.5613,-0.544314 -0.561,-0.936 -8e-5,-0.578464 0.46362,-1.050177 1.042,-1.06 z"
     id="path891"
     style="fill:#ffffff" />
  <path
     inkscape:label="icn-publicacion"
     sodipodi:nodetypes="ccccsssccccccccccccccccccccccccccccccccccccc"
     d="m 72.002149,31.974372 c -5.944,0.01 -10.756,3.817 -10.755,8.508 0,3.18 2.248,6.096 5.829,7.557 1.114,0.733 1.512,1.46 -0.926,3.047 1.793,0.621 6.541,-1.45 10.063,-2.688 3.522,-1.238 6.595,-4.359 6.595,-7.916 0,-4.7 -4.827,-8.508 -10.781,-8.508 z m -3.265,11.805 c 0.081,0 0.158,0.016 0.229,0.047 0.07,0.028 0.132,0.068 0.185,0.12 0.0528,0.05024 0.09468,0.11084 0.123,0.178 0.128758,0.291283 -0.01199,0.631075 -0.309,0.746 -0.0725,0.02896 -0.149933,0.04356 -0.228,0.043 -0.154845,10e-4 -0.304279,-0.0569 -0.418,-0.162 -0.05132,-0.05204 -0.09268,-0.113048 -0.122,-0.18 -0.0581,-0.143337 -0.0581,-0.303663 0,-0.447 0.02947,-0.06657 0.07081,-0.127229 0.122,-0.179 0.05375,-0.05153 0.116894,-0.09227 0.186,-0.12 0.07328,-0.03133 0.152306,-0.047 0.232,-0.046 z m 3.108,0 c 0.082,0 0.158,0.016 0.229,0.047 0.07,0.028 0.132,0.068 0.185,0.12 0.053,0.05 0.094,0.11 0.123,0.178 0.128858,0.290999 -0.01138,0.630667 -0.308,0.746 -0.07312,0.02921 -0.151261,0.04382 -0.23,0.043 -0.1545,7.58e-4 -0.303532,-0.05714 -0.417,-0.162 -0.05165,-0.05199 -0.09334,-0.112992 -0.123,-0.18 -0.0581,-0.143337 -0.0581,-0.303663 0,-0.447 0.02981,-0.06663 0.07149,-0.127284 0.123,-0.179 0.05375,-0.05153 0.116894,-0.09227 0.186,-0.12 0.07328,-0.03133 0.152306,-0.047 0.232,-0.046 z m 3.108,0 c 0.082,0 0.158,0.016 0.229,0.047 0.07,0.028 0.132,0.068 0.185,0.12 0.0528,0.05024 0.09468,0.11084 0.123,0.178 0.128758,0.291283 -0.01199,0.631075 -0.309,0.746 -0.0725,0.02896 -0.149933,0.04356 -0.228,0.043 -0.154845,10e-4 -0.304279,-0.0569 -0.418,-0.162 -0.05133,-0.05204 -0.09268,-0.113048 -0.122,-0.18 -0.0581,-0.143337 -0.0581,-0.303663 0,-0.447 0.02947,-0.06657 0.07081,-0.127229 0.122,-0.179 0.05375,-0.05153 0.116894,-0.09227 0.186,-0.12 0.07328,-0.03133 0.152306,-0.047 0.232,-0.046 z"
     id="path893"
     style="fill:#ffffff" />
</svg>
