<svg xmlns="http://www.w3.org/2000/svg" width="842.041" height="310.676" viewBox="0 0 222.79 82.2"><path d="M75.419 31.655c-5.944.01-10.756 3.817-10.755 8.508 0 3.18 2.248 6.096 5.829 7.557 1.114.733 1.512 1.46-.926 3.047 1.793.621 6.541-1.45 10.063-2.688 3.522-1.238 6.595-4.359 6.595-7.916 0-4.7-4.827-8.508-10.781-8.508zM72.154 43.46c.081 0 .158.016.229.047.07.028.132.068.185.12a.53.53 0 01.123.178.558.558 0 01-.309.746.603.603 0 01-.228.043.61.61 0 01-.418-.162.598.598 0 01-.122-.18.595.595 0 010-.447.6.6 0 01.122-.179.582.582 0 01.186-.12.572.572 0 01.232-.046zm3.108 0c.082 0 .158.016.229.047.07.028.132.068.185.12.053.05.094.11.123.178a.558.558 0 01-.308.746.603.603 0 01-.23.043.61.61 0 01-.417-.162.6.6 0 01-.123-.18.595.595 0 010-.447.602.602 0 01.123-.179.582.582 0 01.186-.12.572.572 0 01.232-.046zm3.108 0c.082 0 .158.016.229.047.07.028.132.068.185.12a.53.53 0 01.123.178.558.558 0 01-.309.746.603.603 0 01-.228.043.61.61 0 01-.418-.162.598.598 0 01-.122-.18.595.595 0 010-.447.6.6 0 01.122-.179.582.582 0 01.186-.12.572.572 0 01.232-.046zM39.187 31.268a10 10 0 00-10 10 10 10 0 0010 10 10 10 0 0010-10 10 10 0 00-10-10zm.019 4.322a2.889 2.889 0 012.885 2.885 2.89 2.89 0 01-2.885 2.885 2.89 2.89 0 01-2.885-2.885 2.889 2.889 0 012.885-2.885zm0 .54a2.34 2.34 0 00-2.344 2.345 2.34 2.34 0 002.344 2.344 2.34 2.34 0 002.344-2.344 2.34 2.34 0 00-2.344-2.344zm.123 6.23c2.864 0 5.39 1.46 6.874 3.674-.109.16-.224.313-.342.465a7.717 7.717 0 00-6.532-3.598 7.72 7.72 0 00-6.655 3.798 8.48 8.48 0 01-.353-.455 8.265 8.265 0 017.008-3.884z"/><path d="M104.9 31.605a3.2 3.2 0 00-3.199 3.199v12.928a3.2 3.2 0 003.2 3.199h12.698a3.2 3.2 0 003.2-3.2V34.805a3.2 3.2 0 00-3.2-3.2zm.476 7.126h.896v1.017l.917-.553.323.55.137.236-.975.527.976.53-.462.78-.916-.552v1.017h-.896v-1.017l-.916.552-.463-.78.976-.53-.974-.527.46-.786.917.554zm5.426 0h.896v1.018l.916-.554.323.55.139.236-.976.527.976.53-.462.78-.916-.552v1.017h-.896v-1.017l-.915.552-.463-.78.975-.53-.975-.527.462-.786.916.553zm5.426 0h.896v1.017l.917-.553.323.55.137.236-.974.527.976.53-.463.78-.916-.552v1.017h-.896v-1.017l-.916.552-.462-.78.975-.53-.974-.527.46-.786.917.553z" style="line-height:normal;font-variant-ligatures:normal;font-variant-position:normal;font-variant-caps:normal;font-variant-numeric:normal;font-variant-alternates:normal;font-variant-east-asian:normal;font-feature-settings:normal;font-variation-settings:normal;text-indent:0;text-align:start;text-decoration-line:none;text-decoration-style:solid;text-decoration-color:#000;text-transform:none;text-orientation:mixed;white-space:normal;shape-padding:0;shape-margin:0;inline-size:0;isolation:auto;mix-blend-mode:normal;solid-color:#000;solid-opacity:1" color="#000" font-weight="400" font-family="sans-serif" overflow="visible" paint-order="markers fill stroke"/><path d="M147.117 30.168a1.06 1.06 0 00-1.042 1.06 1.06 1.06 0 00.561.936l-.504.878h-5.347a3.2 3.2 0 00-3.199 3.199v12.928a3.2 3.2 0 003.2 3.198h12.698a3.2 3.2 0 003.2-3.198V36.24a3.2 3.2 0 00-3.2-3.2h-5.351l-.506-.874a1.06 1.06 0 00.568-.94 1.06 1.06 0 00-1.06-1.06 1.06 1.06 0 00-.018 0zm-3.702 8.224a1.603 1.603 0 011.603 1.603 1.603 1.603 0 01-1.603 1.603 1.603 1.603 0 01-1.604-1.603 1.603 1.603 0 011.604-1.603zm7.666 0a1.603 1.603 0 011.603 1.603 1.603 1.603 0 01-1.603 1.603 1.603 1.603 0 01-1.604-1.603 1.603 1.603 0 011.604-1.603zm-14.806.996v5.55h.962v-5.55zm20.758 0v5.55h.961v-5.55zM147.214 42l1.072 1.855-2.133-.007zm-3.678 3.968h7.366v1.572h-7.366zM183.47 31.268a10 10 0 00-10 10 10 10 0 0010 10 10 10 0 0010-10 10 10 0 00-10-10zm-3.923 6.862l1.625 5.034c2.15-.006 4.214.036 6.358.018a.358.358 0 01.361.354.358.358 0 01-.354.362c-2.246.019-4.39-.029-6.624-.018h-.262l-1.623-5.024-1.342.03a.358.358 0 01-.364-.352.358.358 0 01.35-.365zm1.18 1.383l7.51.027-.773 3.114-5.82-.042zm.064 5.186a.907.907 0 01.012 0 .907.907 0 01.907.907.907.907 0 01-.907.906.907.907 0 01-.906-.906.907.907 0 01.894-.907zm6.372 0a.907.907 0 01.012 0 .907.907 0 01.907.907.907.907 0 01-.907.906.907.907 0 01-.907-.906.907.907 0 01.895-.907z"/></svg>