<svg xmlns="http://www.w3.org/2000/svg" xmlns:xlink="http://www.w3.org/1999/xlink" viewBox="0 0 480 480"><defs><style>.cls-1{isolation:isolate;}.cls-19,.cls-2,.cls-20,.cls-24,.cls-25,.cls-26,.cls-3{fill:none;}.cls-2{stroke:#e6e5c9;}.cls-16,.cls-18,.cls-19,.cls-2,.cls-20,.cls-24,.cls-3{stroke-miterlimit:10;}.cls-2,.cls-24{stroke-width:1.5px;}.cls-3{stroke:#fff;}.cls-16,.cls-18,.cls-3{stroke-width:0.25px;}.cls-4{fill:url(#Degradado_sin_nombre_14);}.cls-5{fill:url(#Degradado_sin_nombre_14-2);}.cls-6{opacity:0.48;fill:url(#Degradado_sin_nombre_129);}.cls-19,.cls-21,.cls-28,.cls-6{mix-blend-mode:multiply;}.cls-7{fill:url(#Degradado_sin_nombre_9);}.cls-8{fill:url(#Degradado_sin_nombre_53);}.cls-9{fill:url(#Degradado_sin_nombre_53-2);}.cls-10{fill:url(#Degradado_sin_nombre_56);}.cls-11{fill:url(#Degradado_sin_nombre_56-2);}.cls-12{fill:url(#Degradado_sin_nombre_44);}.cls-13{fill:url(#Degradado_sin_nombre_14-3);}.cls-14{fill:url(#Degradado_sin_nombre_9-2);}.cls-15{fill:url(#Degradado_sin_nombre_9-3);}.cls-16{fill:url(#Degradado_sin_nombre_14-4);stroke:url(#Degradado_sin_nombre_14-5);}.cls-17{fill:url(#Degradado_sin_nombre_9-4);}.cls-18{fill:url(#Degradado_sin_nombre_14-6);stroke:url(#Degradado_sin_nombre_14-7);}.cls-19,.cls-20,.cls-24,.cls-25{stroke:#f13681;}.cls-19,.cls-20,.cls-25{stroke-width:4px;}.cls-19,.cls-21,.cls-28{opacity:0.68;}.cls-22,.cls-23{fill:#4a65b6;}.cls-22{mix-blend-mode:overlay;}.cls-25,.cls-26{stroke-linejoin:bevel;}.cls-26{stroke:#29c0cd;stroke-width:5px;}.cls-27,.cls-28{fill:#f13681;}</style><linearGradient id="Degradado_sin_nombre_14" x1="72.04" y1="290.33" x2="250.14" y2="259.11" gradientUnits="userSpaceOnUse"><stop offset="0.21" stop-color="#c0dc15"/><stop offset="0.94" stop-color="#29c0cd"/></linearGradient><linearGradient id="Degradado_sin_nombre_14-2" x1="55.4" y1="292.73" x2="323.27" y2="245.77" xlink:href="#Degradado_sin_nombre_14"/><radialGradient id="Degradado_sin_nombre_129" cx="123.62" cy="189.11" r="227.93" gradientUnits="userSpaceOnUse"><stop offset="0" stop-color="#181b34" stop-opacity="0"/><stop offset="0.17" stop-color="#191c36" stop-opacity="0.02"/><stop offset="0.32" stop-color="#1c213e" stop-opacity="0.08"/><stop offset="0.46" stop-color="#21284b" stop-opacity="0.18"/><stop offset="0.6" stop-color="#28325d" stop-opacity="0.31"/><stop offset="0.73" stop-color="#313f74" stop-opacity="0.49"/><stop offset="0.86" stop-color="#3b4f90" stop-opacity="0.71"/><stop offset="0.98" stop-color="#4862b1" stop-opacity="0.96"/><stop offset="1" stop-color="#4a65b6"/></radialGradient><linearGradient id="Degradado_sin_nombre_9" x1="274.39" y1="228.37" x2="471.78" y2="386.39" gradientUnits="userSpaceOnUse"><stop offset="0.19" stop-color="#c0dc15"/><stop offset="0.32" stop-color="#cdb032"/><stop offset="0.48" stop-color="#da844e"/><stop offset="0.62" stop-color="#e46264"/><stop offset="0.76" stop-color="#eb4a74"/><stop offset="0.89" stop-color="#ef3b7e"/><stop offset="1" stop-color="#f13681"/></linearGradient><linearGradient id="Degradado_sin_nombre_53" x1="62.42" y1="504.47" x2="412.25" y2="334.71" gradientUnits="userSpaceOnUse"><stop offset="0" stop-color="#f13681"/><stop offset="0.23" stop-color="#f0397f"/><stop offset="0.41" stop-color="#ed4378"/><stop offset="0.58" stop-color="#e8546d"/><stop offset="0.74" stop-color="#e16c5e"/><stop offset="0.89" stop-color="#d88a4a"/><stop offset="1" stop-color="#d0a539"/></linearGradient><linearGradient id="Degradado_sin_nombre_53-2" x1="5.39" y1="386.94" x2="355.22" y2="217.19" xlink:href="#Degradado_sin_nombre_53"/><linearGradient id="Degradado_sin_nombre_56" x1="62.56" y1="504.47" x2="412.4" y2="334.71" gradientUnits="userSpaceOnUse"><stop offset="0" stop-color="#4a65b6"/><stop offset="0.02" stop-color="#4862b1" stop-opacity="0.97"/><stop offset="0.2" stop-color="#3a4c8b" stop-opacity="0.7"/><stop offset="0.38" stop-color="#2e3a6b" stop-opacity="0.49"/><stop offset="0.55" stop-color="#242c53" stop-opacity="0.32"/><stop offset="0.72" stop-color="#1d2241" stop-opacity="0.2"/><stop offset="0.87" stop-color="#191c37" stop-opacity="0.13"/><stop offset="1" stop-color="#181a33" stop-opacity="0.1"/></linearGradient><linearGradient id="Degradado_sin_nombre_56-2" x1="5.53" y1="386.94" x2="355.37" y2="217.19" xlink:href="#Degradado_sin_nombre_56"/><linearGradient id="Degradado_sin_nombre_44" x1="161.38" y1="297.6" x2="160.44" y2="298.11" gradientUnits="userSpaceOnUse"><stop offset="0" stop-color="#f13681"/><stop offset="0.3" stop-color="#f0387f"/><stop offset="0.48" stop-color="#ee417a"/><stop offset="0.62" stop-color="#ea4f71"/><stop offset="0.75" stop-color="#e46364"/><stop offset="0.87" stop-color="#dc7d53"/><stop offset="0.98" stop-color="#d39d3e"/><stop offset="1" stop-color="#d0a539"/></linearGradient><linearGradient id="Degradado_sin_nombre_14-3" x1="161.74" y1="300.71" x2="162.8" y2="300.53" xlink:href="#Degradado_sin_nombre_14"/><linearGradient id="Degradado_sin_nombre_9-2" x1="471.59" y1="361.01" x2="371.2" y2="301.05" xlink:href="#Degradado_sin_nombre_9"/><linearGradient id="Degradado_sin_nombre_9-3" x1="439.17" y1="123.5" x2="365.28" y2="220.41" xlink:href="#Degradado_sin_nombre_9"/><linearGradient id="Degradado_sin_nombre_14-4" x1="60.85" y1="287.19" x2="61.34" y2="326.55" xlink:href="#Degradado_sin_nombre_14"/><linearGradient id="Degradado_sin_nombre_14-5" x1="60.85" y1="287.06" x2="61.34" y2="326.68" xlink:href="#Degradado_sin_nombre_14"/><linearGradient id="Degradado_sin_nombre_9-4" x1="199.86" y1="43.85" x2="299.55" y2="105.2" xlink:href="#Degradado_sin_nombre_9"/><linearGradient id="Degradado_sin_nombre_14-6" x1="208.19" y1="-238.71" x2="242.73" y2="-211.05" gradientTransform="translate(-148.81 304.61) rotate(11.03)" xlink:href="#Degradado_sin_nombre_14"/><linearGradient id="Degradado_sin_nombre_14-7" x1="95.8" y1="125.91" x2="136.26" y2="125.91" xlink:href="#Degradado_sin_nombre_14"/></defs><title>Sin título-3</title><g class="cls-1"><g id="Capa_1" data-name="Capa 1"><path class="cls-2" d="M314,64A10.27,10.27,0,0,1,308,77.25a10.27,10.27,0,0,0-5.95,13.25,10.27,10.27,0,0,1-5.95,13.25q-.4.15-.77.33"/><path class="cls-2" d="M310.7,110.34a10.21,10.21,0,0,0-.48-5.61,10.26,10.26,0,0,1,5.94-13.23,10.26,10.26,0,0,0,5.94-13.23"/><path class="cls-2" d="M318.25,118.06a10.22,10.22,0,0,1,3.47-2.19,10.26,10.26,0,0,0,5.94-13.23A10.26,10.26,0,0,1,333.6,89.4a10.26,10.26,0,0,0,5.94-13.23"/><path class="cls-2" d="M358.67,403.74a10.27,10.27,0,0,1,12.9,6.67,10.27,10.27,0,0,0,12.9,6.67,10.27,10.27,0,0,1,12.9,6.67q.13.4.29.79"/><path class="cls-2" d="M404.77,409.58a10.21,10.21,0,0,0-5.63.17,10.26,10.26,0,0,1-12.88-6.67,10.26,10.26,0,0,0-12.88-6.67"/><path class="cls-2" d="M412.89,402.47a10.22,10.22,0,0,1-2-3.58A10.26,10.26,0,0,0,398,392.23a10.26,10.26,0,0,1-12.88-6.67,10.26,10.26,0,0,0-12.88-6.67"/><path class="cls-2" d="M39.32,154.49a10.27,10.27,0,0,1,10.29,10.25A10.27,10.27,0,0,0,59.9,175a10.27,10.27,0,0,1,10.29,10.25q0,.42,0,.84"/><path class="cls-2" d="M81.5,174a10.21,10.21,0,0,0-5.42-1.54,10.26,10.26,0,0,1-10.27-10.24,10.26,10.26,0,0,0-10.27-10.24"/><path class="cls-2" d="M91.39,169.63a10.22,10.22,0,0,1-.82-4A10.26,10.26,0,0,0,80.3,155.37,10.26,10.26,0,0,1,70,145.13,10.26,10.26,0,0,0,59.75,134.9"/><path class="cls-3" d="M266.8,391.51a25.23,25.23,0,0,1-2.93-6.16A65.59,65.59,0,0,0,266.8,391.51Z"/><path class="cls-3" d="M191.4,402.78c-.81-.84-1.6-1.72-2.35-2.61A19.49,19.49,0,0,1,191.4,402.78Z"/><path class="cls-3" d="M266.8,391.51a25.23,25.23,0,0,1-2.93-6.16A65.59,65.59,0,0,0,266.8,391.51Z"/><path class="cls-3" d="M266.8,391.51a25.23,25.23,0,0,1-2.93-6.16A65.59,65.59,0,0,0,266.8,391.51Z"/><path class="cls-4" d="M55.56,210.81l1.67-8.21A21,21,0,0,0,55.56,210.81Zm0,0A21.17,21.17,0,0,0,65,228.45ZM60.18,188l5.6-17A28.4,28.4,0,0,0,60.18,188Zm7.16,71a41.77,41.77,0,0,0,3.33,5.64Zm6,9a42.21,42.21,0,0,0,19.84,12.84h0l1.45.4Zm28.43,143.46L87.92,399.39a33.66,33.66,0,0,0,18.25,14.41Zm.49-249,8,4.88A41.37,41.37,0,0,0,102.22,162.49Zm6.3,252.5A12.27,12.27,0,0,0,119,421c.4,0,.81,0,1.23-.05Zm18.4,1.76-6.74,4.2c4.75-.32,9.79-2.59,15.36-5.53,4.16-2.19,8.6-4.76,13.43-7.19Zm16.67-123a29.34,29.34,0,0,0,5.68,3.69Zm31,106.16h0Zm14.46.3-8.77-.18a21.42,21.42,0,0,1,11.31,5.46ZM212,98.28a24.18,24.18,0,0,0-2.57-.67h0a28.42,28.42,0,0,0-6-.63,28.84,28.84,0,0,0-8.08,1.15l17.65.49A10.24,10.24,0,0,0,212,98.28Zm22,326.54-31.55-9.48-10.78-9.89a20.63,20.63,0,0,1,2.41,2.69,61.05,61.05,0,0,0,56.46,17.26h0a61.05,61.05,0,0,0,21.11.72Z"/><path class="cls-5" d="M330.13,297.33a20.15,20.15,0,0,0-2.05-4.62c-.21-.32-.4-.63-.62-.93s-.34-.48-.5-.72a21.37,21.37,0,0,0-10.61-7.51l.14-.1a2,2,0,0,0-.3-.1,21.28,21.28,0,0,0,9.91-15,20.85,20.85,0,0,0,.25-3.14,21.13,21.13,0,0,0-2.52-10,16.54,16.54,0,0,0-1.06-1.72c-.09-.12-.17-.25-.26-.37a4,4,0,0,0-.27-.37l-.27-.39a20.18,20.18,0,0,0-3.06-3.24l-.37-.32a120.87,120.87,0,0,0-10.65-8c-16.65-11.4-39.48-24.28-44-37.88h0a26.88,26.88,0,0,1-1.83-9.76c0-11.73,7.85-19.36,18.39-23.06L283,169c1.1-.37-.76-2.1.26-2.64,0,0,0,0,0,0a21.33,21.33,0,0,0,11.15-18.71,21,21,0,0,0-1-6.53h0c-.1-.31-.21-.62-.32-.93s-.15-.4-.25-.61c-.26-.63-.54-1.23-.85-1.82-.18-.34-.36-.67-.56-1s-.32-.53-.5-.79a1.27,1.27,0,0,0-.14-.22l-.08-.12c-.19-.28-.4-.57-.59-.84q-.6-.77-1.28-1.51h0l-.27-.28c-.23-.25-.48-.49-.74-.72a1.2,1.2,0,0,0-.18-.18c-.27-.25-.53-.49-.8-.71s-.56-.46-.85-.68a.17.17,0,0,0-.08-.06l-.93-.67s0,0,0,0c-.34-.21-.67-.43-1-.62a1.14,1.14,0,0,1-.22-.15l-.26-.14h0l-.53-.26c-.31-.17-.61-.32-.93-.46l-.1-.05c-.3-.14-.61-.26-.9-.37l-.4-.15h-.06a.14.14,0,0,1-.09,0,3.23,3.23,0,0,0-.37-.14h0a3.86,3.86,0,0,0-.41-.13c-.36-.12-.76-.23-1.15-.34l-.67-.17-.67-.13c-.34-.08-.68-.13-1-.18h0l-2.49-.54-1.72-.34c-2.25-.43-4.36-.76-6.44-1.1s-4.09-.63-6.09-1c-.88-.17-1.76-.34-2.65-.54s-1.77-.41-2.67-.65-1.78-.49-2.7-.8c-.46-.14-.92-.3-1.38-.48l-.7-.25-.74-.27a23.94,23.94,0,0,1-2.79-1.28c-.25-.13-.5-.27-.75-.39-.75-.4-1.5-.84-2.26-1.32-.58-.34-1.15-.71-1.73-1.07-4.08-2.59-8.47-5.9-12.87-9h0c-3.18-2.25-6.39-4.43-9.46-6.17A41.52,41.52,0,0,0,213,98.62l-17.65-.49L189,98,166.7,121.07l-11.45,18,17.89,43-13.09,1.47-18.69,3.63-17.56-11.51-13.61-8.31-8-4.88c-.14-.08-.3-.14-.44-.21a28.93,28.93,0,0,0-36,8.73l-5.6,17a28.25,28.25,0,0,0,1.2,8.21,21.31,21.31,0,0,0-4.16,6.39l-1.67,8.21L65,228.45a42,42,0,0,0,2.32,30.49l0,.08,3.33,5.64,0,0a39,39,0,0,0,2.61,3.37l21.31,13.26c.93.25,1.87.45,2.84.63a73,73,0,0,0,9.32.7h.1c7.6.15,15.94-.09,22.49,1.81,6.78,2,10,5.8,14.19,9.23l0,0,5.68,3.69L106.48,322,95.39,341.1,77,348.93,68.43,367,73,369.59c-.05.61-.08,1.23-.08,1.85a21,21,0,0,0,3.69,11.93,21.27,21.27,0,0,0,7.38,6.7,33.26,33.26,0,0,0,3.91,9.32l13.81,12.13,4.44,2.27c.66.22,1.33.41,2,.58q.15.31.35.62l11.66,6,6.74-4.2,22-8.52h0c7.51-3.8,15.94-7.23,25.61-8.35h.12a22.73,22.73,0,0,1,2.32-.13h.19a21.58,21.58,0,0,1,3.06.25l8.77.18,2.54,5.28,10.78,9.89,31.55,9.48,37.67,1.3h0a60.68,60.68,0,0,0,20.47-6.71,66.71,66.71,0,0,1-5.31-4.17l2.05-1.47-7.93-9.27-13.43-25a26.46,26.46,0,0,1,3.59-11.21,31,31,0,0,1,13.64-40.75,31.35,31.35,0,0,1,23.22-2.35,4.66,4.66,0,0,0-.43-.45c.74.06,1.47.1,2.23.1a21.06,21.06,0,0,0,8.42-1.73h0A21.3,21.3,0,0,0,331.1,303.6,20.64,20.64,0,0,0,330.13,297.33Zm-167.46,3.32h-1l1-.21Z"/><path class="cls-6" d="M330.13,297.33a20.15,20.15,0,0,0-2.05-4.62c-.21-.32-.4-.63-.62-.93s-.34-.48-.5-.72a21.37,21.37,0,0,0-10.61-7.51l.14-.1a2,2,0,0,0-.3-.1,21.28,21.28,0,0,0,9.91-15,20.85,20.85,0,0,0,.25-3.14,21.13,21.13,0,0,0-2.52-10,16.54,16.54,0,0,0-1.06-1.72c-.09-.12-.17-.25-.26-.37a4,4,0,0,0-.27-.37l-.27-.39a20.18,20.18,0,0,0-3.06-3.24l-.37-.32a120.87,120.87,0,0,0-10.65-8c-16.65-11.4-39.48-24.28-44-37.88h0a26.88,26.88,0,0,1-1.83-9.76c0-11.73,6.43-17.58,17-21.28l1.84-1.48c1.1-.37,1.43-3.52,2.45-4.06,0,0,0,0,0,0a21.33,21.33,0,0,0,11.15-18.71,21,21,0,0,0-1-6.53h0c-.1-.31-.21-.62-.32-.93s-.15-.4-.25-.61c-.26-.63-.54-1.23-.85-1.82-.18-.34-.36-.67-.56-1s-.32-.53-.5-.79a1.27,1.27,0,0,0-.14-.22l-.08-.12c-.19-.28-.4-.57-.59-.84q-.6-.77-1.28-1.51h0l-.27-.28c-.23-.25-.48-.49-.74-.72a1.2,1.2,0,0,0-.18-.18c-.27-.25-.53-.49-.8-.71s-.56-.46-.85-.68a.17.17,0,0,0-.08-.06l-.93-.67s0,0,0,0c-.34-.21-.67-.43-1-.62a1.14,1.14,0,0,1-.22-.15l-.26-.14h0l-.53-.26c-.31-.17-.61-.32-.93-.46l-.1-.05c-.3-.14-.61-.26-.9-.37l-.4-.15h-.06a.14.14,0,0,1-.09,0,3.23,3.23,0,0,0-.37-.14h0a3.86,3.86,0,0,0-.41-.13c-.36-.12-.76-.23-1.15-.34l-.67-.17-.67-.13c-.34-.08-.68-.13-1-.18h0l-2.49-.54-1.72-.34c-2.25-.43-4.36-.76-6.44-1.1s-4.09-.63-6.09-1c-.88-.17-1.76-.34-2.65-.54s-1.77-.41-2.67-.65-1.78-.49-2.7-.8c-.46-.14-.92-.3-1.38-.48l-.7-.25-.74-.27a23.94,23.94,0,0,1-2.79-1.28c-.25-.13-.5-.27-.75-.39-.75-.4-1.5-.84-2.26-1.32-.58-.34-1.15-.71-1.73-1.07-4.08-2.59-8.47-5.9-12.87-9h0c-3.18-2.25-6.39-4.43-9.46-6.17A41.52,41.52,0,0,0,213,98.62l-17.65-.49L189,98,166.7,121.07l-11.45,18,17.89,43-13.09,1.47-18.69,3.63-17.56-11.51-13.61-8.31-8-4.88c-.14-.08-.3-.14-.44-.21a28.93,28.93,0,0,0-36,8.73l-5.6,17a28.25,28.25,0,0,0,1.2,8.21,21.31,21.31,0,0,0-4.16,6.39l-1.67,8.21L65,228.45a42,42,0,0,0,2.32,30.49l0,.08,3.33,5.64,0,0a39,39,0,0,0,2.61,3.37l21.31,13.26c.93.25,1.87.45,2.84.63a73,73,0,0,0,9.32.7h.1c7.6.15,15.94-.09,22.49,1.81,6.78,2,10,5.8,14.19,9.23l0,0,5.68,3.69L106.48,322,95.39,341.1,77,348.93,68.43,367,73,369.59c-.05.61-.08,1.23-.08,1.85a21,21,0,0,0,3.69,11.93,21.27,21.27,0,0,0,7.38,6.7,33.26,33.26,0,0,0,3.91,9.32l13.81,12.13,4.44,2.27c.66.22,1.33.41,2,.58q.15.31.35.62l11.66,6,6.74-4.2,22-8.52h0c7.51-3.8,15.94-7.23,25.61-8.35h.12a22.73,22.73,0,0,1,2.32-.13h.19a21.58,21.58,0,0,1,3.06.25l7.22,3.27,4.08,2.19,10.78,9.89,31.55,9.48,37.67,1.3h0a60.68,60.68,0,0,0,20.47-6.71,66.71,66.71,0,0,1-5.31-4.17l2.05-1.47-7.93-9.27-13.43-25a26.46,26.46,0,0,1,3.59-11.21,31,31,0,0,1,13.64-40.75,31.35,31.35,0,0,1,23.22-2.35,4.66,4.66,0,0,0-.43-.45c.74.06,1.47.1,2.23.1a21.06,21.06,0,0,0,8.42-1.73h0A21.3,21.3,0,0,0,331.1,303.6,20.64,20.64,0,0,0,330.13,297.33Zm-167.46,3.32h-1l1-.21Z"/><path class="cls-7" d="M427.69,257.94a41.57,41.57,0,0,1,.81,8.17c0,15.57-12,31.56-21.36,36.61-9.81,5.32-19.05,12.11-19.05,23.73a24.2,24.2,0,0,0,3.56,12.68,3.19,3.19,0,0,0-.25-.34l.23.34c.25.36.48.72.7,1.1a26.25,26.25,0,0,1-.48,27.54,63.57,63.57,0,0,1-3.07,14.66,2.52,2.52,0,0,1-.1.28A65.55,65.55,0,0,1,269.09,393a.1.1,0,0,0,0-.05,65.59,65.59,0,0,1-2.93-6.16s0,0,0-.05h0a26.19,26.19,0,0,1,2.32-21.27,30.25,30.25,0,0,1,35.78-42c-.13-.15-.27-.31-.41-.45.71.06,1.42.1,2.16.1a20.51,20.51,0,0,0,8.17-1.68h0a20.75,20.75,0,0,0,12.53-19.05,20.42,20.42,0,0,0-.93-6.12h.06a19.78,19.78,0,0,0-2.05-4.51c-.19-.31-.39-.61-.59-.9s-.32-.46-.5-.7a20.62,20.62,0,0,0-10.15-7.42,20.09,20.09,0,0,0,2.66-2,20.71,20.71,0,0,0,6.8-12.51,19.84,19.84,0,0,0,.23-3.06,20.49,20.49,0,0,0-2.57-10,15.52,15.52,0,0,0-1-1.67c-.09-.13-.17-.25-.27-.37s-.17-.25-.26-.36l-.27-.37a19.12,19.12,0,0,0-3-3.16l-.36-.31a116.63,116.63,0,0,0-10.33-7.76c-16.16-11.1-38.31-23.66-42.72-36.91h0A26.26,26.26,0,0,1,277.21,170h0a22,22,0,0,0,3.09-1.37s0,0,0,0A20.77,20.77,0,0,0,290.16,144c-.1-.31-.21-.61-.32-.9a3.39,3.39,0,0,0-.25-.59c-.25-.62-.52-1.2-.81-1.78a10.19,10.19,0,0,0-.56-1,6.68,6.68,0,0,0-.46-.76l-.15-.23a.55.55,0,0,0-.06-.09c-.18-.28-.39-.56-.58-.83q-.58-.76-1.24-1.47h0l-.26-.27c-.23-.25-.46-.48-.71-.71a1.11,1.11,0,0,0-.18-.17c-.26-.25-.52-.48-.79-.7s-.53-.45-.81-.67l-.08-.05c-.3-.23-.62-.45-.94-.66,0,0,0,0,0,0a10.58,10.58,0,0,0-.94-.61,2.56,2.56,0,0,1-.26-.14l-.25-.14h0A4.33,4.33,0,0,0,280,132c-.31-.15-.62-.31-.94-.45l-.1-.05-.84-.36-.43-.15h-.05l-.05,0-.4-.14h0l-.36-.13c-.36-.12-.75-.22-1.12-.32-.22-.06-.46-.12-.68-.17l-.66-.13-1-.17c-.83-.19-1.64-.36-2.43-.53h0l-1.67-.34c-2.17-.41-4.23-.74-6.25-1.06s-4-.62-5.91-1c-.85-.17-1.7-.34-2.57-.53s-1.72-.4-2.59-.63-1.73-.49-2.61-.77c-.44-.14-.89-.3-1.34-.46l-.68-.25-.67-.26a26.64,26.64,0,0,1-2.75-1.25c-.23-.13-.48-.26-.72-.37-.72-.4-1.45-.83-2.19-1.28-.56-.34-1.11-.7-1.68-1-4-2.57-8.18-5.76-12.44-8.78.85.37,17.54,7.44,28.25,4.48,9.28-2.56,17.1-11.63,18.49-13.31l.22-.27a26.24,26.24,0,0,1,20.9-10.34,25.93,25.93,0,0,1,11,2.4,26,26,0,0,1,6.3-.76,26.29,26.29,0,0,1,26.28,26.28c0,.68,0,1.36-.09,2a26.27,26.27,0,0,1,33.8,36.08h0l-.06.12c-.25.37-1,1.6-2.09,3.4-3.21,5.36-9.11,15.76-11.42,23.56a73.47,73.47,0,0,0-3.11,21.89v0A8.32,8.32,0,0,0,365.53,215l.13,0,.05,0a5.22,5.22,0,0,0,1.23-.46l.09,0c1.08-.44,4-1.95,4.07-2a40.45,40.45,0,0,1,16.55-3.5,40.85,40.85,0,0,1,40.86,40.84A41.57,41.57,0,0,1,427.69,257.94Z"/><path class="cls-8" d="M276.87,405.18a65.73,65.73,0,0,1-8.62-12.24.1.1,0,0,0,0-.05,25.32,25.32,0,0,1-2-3.73l-.25.12c.49,1,1,2,1.54,3a.21.21,0,0,1,.05.09,65.89,65.89,0,0,0,8.64,12.25A64.44,64.44,0,0,0,285,412.9,64.79,64.79,0,0,1,276.87,405.18Z"/><path class="cls-9" d="M382.85,366.42a57.09,57.09,0,0,1-2.71,12.93s0,0,0,.05l-.08.21a57.89,57.89,0,0,1-88.23,28.7l-1.27-.92-.72-.57a57.5,57.5,0,0,1-7.15-6.79,58.52,58.52,0,0,1-7.58-10.73q-.17-.33-.39-.66a18,18,0,0,1-2-4.27c0-.09-.06-.19-.1-.28a18.49,18.49,0,0,1,1.69-14.78,7.74,7.74,0,0,0,.32-7.24,22.51,22.51,0,0,1,20.34-32.13,22,22,0,0,1,6.26.89,8,8,0,0,0,2.18.31,7.71,7.71,0,0,0,2.31-.35A28.27,28.27,0,0,0,316,328.64l.41-.15a28.51,28.51,0,0,0,17.21-26.17,28.45,28.45,0,0,0-4-14.61l-.06-.12-.76-1.16c-.19-.28-.4-.58-.62-.86a.78.78,0,0,0-.09-.13,28.35,28.35,0,0,0-4.05-4.36,28.15,28.15,0,0,0,4.7-12,26.69,26.69,0,0,0,.32-4.21,28.54,28.54,0,0,0-3.36-13.41,24.82,24.82,0,0,0-1.52-2.5.13.13,0,0,1-.05-.06l-.13-.19c-.13-.19-.27-.4-.43-.59a1.84,1.84,0,0,0-.14-.19l0-.05a.7.7,0,0,0-.12-.15,26.36,26.36,0,0,0-4.09-4.39c-.15-.13-.3-.26-.46-.39a122.33,122.33,0,0,0-10.93-8.22c-2.76-1.9-5.6-3.78-8.62-5.77-12.46-8.24-27.91-18.45-31-26.88a6.09,6.09,0,0,0-.23-.68,18.52,18.52,0,0,1,10.91-24.09l.18-.06a28.63,28.63,0,0,0,4.09-1.79l.18-.09a28.52,28.52,0,0,0,13.48-33.76,5.78,5.78,0,0,0-.32-.83l-.08-.25a.75.75,0,0,1-.06-.18c-.09-.22-.21-.54-.37-.92-.36-.86-.74-1.63-1.06-2.26s-.52-1-.76-1.37-.36-.61-.58-.93a6.36,6.36,0,0,0-.46-.68c-.15-.23-.32-.46-.49-.7l-.12-.17-.15-.22c-.44-.57-.92-1.14-1.41-1.68l-.1-.13c-.15-.18-.34-.37-.52-.56-.3-.34-.59-.61-.83-.84l-.53-.5-.9-.8q-.48-.41-1-.81c-.14-.12-.28-.23-.44-.34l-.79-.57-.12-.09-.49-.32c-.31-.19-.62-.39-.94-.57a2.25,2.25,0,0,0-.37-.23c-.25-.15-.46-.27-.68-.39l-.15-.08-.43-.21c-.31-.17-.65-.32-1-.48l-.27-.13c-.4-.19-.83-.36-1.25-.53H280c-.17-.08-.34-.14-.52-.21l-.21-.08-.37-.13c-.31-.12-.58-.19-.74-.25l-1.17-.34-.12,0c-.32-.1-.65-.18-1-.26l-1-.21-1-.18-1.76-.37-.45-.1-.46-.09-1.39-.28c-2-.39-4-.7-5.83-1l-.61-.09c-1.77-.28-3.77-.59-5.68-1-.75-.15-1.54-.31-2.34-.49s-1.61-.37-2.3-.56-1.38-.37-2.12-.62l-.15-.05-1-.34a1.89,1.89,0,0,0-.25-.09l-.1,0a3.65,3.65,0,0,0-.4-.14l-.46-.18-.17-.05a16.39,16.39,0,0,1-1.74-.81c-.28-.15-.58-.31-.88-.45-.48-.27-1-.58-1.64-1l-.08,0-.79-.5-.77-.48c-2.52-1.61-5.2-3.56-8.06-5.63-1.17-.85-2.36-1.7-3.55-2.54-.15-.13-.31-.26-.48-.37-4-2.84-7-4.82-9.84-6.43a49.5,49.5,0,0,0-6.6-3.16l-.13-.05c-.37-.13-.83-.3-1.36-.45-1-.31-2.08-.59-3.12-.81A2,2,0,0,0,209,94a35.66,35.66,0,0,0-40.29,21.78,28.44,28.44,0,0,0-12.91,33.62c.06.19.14.39.22.57l1.29,3.06,11.28,26.9c-.88-.06-1.76-.1-2.65-.1a33.78,33.78,0,0,0-12.87,2.53,3.86,3.86,0,0,0-.53.23c-.19.1-.4.21-.59.34s-1,.53-2.09,1a15.25,15.25,0,0,1-5.59,1.37,4.62,4.62,0,0,1-1-.09c-4.27-.75-10-6.25-15.61-11.55-6.12-5.85-13.06-12.47-21.15-16a35.74,35.74,0,0,0-50.86,38.19,28.46,28.46,0,0,0,3.21,36.13,49,49,0,0,0-.85,9.14,48.24,48.24,0,0,0,9.8,29.28,49.06,49.06,0,0,0,24.58,17.21l.31.09a49.07,49.07,0,0,0,4.89,1.19l.23,0a75.38,75.38,0,0,0,10.09.77h.21l3.54.05c5.83.08,11.86.15,16.2,1.41,3.56,1,5.59,2.81,8.39,5.28,1.08,1,2.23,2,3.52,3-3.73,1.83-10.8,5.33-15.14,7.55-1.64.84-3.72,1.73-5.93,2.66-6,2.52-12.1,5.11-15.9,9.37a28.25,28.25,0,0,0-7.4,12.74,5.2,5.2,0,0,0-.18.59A13,13,0,0,1,87,341.34a6.56,6.56,0,0,0-1,.44,28.46,28.46,0,0,0-6.48,49.74,40.31,40.31,0,0,0,25.12,25.31,19.6,19.6,0,0,0,15.31,7.6H120q1,0,1.82-.08c5.82-.43,11.36-2.81,17.89-6.25,1.63-.86,3.23-1.74,4.92-2.69,8.65-4.75,18.43-10.15,29.85-11.57l.41,0a11.69,11.69,0,0,1,1.47-.09h.14a13,13,0,0,1,8.7,3.49,11.89,11.89,0,0,1,1.43,1.59,8,8,0,0,0,.61.71A66.52,66.52,0,0,0,235.34,430a67.34,67.34,0,0,0,12.28-1.12,67,67,0,0,0,44.06-6.93,7.65,7.65,0,0,0,2.94-2.83,65.67,65.67,0,0,0,92.73-36.91l.15-.44a63.61,63.61,0,0,0,3.06-14.66Zm-123,55.83A59.21,59.21,0,0,1,247.61,421h0a58.94,58.94,0,0,1-54.79-16.82,19.49,19.49,0,0,0-2.35-2.61A20.71,20.71,0,0,0,176.52,396h-.18a20.59,20.59,0,0,0-2.38.14h0c-15.41,1.79-27.56,9.67-37.89,15.14-5.41,2.85-10.3,5.06-14.91,5.38-.4,0-.8.05-1.19.05a11.92,11.92,0,0,1-10.46-6.45,32.66,32.66,0,0,1-23.46-23.69,20.72,20.72,0,0,1,3.45-37.82l0-.06A20.78,20.78,0,0,0,102.8,334.2h0a20.6,20.6,0,0,1,5.68-9.94c3.76-4.39,13.61-7.31,19.74-10.46s17.49-8.71,17.49-8.71a62.57,62.57,0,0,1,15.72-5.65,25.76,25.76,0,0,1-11.76-3,3.25,3.25,0,0,1-.3-.15c-7.73-3.77-10.16-10-19.31-12.61-6.35-1.85-14.45-1.61-21.82-1.77h-.1a69.15,69.15,0,0,1-9-.67c-1.42-.27-2.8-.61-4.16-1h0A40.9,40.9,0,0,1,67.61,229.1a20.71,20.71,0,0,1-3.5-31.41,28,28,0,0,1,39.2-33.06c14.66,6.38,26.26,26,38.65,28.19a13,13,0,0,0,2.35.21,23,23,0,0,0,8.6-2,27.29,27.29,0,0,0,3.07-1.51l.06,0a26.29,26.29,0,0,1,26.73,4.12L164.49,150l-1.29-3.06a20.49,20.49,0,0,1-1-6.45A20.7,20.7,0,0,1,175,121.3a28,28,0,0,1,32.67-19.69h0c.85.18,1.68.4,2.49.66.32.09.65.21,1,.32a40,40,0,0,1,5.5,2.65c3,1.7,6.11,3.82,9.19,6h0c4.27,3,8.53,6.25,12.48,8.78.57.35,1.12.71,1.68,1,.75.46,1.47.89,2.19,1.28.25.12.49.25.72.37a25,25,0,0,0,2.71,1.25l.71.26.68.25c.45.17.89.32,1.34.46.88.3,1.74.54,2.61.77s1.74.44,2.59.63,1.72.36,2.57.53c1.95.37,3.9.68,5.91,1s4.08.65,6.25,1.06l1.67.34c.79.17,1.6.34,2.43.53h0l1,.17.66.13.65.17c.37.1.76.21,1.12.32l.4.13h0l.36.14.09,0h.05l.39.15c.3.12.59.23.88.36l.1.05c.31.14.61.3.9.45l.52.26h0l.25.14a2.1,2.1,0,0,0,.22.14c.34.19.66.4,1,.61,0,0,0,0,0,0,.31.22.61.43.9.66l.08.05c.28.22.56.44.83.67s.52.45.77.7a1.11,1.11,0,0,1,.18.17c.25.23.49.46.71.71l.26.27h0q.66.72,1.24,1.47c.19.27.4.54.58.83l.08.1a1.28,1.28,0,0,1,.14.22c.17.25.34.5.48.76s.37.63.54,1c.3.58.58,1.16.83,1.78.09.19.17.39.25.59l.31.9h0a20.77,20.77,0,0,1-9.82,24.58s0,0,0,0a22,22,0,0,1-3.09,1.37h0a26.26,26.26,0,0,0-15.74,34.27h0c4.4,13.24,26.55,25.81,42.72,36.91a116.63,116.63,0,0,1,10.33,7.76l.36.31a19.12,19.12,0,0,1,3,3.16l.27.37c.09.12.18.25.26.36s.17.26.26.37a15.52,15.52,0,0,1,1,1.67,20.72,20.72,0,0,1,2.44,9.77A19.84,19.84,0,0,1,321,268a20.73,20.73,0,0,1-9.62,14.6l.28.1-.14.1a20.74,20.74,0,0,1,10.3,7.32c.17.23.34.46.49.7s.4.59.59.9a20.21,20.21,0,0,1,2,4.51,20.42,20.42,0,0,1,.93,6.12,20.75,20.75,0,0,1-12.53,19.05h0a20.51,20.51,0,0,1-8.17,1.68c-.74,0-1.45,0-2.16-.1.14.14.28.3.41.45a30.26,30.26,0,0,0-35.78,42,26.19,26.19,0,0,0-2.32,21.27h0s0,0,0,.05a22.87,22.87,0,0,0,.92,2.43,25.32,25.32,0,0,0,2,3.73.1.1,0,0,1,0,.05,65.73,65.73,0,0,0,8.62,12.24A64.79,64.79,0,0,0,285,412.9l.85.66q1,.81,2.13,1.59A58.73,58.73,0,0,1,259.89,422.25Z"/><path class="cls-10" d="M277,405.18a65.73,65.73,0,0,1-8.62-12.24.1.1,0,0,0,0-.05,25.32,25.32,0,0,1-2-3.73l-.25.12c.49,1,1,2,1.54,3a.21.21,0,0,1,.05.09,65.89,65.89,0,0,0,8.64,12.25,64.44,64.44,0,0,0,8.82,8.25A64.79,64.79,0,0,1,277,405.18Z"/><path class="cls-11" d="M383,366.42a57.09,57.09,0,0,1-2.71,12.93s0,0,0,.05l-.08.21a57.89,57.89,0,0,1-88.23,28.7l-1.27-.92-.72-.57a57.5,57.5,0,0,1-7.15-6.79,58.52,58.52,0,0,1-7.58-10.73q-.17-.33-.39-.66a18,18,0,0,1-2-4.27c0-.09-.06-.19-.1-.28a18.49,18.49,0,0,1,1.69-14.78,7.74,7.74,0,0,0,.32-7.24,22.51,22.51,0,0,1,20.34-32.13,22,22,0,0,1,6.26.89,8,8,0,0,0,2.18.31,7.71,7.71,0,0,0,2.31-.35,28.27,28.27,0,0,0,10.29-2.16l.41-.15a28.51,28.51,0,0,0,17.21-26.17,28.45,28.45,0,0,0-4-14.61l-.06-.12-.76-1.16c-.19-.28-.4-.58-.62-.86a.78.78,0,0,0-.09-.13,28.35,28.35,0,0,0-4.05-4.36,28.15,28.15,0,0,0,4.7-12,26.69,26.69,0,0,0,.32-4.21,28.54,28.54,0,0,0-3.36-13.41,24.82,24.82,0,0,0-1.52-2.5.13.13,0,0,1-.05-.06l-.13-.19c-.13-.19-.27-.4-.43-.59a1.84,1.84,0,0,0-.14-.19l0-.05a.7.7,0,0,0-.12-.15,26.36,26.36,0,0,0-4.09-4.39c-.15-.13-.3-.26-.46-.39a122.33,122.33,0,0,0-10.93-8.22c-2.76-1.9-5.6-3.78-8.62-5.77-12.46-8.24-27.91-18.45-31-26.88a6.09,6.09,0,0,0-.23-.68,18.52,18.52,0,0,1,10.91-24.09l.18-.06a28.63,28.63,0,0,0,4.09-1.79l.18-.09a28.52,28.52,0,0,0,13.48-33.76,5.78,5.78,0,0,0-.32-.83l-.08-.25a.75.75,0,0,1-.06-.18c-.09-.22-.21-.54-.37-.92-.36-.86-.74-1.63-1.06-2.26s-.52-1-.76-1.37-.36-.61-.58-.93a6.36,6.36,0,0,0-.46-.68c-.15-.23-.32-.46-.49-.7l-.12-.17-.15-.22c-.44-.57-.92-1.14-1.41-1.68l-.1-.13c-.15-.18-.34-.37-.52-.56-.3-.34-.59-.61-.83-.84l-.53-.5-.9-.8q-.48-.41-1-.81c-.14-.12-.28-.23-.44-.34l-.79-.57-.12-.09-.49-.32c-.31-.19-.62-.39-.94-.57a2.25,2.25,0,0,0-.37-.23c-.25-.15-.46-.27-.68-.39l-.15-.08-.43-.21c-.31-.17-.65-.32-1-.48l-.27-.13c-.4-.19-.83-.36-1.25-.53h-.05c-.17-.08-.34-.14-.52-.21l-.21-.08-.37-.13c-.31-.12-.58-.19-.74-.25l-1.17-.34-.12,0c-.32-.1-.65-.18-1-.26l-1-.21-1-.18-1.76-.37-.45-.1-.46-.09-1.39-.28c-2-.39-4-.7-5.83-1l-.61-.09c-1.77-.28-3.77-.59-5.68-1-.75-.15-1.54-.31-2.34-.49s-1.61-.37-2.3-.56-1.38-.37-2.12-.62l-.15-.05-1-.34a1.89,1.89,0,0,0-.25-.09l-.1,0a3.65,3.65,0,0,0-.4-.14l-.46-.18-.17-.05a16.39,16.39,0,0,1-1.74-.81c-.28-.15-.58-.31-.88-.45-.48-.27-1-.58-1.64-1l-.08,0-.79-.5-.77-.48c-2.52-1.61-5.2-3.56-8.06-5.63-1.17-.85-2.36-1.7-3.55-2.54-.15-.13-.31-.26-.48-.37-4-2.84-7-4.82-9.84-6.43a49.5,49.5,0,0,0-6.6-3.16l-.13-.05c-.37-.13-.83-.3-1.36-.45-1-.31-2.08-.59-3.12-.81a2,2,0,0,0-.3-.05,35.66,35.66,0,0,0-40.29,21.78A28.44,28.44,0,0,0,156,149.38c.06.19.14.39.22.57L157.5,153l11.28,26.9c-.88-.06-1.76-.1-2.65-.1a33.78,33.78,0,0,0-12.87,2.53,3.86,3.86,0,0,0-.53.23c-.19.1-.4.21-.59.34s-1,.53-2.09,1a15.25,15.25,0,0,1-5.59,1.37,4.62,4.62,0,0,1-1-.09c-4.27-.75-10-6.25-15.61-11.55-6.12-5.85-13.06-12.47-21.15-16a35.74,35.74,0,0,0-50.86,38.19,28.46,28.46,0,0,0,3.21,36.13,49,49,0,0,0-.85,9.14A48.24,48.24,0,0,0,68,270.34a49.06,49.06,0,0,0,24.58,17.21l.31.09a49.07,49.07,0,0,0,4.89,1.19l.23,0a75.38,75.38,0,0,0,10.09.77h.21l3.54.05c5.83.08,11.86.15,16.2,1.41,3.56,1,5.59,2.81,8.39,5.28,1.08,1,2.23,2,3.52,3-3.73,1.83-10.8,5.33-15.14,7.55-1.64.84-3.72,1.73-5.93,2.66-6,2.52-12.1,5.11-15.9,9.37a28.25,28.25,0,0,0-7.4,12.74,5.2,5.2,0,0,0-.18.59,13,13,0,0,1-8.34,9.06,6.56,6.56,0,0,0-1,.44,28.46,28.46,0,0,0-6.48,49.74,40.31,40.31,0,0,0,25.12,25.31,19.6,19.6,0,0,0,15.31,7.6h.09q1,0,1.82-.08c5.82-.43,11.36-2.81,17.89-6.25,1.63-.86,3.23-1.74,4.92-2.69,8.65-4.75,18.43-10.15,29.85-11.57l.41,0a11.69,11.69,0,0,1,1.47-.09h.14a13,13,0,0,1,8.7,3.49,11.89,11.89,0,0,1,1.43,1.59,8,8,0,0,0,.61.71A66.52,66.52,0,0,0,235.48,430a67.34,67.34,0,0,0,12.28-1.12,67,67,0,0,0,44.06-6.93,7.65,7.65,0,0,0,2.94-2.83,65.67,65.67,0,0,0,92.73-36.91l.15-.44a63.61,63.61,0,0,0,3.06-14.66ZM260,422.25A59.21,59.21,0,0,1,247.76,421h0A58.94,58.94,0,0,1,193,404.16a19.49,19.49,0,0,0-2.35-2.61A20.71,20.71,0,0,0,176.67,396h-.18a20.59,20.59,0,0,0-2.38.14h0c-15.41,1.79-27.56,9.67-37.89,15.14-5.41,2.85-10.3,5.06-14.91,5.38-.4,0-.8.05-1.19.05a11.92,11.92,0,0,1-10.46-6.45,32.66,32.66,0,0,1-23.46-23.69,20.72,20.72,0,0,1,3.45-37.82l0-.06a20.78,20.78,0,0,0,13.31-14.46h0a20.6,20.6,0,0,1,5.68-9.94c3.76-4.39,13.61-7.31,19.74-10.46s17.49-8.71,17.49-8.71a62.57,62.57,0,0,1,15.72-5.65,25.76,25.76,0,0,1-11.76-3,3.25,3.25,0,0,1-.3-.15c-7.73-3.77-10.16-10-19.31-12.61-6.35-1.85-14.45-1.61-21.82-1.77h-.1a69.15,69.15,0,0,1-9-.67c-1.42-.27-2.8-.61-4.16-1h0A40.9,40.9,0,0,1,67.76,229.1a20.71,20.71,0,0,1-3.5-31.41,28,28,0,0,1,39.2-33.06c14.66,6.38,26.26,26,38.65,28.19a13,13,0,0,0,2.35.21,23,23,0,0,0,8.6-2,27.29,27.29,0,0,0,3.07-1.51l.06,0a26.29,26.29,0,0,1,26.73,4.12L164.64,150l-1.29-3.06a20.49,20.49,0,0,1-1-6.45,20.7,20.7,0,0,1,12.88-19.18,28,28,0,0,1,32.67-19.69h0c.85.18,1.68.4,2.49.66.32.09.65.21,1,.32a40,40,0,0,1,5.5,2.65c3,1.7,6.11,3.82,9.19,6h0c4.27,3,8.53,6.25,12.48,8.78.57.35,1.12.71,1.68,1,.75.46,1.47.89,2.19,1.28.25.12.49.25.72.37A25,25,0,0,0,245.8,124l.71.26.68.25c.45.17.89.32,1.34.46.88.3,1.74.54,2.61.77s1.74.44,2.59.63,1.72.36,2.57.53c1.95.37,3.9.68,5.91,1s4.08.65,6.25,1.06l1.67.34c.79.17,1.6.34,2.43.53h0l1,.17.66.13.65.17c.37.1.76.21,1.12.32l.4.13h0l.36.14.09,0h.05l.39.15c.3.12.59.23.88.36l.1.05c.31.14.61.3.9.45l.52.26h0l.25.14a2.1,2.1,0,0,0,.22.14c.34.19.66.4,1,.61,0,0,0,0,0,0,.31.22.61.43.9.66l.08.05c.28.22.56.44.83.67s.52.45.77.7a1.11,1.11,0,0,1,.18.17c.25.23.49.46.71.71l.26.27h0q.66.72,1.24,1.47c.19.27.4.54.58.83l.08.1a1.28,1.28,0,0,1,.14.22c.17.25.34.5.48.76s.37.63.54,1c.3.58.58,1.16.83,1.78.09.19.17.39.25.59l.31.9h0a20.77,20.77,0,0,1-9.82,24.58s0,0,0,0a22,22,0,0,1-3.09,1.37h0a26.26,26.26,0,0,0-15.74,34.27h0c4.4,13.24,26.55,25.81,42.72,36.91a116.63,116.63,0,0,1,10.33,7.76l.36.31a19.12,19.12,0,0,1,3,3.16l.27.37c.09.12.18.25.26.36s.17.26.26.37a15.52,15.52,0,0,1,1,1.67,20.72,20.72,0,0,1,2.44,9.77,19.84,19.84,0,0,1-.23,3.06,20.73,20.73,0,0,1-9.62,14.6l.28.1-.14.1a20.74,20.74,0,0,1,10.3,7.32c.17.23.34.46.49.7s.4.59.59.9a20.21,20.21,0,0,1,2,4.51,20.42,20.42,0,0,1,.93,6.12,20.75,20.75,0,0,1-12.53,19.05h0a20.51,20.51,0,0,1-8.17,1.68c-.74,0-1.45,0-2.16-.1.14.14.28.3.41.45a30.26,30.26,0,0,0-35.78,42,26.19,26.19,0,0,0-2.32,21.27h0s0,0,0,.05a22.87,22.87,0,0,0,.92,2.43,25.32,25.32,0,0,0,2,3.73.1.1,0,0,1,0,.05A65.73,65.73,0,0,0,277,405.18a64.79,64.79,0,0,0,8.13,7.72l.85.66q1,.81,2.13,1.59A58.73,58.73,0,0,1,260,422.25Z"/><path class="cls-12" d="M160.06,298.06H161l.06-.21Zm0,0H161l.06-.21Zm0,0H161l.06-.21Z"/><path class="cls-13" d="M162.74,300.44l-.06.21h-1Z"/><circle class="cls-14" cx="424.14" cy="332.67" r="11.53"/><path class="cls-15" d="M424.14,164.56A15.22,15.22,0,0,1,402,178.11a13.13,13.13,0,0,1,.11,1.68,11.53,11.53,0,1,1-11.53-11.53,11.77,11.77,0,0,1,3.77.63,14.92,14.92,0,0,1-.63-4.32,15.22,15.22,0,0,1,30.44,0Z"/><path class="cls-16" d="M85.25,312.27a9.45,9.45,0,0,1-2.49,6.38l-.09.09q-.41.41-.85.81s0,0,0,0a26.84,26.84,0,0,1-44.85-19.27c0-.21,0-.43,0-.64s0-.43,0-.64a12.35,12.35,0,0,1,23.49-4.66l0,.11c.07.16.13.33.2.48s0,.09.06.13a13.15,13.15,0,0,0,14.09,7.76c.31,0,.64,0,1,0A9.45,9.45,0,0,1,85.25,312.27Z"/><path class="cls-17" d="M254.07,89.7a9.45,9.45,0,0,0,4.42-5.23l0-.12q.16-.55.31-1.14s0,0,0,0A26.84,26.84,0,0,0,220.51,53c-.19.09-.38.19-.57.29s-.37.2-.56.32a12.35,12.35,0,0,0,7.11,22.87l.12,0,.52-.06h.14A13.15,13.15,0,0,1,240.83,85c.12.29.27.58.42.87A9.45,9.45,0,0,0,254.07,89.7Z"/><path class="cls-18" d="M126.37,144.44a11.14,11.14,0,0,1-12.43-9.69c0-.27,0-.56-.06-.82a13.66,13.66,0,1,1,9.3-11.52l.45-.07a11.14,11.14,0,0,1,2.74,22.1Z"/><path class="cls-19" d="M220.63,226.07a6.52,6.52,0,0,1,8.92,2.34,6.52,6.52,0,0,0,8.92,2.34h0a6.52,6.52,0,0,1,8.92,2.34"/><path class="cls-19" d="M96,191.28a10,10,0,0,0,4.23,7h0a10,10,0,0,1,2.53,13.92"/><path class="cls-19" d="M358.41,124.73a10,10,0,0,0-.42,8.14h0a10,10,0,0,1-5.74,12.93"/><path class="cls-20" d="M244.83,385.48a10,10,0,0,1,2.53,13.92,10,10,0,0,0-1.7,7"/><g class="cls-21"><path class="cls-20" d="M137.6,359.3a8.08,8.08,0,0,0,8.55,7.58h0a8.23,8.23,0,0,1,5.07,1.42l-1.31,1.31a8.08,8.08,0,0,1-11.42-.14,8.08,8.08,0,0,0-11.42-.14h0a8.08,8.08,0,0,1-11.42-.14"/><path class="cls-20" d="M135,384.66a8.22,8.22,0,0,0-2.3-5.53h0a8.08,8.08,0,0,1,.14-11.42"/><path class="cls-20" d="M126.07,359.59a8.16,8.16,0,0,1-8.3,8,8.14,8.14,0,0,0-3.06.54l1.28,1.4"/></g><path class="cls-19" d="M218.8,173.12a4.42,4.42,0,0,0,.21-6.25h0a4.42,4.42,0,0,1,.21-6.25,4.42,4.42,0,0,0,.21-6.25L217.23,153a4.58,4.58,0,0,1-6.47-.33,4.58,4.58,0,0,0-6.47-.33h0a4.58,4.58,0,0,1-6.47-.33"/><circle class="cls-22" cx="227.03" cy="346.29" r="17.34"/><path class="cls-22" d="M329.75,130.07a10.9,10.9,0,0,1-21.81,0,11.19,11.19,0,0,1,.11-1.53,13.36,13.36,0,1,1,16.26-7.89A10.86,10.86,0,0,1,329.75,130.07Z"/><path class="cls-22" d="M210,400.57a6,6,0,0,1-6.79-5.14,5.86,5.86,0,0,1,0-1.35,6,6,0,1,1,8-6.49,5.43,5.43,0,0,1,0,1.37A6,6,0,0,1,210,400.57Z"/><circle class="cls-22" cx="312.1" cy="390.14" r="12.14"/><path class="cls-22" d="M419.63,266.42a12.14,12.14,0,1,1-24.27,0,11.27,11.27,0,0,1,.35-2.84,2.78,2.78,0,0,1-.49,0,9.32,9.32,0,0,1-9.33-9.31,9.23,9.23,0,0,1,3.78-7.46,11.13,11.13,0,0,1,10-6.27h.66a11.15,11.15,0,1,1,13.05,15.25A12.13,12.13,0,0,1,419.63,266.42Z"/><path class="cls-22" d="M135.66,229.74a12.14,12.14,0,1,1,7.55,23.07,11.27,11.27,0,0,1-2.81.55,2.78,2.78,0,0,1,.18.46,9.32,9.32,0,0,1-6,11.76,9.23,9.23,0,0,1-8.26-1.27,11.13,11.13,0,0,1-9.08-7.58c-.07-.21-.14-.42-.19-.63A11.15,11.15,0,1,1,127.53,239,12.13,12.13,0,0,1,135.66,229.74Z"/><path class="cls-22" d="M370.46,353.2a8.55,8.55,0,0,1-7.92,2.3,7.33,7.33,0,1,1-6.94-9.65h.29a8.59,8.59,0,1,1,14.57,7.33Z"/><path class="cls-23" d="M207.35,392l-.1-.14h0A.33.33,0,0,0,207.35,392Z"/><line class="cls-20" x1="188.93" y1="267.84" x2="197.19" y2="291.97"/><line class="cls-24" x1="369.43" y1="102.39" x2="358.06" y2="125.23"/><path class="cls-19" d="M384.15,322.38a10,10,0,0,0-7.31,3.59h0a10,10,0,0,1-14.09,1.27"/><line class="cls-24" x1="409.03" y1="321.14" x2="383.55" y2="322.31"/><polyline class="cls-25" points="212.76 126.94 219.56 149.18 241.17 142.13"/><polyline class="cls-20" points="259.7 304.33 264.97 294.76 273.27 301.89 280.29 287.7"/><polyline class="cls-26" points="435.67 222.47 440.94 212.9 449.25 220.03 456.26 205.84"/><polyline class="cls-25" points="23.74 178.55 33.3 183.82 26.18 192.12 40.37 199.14"/><polyline class="cls-20" points="125.97 360.29 133.79 340 137.59 360.22"/><line class="cls-25" x1="332.46" y1="177.41" x2="332.46" y2="211.7"/><line class="cls-25" x1="352.97" y1="238.33" x2="385.89" y2="247.93"/><line class="cls-19" x1="334.34" y1="175.56" x2="334.34" y2="209.86"/><line class="cls-19" x1="354.84" y1="236.48" x2="387.76" y2="246.08"/><path class="cls-27" d="M358.48,268.34a10.22,10.22,0,1,1-18.42-6.09,7.19,7.19,0,0,1-5.33-10.57c-.28,0-.57,0-.86,0a8.63,8.63,0,0,1-7.17-13.41,7,7,0,0,1-1.45.15,7.2,7.2,0,0,1-5.1-12.27,7.1,7.1,0,0,1-4.34,1.46,7.21,7.21,0,0,1-7.21-7.19,7.13,7.13,0,0,1,.88-3.43,10.11,10.11,0,0,1-7.61,3.43,10.23,10.23,0,1,1,10.22-10.23,10.06,10.06,0,0,1-1.46,5.26,7.1,7.1,0,0,1,5.19-2.23,7.21,7.21,0,0,1,5.12,12.27,7.06,7.06,0,0,1,4.32-1.46,7.22,7.22,0,0,1,7.21,7.21,7,7,0,0,1-1,3.56,8.32,8.32,0,0,1,2.37-.33A8.63,8.63,0,0,1,341,247.93h0a7.2,7.2,0,0,1,7.21,7.21,7,7,0,0,1-.67,3,5.39,5.39,0,0,1,.67,0A10.22,10.22,0,0,1,358.48,268.34Z"/><path class="cls-28" d="M361,266.65a10.22,10.22,0,1,1-18.42-6.09A7.19,7.19,0,0,1,337.3,250c-.28,0-.57,0-.86,0a8.63,8.63,0,0,1-7.17-13.41,7,7,0,0,1-1.45.15,7.2,7.2,0,0,1-5.1-12.27,7.1,7.1,0,0,1-4.34,1.46,7.21,7.21,0,0,1-7.21-7.19,7.13,7.13,0,0,1,.88-3.43,10.11,10.11,0,0,1-7.61,3.43,10.23,10.23,0,1,1,10.22-10.23,10.06,10.06,0,0,1-1.46,5.26,7.1,7.1,0,0,1,5.19-2.23,7.21,7.21,0,0,1,5.12,12.27,7.06,7.06,0,0,1,4.32-1.46,7.22,7.22,0,0,1,7.21,7.21,7,7,0,0,1-1,3.56,8.32,8.32,0,0,1,2.37-.33,8.63,8.63,0,0,1,7.15,13.44h0a7.2,7.2,0,0,1,7.21,7.21,7,7,0,0,1-.67,3,5.39,5.39,0,0,1,.67,0A10.22,10.22,0,0,1,361,266.65Z"/></g></g></svg>