<svg xmlns="http://www.w3.org/2000/svg" xmlns:xlink="http://www.w3.org/1999/xlink" viewBox="0 0 480 480"><defs><style>.cls-1{isolation:isolate;}.cls-2{fill:url(#Degradado_sin_nombre_9);}.cls-10,.cls-13,.cls-15,.cls-16,.cls-25,.cls-26,.cls-27,.cls-3,.cls-33,.cls-34,.cls-35,.cls-4,.cls-8,.cls-9{stroke-miterlimit:10;}.cls-10,.cls-13,.cls-16,.cls-25,.cls-26,.cls-27,.cls-3,.cls-4,.cls-8,.cls-9{stroke-width:0.25px;}.cls-3{fill:url(#Degradado_sin_nombre_14);stroke:url(#Degradado_sin_nombre_14-2);}.cls-4{fill:url(#Degradado_sin_nombre_14-3);stroke:url(#Degradado_sin_nombre_14-4);}.cls-5{fill:url(#Degradado_sin_nombre_9-2);}.cls-6{fill:url(#Degradado_sin_nombre_9-3);}.cls-7{fill:url(#Degradado_sin_nombre_9-4);}.cls-8{fill:url(#Degradado_sin_nombre_14-5);stroke:url(#Degradado_sin_nombre_14-6);}.cls-9{fill:url(#Degradado_sin_nombre_14-7);stroke:url(#Degradado_sin_nombre_14-8);}.cls-10{fill:url(#Degradado_sin_nombre_14-9);stroke:url(#Degradado_sin_nombre_14-10);}.cls-11{fill:url(#Degradado_sin_nombre_9-5);}.cls-12{fill:url(#Degradado_sin_nombre_9-6);}.cls-13{fill:url(#Degradado_sin_nombre_14-11);stroke:url(#Degradado_sin_nombre_14-12);}.cls-14{fill:url(#Degradado_sin_nombre_9-7);}.cls-15,.cls-33,.cls-34,.cls-35{fill:none;}.cls-15{stroke:#e6e5c9;}.cls-15,.cls-35{stroke-width:1.5px;}.cls-16{fill:url(#Degradado_sin_nombre_14-13);stroke:url(#Degradado_sin_nombre_14-14);}.cls-17{fill:url(#Degradado_sin_nombre_5);}.cls-18{fill:url(#Degradado_sin_nombre_5-2);}.cls-19{fill:url(#Degradado_sin_nombre_9-8);}.cls-20{fill:#fff;}.cls-21{fill:url(#Degradado_sin_nombre_9-9);}.cls-22{fill:url(#Degradado_sin_nombre_14-15);}.cls-23{opacity:0.44;}.cls-24{fill:url(#Degradado_sin_nombre_56);}.cls-25{opacity:0.57;fill:url(#Degradado_sin_nombre_14-16);stroke:url(#Degradado_sin_nombre_14-17);}.cls-26{fill:url(#Degradado_sin_nombre_14-18);stroke:url(#Degradado_sin_nombre_14-19);}.cls-27{fill:url(#Degradado_sin_nombre_14-20);stroke:url(#Degradado_sin_nombre_14-21);}.cls-28,.cls-29,.cls-30,.cls-31,.cls-32{mix-blend-mode:overlay;}.cls-28{fill:url(#Degradado_sin_nombre_56-2);}.cls-29{fill:url(#Degradado_sin_nombre_56-3);}.cls-30{fill:url(#Degradado_sin_nombre_56-4);}.cls-31{fill:url(#Degradado_sin_nombre_56-5);}.cls-32{fill:url(#Degradado_sin_nombre_56-6);}.cls-33,.cls-34,.cls-35{stroke:#f13681;}.cls-33,.cls-34{stroke-width:5px;}.cls-33,.cls-35{opacity:0.8;mix-blend-mode:multiply;}</style><linearGradient id="Degradado_sin_nombre_9" x1="23.66" y1="227.54" x2="180.37" y2="227.54" gradientUnits="userSpaceOnUse"><stop offset="0.19" stop-color="#c0dc15"/><stop offset="0.32" stop-color="#cdb032"/><stop offset="0.48" stop-color="#da844e"/><stop offset="0.62" stop-color="#e46264"/><stop offset="0.76" stop-color="#eb4a74"/><stop offset="0.89" stop-color="#ef3b7e"/><stop offset="1" stop-color="#f13681"/></linearGradient><linearGradient id="Degradado_sin_nombre_14" x1="42.54" y1="168.42" x2="178.15" y2="168.42" gradientUnits="userSpaceOnUse"><stop offset="0.21" stop-color="#c0dc15"/><stop offset="0.94" stop-color="#29c0cd"/></linearGradient><linearGradient id="Degradado_sin_nombre_14-2" x1="42.41" y1="168.42" x2="178.29" y2="168.42" xlink:href="#Degradado_sin_nombre_14"/><linearGradient id="Degradado_sin_nombre_14-3" x1="395.59" y1="80.14" x2="249.99" y2="155.66" xlink:href="#Degradado_sin_nombre_14"/><linearGradient id="Degradado_sin_nombre_14-4" x1="260.58" y1="115.02" x2="389.26" y2="115.02" xlink:href="#Degradado_sin_nombre_14"/><linearGradient id="Degradado_sin_nombre_9-2" x1="414.46" y1="140.08" x2="254.57" y2="212.88" xlink:href="#Degradado_sin_nombre_9"/><linearGradient id="Degradado_sin_nombre_9-3" x1="25.88" y1="398.34" x2="97.92" y2="398.34" xlink:href="#Degradado_sin_nombre_9"/><linearGradient id="Degradado_sin_nombre_9-4" x1="162.81" y1="298.68" x2="89.33" y2="350.39" xlink:href="#Degradado_sin_nombre_9"/><linearGradient id="Degradado_sin_nombre_14-5" x1="157.56" y1="471.8" x2="72.51" y2="354.09" xlink:href="#Degradado_sin_nombre_14"/><linearGradient id="Degradado_sin_nombre_14-6" x1="95.6" y1="402.61" x2="113.93" y2="402.61" xlink:href="#Degradado_sin_nombre_14"/><linearGradient id="Degradado_sin_nombre_14-7" x1="186.46" y1="450.91" x2="101.41" y2="333.21" xlink:href="#Degradado_sin_nombre_14"/><linearGradient id="Degradado_sin_nombre_14-8" x1="118.82" y1="399.02" x2="176.13" y2="399.02" xlink:href="#Degradado_sin_nombre_14"/><linearGradient id="Degradado_sin_nombre_14-9" x1="447.97" y1="353.92" x2="386.05" y2="215.12" xlink:href="#Degradado_sin_nombre_14"/><linearGradient id="Degradado_sin_nombre_14-10" x1="391.51" y1="285.52" x2="448.46" y2="285.52" xlink:href="#Degradado_sin_nombre_14"/><linearGradient id="Degradado_sin_nombre_9-5" x1="316.27" y1="288.61" x2="367.81" y2="288.61" xlink:href="#Degradado_sin_nombre_9"/><linearGradient id="Degradado_sin_nombre_9-6" x1="363.45" y1="295.52" x2="396.78" y2="295.52" xlink:href="#Degradado_sin_nombre_9"/><linearGradient id="Degradado_sin_nombre_14-11" x1="295.32" y1="206.33" x2="368.88" y2="206.33" xlink:href="#Degradado_sin_nombre_14"/><linearGradient id="Degradado_sin_nombre_14-12" x1="295.19" y1="206.33" x2="369.06" y2="206.33" xlink:href="#Degradado_sin_nombre_14"/><linearGradient id="Degradado_sin_nombre_9-7" x1="154.23" y1="365.45" x2="347.46" y2="357.28" xlink:href="#Degradado_sin_nombre_9"/><linearGradient id="Degradado_sin_nombre_14-13" x1="120.48" y1="306.96" x2="176.95" y2="427.39" gradientTransform="translate(41.67 -158.97) rotate(-5.09)" xlink:href="#Degradado_sin_nombre_14"/><linearGradient id="Degradado_sin_nombre_14-14" x1="94.42" y1="352.2" x2="188.17" y2="352.2" gradientTransform="translate(41.67 -158.97) rotate(-5.09)" xlink:href="#Degradado_sin_nombre_14"/><linearGradient id="Degradado_sin_nombre_5" x1="261.96" y1="327.99" x2="394.29" y2="327.99" gradientUnits="userSpaceOnUse"><stop offset="0.21" stop-color="#e16d5d"/><stop offset="0.94" stop-color="#29c0cd"/></linearGradient><linearGradient id="Degradado_sin_nombre_5-2" x1="275.48" y1="350.62" x2="65.24" y2="401.65" xlink:href="#Degradado_sin_nombre_5"/><linearGradient id="Degradado_sin_nombre_9-8" x1="416.12" y1="403.12" x2="214.64" y2="271.77" xlink:href="#Degradado_sin_nombre_9"/><linearGradient id="Degradado_sin_nombre_9-9" x1="199.03" y1="140.82" x2="318.09" y2="453.8" xlink:href="#Degradado_sin_nombre_9"/><linearGradient id="Degradado_sin_nombre_14-15" x1="204.96" y1="127.26" x2="281.17" y2="393.06" xlink:href="#Degradado_sin_nombre_14"/><linearGradient id="Degradado_sin_nombre_56" x1="279.4" y1="358.66" x2="220.89" y2="195.36" gradientUnits="userSpaceOnUse"><stop offset="0" stop-color="#4a65b6"/><stop offset="0.02" stop-color="#4862b1" stop-opacity="0.97"/><stop offset="0.2" stop-color="#3a4c8b" stop-opacity="0.7"/><stop offset="0.38" stop-color="#2e3a6b" stop-opacity="0.49"/><stop offset="0.55" stop-color="#242c53" stop-opacity="0.32"/><stop offset="0.72" stop-color="#1d2241" stop-opacity="0.2"/><stop offset="0.87" stop-color="#191c37" stop-opacity="0.13"/><stop offset="1" stop-color="#181a33" stop-opacity="0.1"/></linearGradient><linearGradient id="Degradado_sin_nombre_14-16" x1="140.92" y1="54.48" x2="245.7" y2="221.86" xlink:href="#Degradado_sin_nombre_14"/><linearGradient id="Degradado_sin_nombre_14-17" x1="117.2" y1="150.17" x2="314.7" y2="150.17" xlink:href="#Degradado_sin_nombre_14"/><linearGradient id="Degradado_sin_nombre_14-18" x1="70.15" y1="285.57" x2="126.63" y2="406" xlink:href="#Degradado_sin_nombre_14"/><linearGradient id="Degradado_sin_nombre_14-19" x1="44.1" y1="330.81" x2="137.84" y2="330.81" xlink:href="#Degradado_sin_nombre_14"/><linearGradient id="Degradado_sin_nombre_14-20" x1="314.34" y1="-1492.48" x2="370.82" y2="-1372.05" gradientTransform="translate(-864.26 987.77) rotate(45)" xlink:href="#Degradado_sin_nombre_14"/><linearGradient id="Degradado_sin_nombre_14-21" x1="288.29" y1="-1447.24" x2="382.03" y2="-1447.24" gradientTransform="translate(-864.26 987.77) rotate(45)" xlink:href="#Degradado_sin_nombre_14"/><linearGradient id="Degradado_sin_nombre_56-2" x1="175.17" y1="229.49" x2="275.19" y2="411.84" xlink:href="#Degradado_sin_nombre_56"/><linearGradient id="Degradado_sin_nombre_56-3" x1="197.4" y1="158.25" x2="398.95" y2="525.71" xlink:href="#Degradado_sin_nombre_56"/><linearGradient id="Degradado_sin_nombre_56-4" x1="243.55" y1="191.98" x2="343.57" y2="374.33" xlink:href="#Degradado_sin_nombre_56"/><linearGradient id="Degradado_sin_nombre_56-5" x1="186.79" y1="223.12" x2="286.81" y2="405.46" xlink:href="#Degradado_sin_nombre_56"/><linearGradient id="Degradado_sin_nombre_56-6" x1="207.3" y1="211.87" x2="307.32" y2="394.21" xlink:href="#Degradado_sin_nombre_56"/></defs><title>Sin título-3</title><g class="cls-1"><g id="Capa_1" data-name="Capa 1"><path class="cls-2" d="M139.08,251.92a49.37,49.37,0,0,1-30.52-11,40.84,40.84,0,0,1-7,4.18c-8.79,4.07-18,4.36-26,.83-9.85-4.37-12.82-13.27-15.69-21.88-2.73-8.18-5.3-15.91-13.91-18.21-6.12-1.63-11.67-.29-15.65,3.77a16.46,16.46,0,0,0-4,15.85c1.77,6.14,7,10.54,14.77,12.39l-.47,2c-8.5-2-14.28-6.93-16.26-13.81a18.54,18.54,0,0,1,4.49-17.84c4.45-4.54,10.87-6.11,17.63-4.31,9.68,2.57,12.55,11.2,15.33,19.53,2.73,8.19,5.55,16.65,14.58,20.66,7.42,3.29,16,3,24.29-.81a38.86,38.86,0,0,0,6.3-3.69c-8.07-7.23-12-16-10-22.59,2.92-9.84,10.84-13.1,17.14-11.24,5.69,1.68,10.52,7.88,7.68,17.53-1.75,6-6,11.81-11.55,16.37,11.12,8.9,29.24,14.9,47.88,5.73,18.9-9.29,19.68-27.41,20-35.14a26.18,26.18,0,0,1,.26-3.31l2,.39a26.26,26.26,0,0,0-.22,3c-.35,8.1-1.17,27.05-21.15,36.88A44.77,44.77,0,0,1,139.08,251.92Zm-28.44-44.61c-4.68,0-9.65,3.19-11.75,10.27-1.76,5.92,2.05,14,9.73,20.75,5.41-4.33,9.51-9.94,11.18-15.62,2.45-8.35-1.4-13.55-6.3-15A10.11,10.11,0,0,0,110.65,207.31Z"/><path class="cls-3" d="M136.72,210.13A25.94,25.94,0,0,1,124,206.78c-11.92-6.58-12-17.55-12-28.17,0-9.34-.08-18.16-8.32-23.37-7.53-4.76-16.05-1.09-25.07,2.79-9.51,4.1-19.35,8.33-28,1.85-9-6.69-9.21-15.84-6.47-22.19,3.34-7.71,11.15-12.13,19-10.73l-.36,2c-6.91-1.22-13.8,2.69-16.76,9.53-2.43,5.63-2.19,13.77,5.81,19.74,7.73,5.77,16.6,1.95,26-2.09,9.11-3.92,18.53-8,27-2.64,9.19,5.81,9.23,15.61,9.27,25.08,0,10.48.09,20.39,11,26.39,13.8,7.62,27.5-.6,38.5-7.2,5.59-3.35,10.41-6.25,14.47-6.69l.22,2c-3.62.4-8.27,3.19-13.65,6.42C156.39,204.41,146.86,210.13,136.72,210.13Z"/><path class="cls-4" d="M261.08,169.37l-.35-2a34.86,34.86,0,0,1,6.64-.22c6.66.18,14.2.38,19.25-7.35,3.63-5.56,2.6-10.29,1.42-15.77-1.23-5.7-2.63-12.15,1.72-20.14,3.58-6.59,10.47-10.87,18.89-11.75a33.31,33.31,0,0,1,3.59-.17,39.83,39.83,0,0,1,23.93-20.62c10.56-3.33,20.26-2.18,28.05-1.27,10.68,1.26,17.74,2.09,21.54-7.44s-.94-15.87-6.14-18.43c-6.18-3-15-1.78-19.93,6.51l-1.75-1c5.55-9.36,15.57-10.76,22.59-7.3,6.45,3.18,11.16,10.91,7.13,21-4.38,11-12.89,10-23.68,8.71-8-.94-17.07-2-27.2,1.18a37.82,37.82,0,0,0-22.32,18.77,32.4,32.4,0,0,1,22,11c6.83,8,4.64,16.23-.56,20.83a15,15,0,0,1-21.29-1.25c-5.46-5.95-7.22-15.09-4.72-24.45a36.33,36.33,0,0,1,1.4-4.19q-1.24,0-2.48.16c-7.74.81-14,4.71-17.3,10.69-4,7.33-2.73,13.13-1.51,18.74,1.18,5.43,2.39,11-1.7,17.32-5.67,8.68-14.18,8.46-21,8.28A33.74,33.74,0,0,0,261.08,169.37ZM313.52,114a34.41,34.41,0,0,0-1.63,4.68c-2.32,8.69-.73,17.11,4.25,22.54a12.8,12.8,0,0,0,18.43,1.1c4.45-3.94,6.29-11,.37-18A30.37,30.37,0,0,0,313.52,114Z"/><path class="cls-5" d="M329.12,195.92c-15.14,0-31.69-8-36.72-12.93l1.42-1.46c7.11,6.93,38.21,20.48,53.29,6.13,7.13-6.78,6.81-13.38,6.48-20.36-.31-6.4-.62-13,4.83-19.85a16.74,16.74,0,0,1,22.41-4c5.43,3.5,9.9,11.24,4.64,21.55l-1.82-.93c4.64-9.1.78-15.87-3.93-18.91A14.72,14.72,0,0,0,360,148.72c-5,6.24-4.69,12.18-4.38,18.48.34,7.13.7,14.51-7.11,21.93C343.33,194.07,336.38,195.92,329.12,195.92Z"/><path class="cls-6" d="M41.18,423.75a23.78,23.78,0,0,1-4.25-.38c-5.58-1-9.57-3.75-11.06-6l1.71-1.12c1.24,1.89,5,4.25,9.72,5.11a21.5,21.5,0,0,0,16.85-4,28.77,28.77,0,0,0,8.34-9.26c-6.32-1.46-11.25-4.7-13.72-7.4-3.26-3.57-5-8.13-4.66-12.19a10.49,10.49,0,0,1,4.05-7.59,9.6,9.6,0,0,1,8.14-2c4.47,1,7.83,4.69,9.48,7.85,2.37,4.54,3,12.27-.29,19.82,6.1.83,13.32-.22,20.71-5.18,9.11-6.12,11-18.8,8.92-28l2-.45c2.24,9.86.13,23.49-9.78,30.15-8.12,5.46-16.09,6.46-22.75,5.4A30.5,30.5,0,0,1,55.35,419,23.74,23.74,0,0,1,41.18,423.75Zm13.07-43a7.75,7.75,0,0,0-4.84,1.79,8.5,8.5,0,0,0-3.28,6.15c-.29,3.5,1.25,7.48,4.14,10.64,2.34,2.56,7.08,5.63,13.16,6.92,3.23-7.06,2.74-14.3.54-18.52-1.81-3.46-5-6.13-8.1-6.8A7.61,7.61,0,0,0,54.25,380.71Z"/><path class="cls-7" d="M134.56,370.29a23.93,23.93,0,0,1-9.73-2.21c-4.89-2.19-9.13-5.69-12.72-8.8l1.34-1.54c3.48,3,7.58,6.41,12.22,8.48,4.92,2.21,9.92,2.63,14.06,1.2a21,21,0,0,0,7.38-4.75c-3.08-.31-5.73-1.37-7.24-3a8.31,8.31,0,0,1-2.42-6.57,7.76,7.76,0,0,1,3.17-5.49,6.63,6.63,0,0,1,5.93-.87,9.31,9.31,0,0,1,5.2,13c-.13.27-.28.54-.43.81l.31,0c3.76-.53,10.7-2.7,15-11.21,5.13-10.26,6.83-27.76-5.25-43.31-5.72-7.36-12.74-9.26-19.52-11.09-6.44-1.74-12.52-3.38-15.87-9.82a18.33,18.33,0,0,1,.27-18.15,13.54,13.54,0,0,1,11.57-6.83v2h-.07A11.57,11.57,0,0,0,128,268a16.3,16.3,0,0,0-.2,16.14c2.93,5.64,8.34,7.1,14.59,8.79,6.78,1.83,14.46,3.9,20.6,11.81,12.67,16.3,10.86,34.69,5.47,45.48a21.89,21.89,0,0,1-16.49,12.31,20.41,20.41,0,0,1-2.12.19,22.88,22.88,0,0,1-9.41,6.59A17.79,17.79,0,0,1,134.56,370.29Zm9.83-21.84a4.31,4.31,0,0,0-2.56.81,5.71,5.71,0,0,0-2.34,4,6.39,6.39,0,0,0,1.89,5c1.17,1.26,3.85,2.4,7.42,2.44a11.84,11.84,0,0,0,1.12-1.84,7.28,7.28,0,0,0-4-10.2A5.26,5.26,0,0,0,144.39,348.45Z"/><path class="cls-8" d="M113.74,430.27l-2-.13c.62-9.62-4-12.16-8.38-14.62-3.3-1.83-6.71-3.72-7.45-8.37-.8-5,1.74-7.39,4.19-9.72,3.78-3.58,7.68-7.29,1.84-21.7l1.89-.77c6.36,15.7,1.54,20.27-2.33,23.94-2.35,2.23-4.21,4-3.58,7.92.59,3.66,3.29,5.16,6.43,6.9C108.83,416.24,114.45,419.36,113.74,430.27Z"/><path class="cls-9" d="M159.71,426.54a19.6,19.6,0,0,1-2.91-.22c-16.09-2.42-14.49-16.32-13.43-25.52a55.25,55.25,0,0,0,.48-5.85c0-14.8-15.83-19-22.59-20.85-1-.28-1.8-.48-2.28-.67l.75-1.9c.37.15,1.12.35,2.06.6,6.59,1.76,24.09,6.45,24.1,22.82a56.59,56.59,0,0,1-.5,6.09c-1.09,9.42-2.44,21.14,11.7,23.27a14.73,14.73,0,0,0,15.06-6.8c1.82-2.92,2.19-5.7,1.49-6.71l1.68-1.16c1.28,1.86.69,5.54-1.44,9A16.76,16.76,0,0,1,159.71,426.54Z"/><path class="cls-10" d="M421.6,336.1A29.25,29.25,0,0,1,403,329.42a20.92,20.92,0,0,1-7.55-14.56,22.46,22.46,0,0,1,5.66-16.67c6-6.86,13.51-7.19,21.45-7.54,4.7-.21,9.57-.42,14.57-1.95a13,13,0,0,0,9.16-11.55,12.61,12.61,0,0,0-7.5-12.62c-5.47-2.62-10.94-.86-16.72,1-7.57,2.44-15.4,5-23.12-2.88-11-11.19-6.3-27-6.1-27.7l2,.6c0,.15-4.55,15.36,5.6,25.67,6.84,6.95,13.74,4.72,21,2.37,5.92-1.91,12-3.88,18.23-.91a14.76,14.76,0,0,1,8.66,14.61,15,15,0,0,1-10.6,13.34c-5.26,1.6-10.25,1.82-15.08,2-7.82.35-14.57.64-20,6.85a20.44,20.44,0,0,0-5.17,15.16,18.89,18.89,0,0,0,6.82,13.15c9.77,8.09,24.17,8.31,33.49.51,5.92-5,6.57-8.94,5.2-11-.74-1.13-1.83-1.4-2.19-1.22l-.92-1.82c1.49-.76,3.61.09,4.81,1.92.9,1.37,3.15,6.39-5.59,13.71A27.15,27.15,0,0,1,421.6,336.1Z"/><path class="cls-11" d="M330.25,333.09a34.38,34.38,0,0,1-14-3.31l.92-1.82c.1.05,10.63,5.27,19.64,2,4.43-1.6,7.8-5,10-10.13,4.88-11.2-2.16-19-9-26.6-6.09-6.78-12.39-13.79-9.33-22.87,3.18-9.44,10.27-10.65,17.13-11.82,7.6-1.3,15.47-2.64,20.22-14.41l1.89.76c-5.17,12.83-14,14.33-21.77,15.66-6.84,1.17-12.74,2.18-15.54,10.46-2.68,8,2.95,14.22,8.91,20.85,6.9,7.68,14.72,16.39,9.32,28.78-2.47,5.66-6.24,9.44-11.22,11.23A21.35,21.35,0,0,1,330.25,333.09Z"/><path class="cls-12" d="M380.17,337.88c-.53-.32-1.16-.68-1.85-1.08-6.45-3.67-18.45-10.51-13.85-23.23,2.27-6.29,8.26-7.86,14.05-9.38,6.47-1.7,13.16-3.46,15.53-11.7,2.45-8.51-2-13.11-6.81-18-5.24-5.35-10.65-10.89-4.76-21.35l1.78,1c-5.14,9.13-.7,13.67,4.44,18.92,4.73,4.84,10.09,10.32,7.31,20-2.69,9.36-10.28,11.35-17,13.11-5.76,1.51-10.74,2.82-12.65,8.1-4,11.1,6.6,17.15,12.94,20.77.71.4,1.35.77,1.9,1.1Z"/><path class="cls-13" d="M323.75,253.31c-11.42,0-20.27-7.51-24-12.43-4.11-5.47-6.53-16.44-2.1-27.62,3.33-8.4,8.66-12,13.36-15.26,2.78-1.9,5.41-3.7,7.48-6.31,6.82-8.63,7.73-17.6,2.46-24-6.4-7.75-12.88-6.72-16.18-5.41-6.31,2.5-7,9.28-6.47,11.33l-2,.47c-.78-3.29.71-10.93,7.7-13.7,3.07-1.21,11-3.06,18.5,6,5.93,7.18,5,17.11-2.43,26.55-2.25,2.85-5,4.74-7.93,6.73-4.68,3.2-9.51,6.51-12.62,14.33-4,10-2.07,20.45,1.83,25.64s13.7,13.27,26.1,11.32a19.55,19.55,0,0,0,10.75-5.38,15.18,15.18,0,0,1-9-8,12.44,12.44,0,0,1-.59-9.6,8.52,8.52,0,0,1,4.27-4.87,9,9,0,0,1,7.45.09c1.87.88,4.34,2.84,5.52,7.15,1,3.54-.15,8.38-2.9,12.63q-.44.68-.93,1.33a15.72,15.72,0,0,0,2.62.08,32,32,0,0,0,22.69-10.65l1.51,1.38a34,34,0,0,1-24.09,11.31,17.72,17.72,0,0,1-4.26-.29,22.08,22.08,0,0,1-12.7,6.8A26.19,26.19,0,0,1,323.75,253.31Zm12.79-28.88a6.8,6.8,0,0,0-2.78.59,6.48,6.48,0,0,0-3.2,3.73,10.42,10.42,0,0,0,.53,8,13.25,13.25,0,0,0,8.71,7.15,21,21,0,0,0,1.48-2c2.41-3.72,3.45-8,2.64-11-1-3.56-2.94-5.14-4.42-5.84A7,7,0,0,0,336.54,224.43Z"/><path class="cls-14" d="M224.28,429.49c-16.78,0-31.17-8.3-36.25-21.14-6.68-16.87-4.24-26.88-2.28-34.93,1.39-5.71,2.49-10.22,0-16.15-2.67-6.49-9.56-8.74-16.84-11.12-8.57-2.8-18.28-6-19.45-17.26-1.72-16.53,19.05-24.54,31.47-29.32a65,65,0,0,0,6.11-2.55l3.26,6a65.84,65.84,0,0,1-6.93,2.92c-10.59,4.08-28.33,10.92-27.15,22.27.68,6.56,6.07,8.64,14.8,11.5,8,2.63,17.15,5.61,21,15,3.29,8,1.82,14,.27,20.36-1.82,7.48-3.89,16,2,30.81,4.91,12.39,19.6,17.36,32,16.79,13.19-.61,29.1-7.43,34.18-24.76,8.17-27.88-11.25-46.5-11.45-46.68l4.65-5c.93.87,22.66,21.71,13.32,53.56-5,17.11-20.87,28.74-40.4,29.64C225.85,429.47,225.06,429.49,224.28,429.49Z"/><path class="cls-15" d="M148.84,139.41a10.08,10.08,0,0,1,12.79,6.3,10.08,10.08,0,0,0,12.79,6.3,10.08,10.08,0,0,1,12.79,6.3q.13.39.3.77"/><path class="cls-15" d="M160.44,116.05A10.08,10.08,0,0,1,170,126.63a10.08,10.08,0,0,0,9.56,10.57,10.08,10.08,0,0,1,9.56,10.57q0,.41,0,.82"/><path class="cls-15" d="M218.88,105.11A10.08,10.08,0,0,0,215,118.81,10.08,10.08,0,0,1,211,132.52a10.08,10.08,0,0,0-3.92,13.71q.2.36.37.73"/><path class="cls-15" d="M190.92,97.42a10.08,10.08,0,0,0,2.92,14,10.08,10.08,0,0,1,2.92,14,10.08,10.08,0,0,0,2.92,14q.35.23.67.48"/><path class="cls-16" d="M237.19,137.68a16.06,16.06,0,0,1,5.13,16.81,1,1,0,0,0-.06.21h0a.52.52,0,0,0,0,.18,10.59,10.59,0,0,0,3.38,11.06,10.78,10.78,0,0,0,3.72,2h0a16.1,16.1,0,0,1-.18,31,22,22,0,1,1-38.48,20.25,16.09,16.09,0,0,1-25.73-17A.69.69,0,0,1,185,202h0a10.59,10.59,0,0,0-7-13,.9.9,0,0,0-.19-.05s0,0-.09,0a16.09,16.09,0,0,1-.64-30.57,22,22,0,1,1,39-20.15A16.1,16.1,0,0,1,237.19,137.68Z"/><path class="cls-17" d="M342.4,404.77c-12.51,0-26-5.21-34.49-13.28-26.52-25.32-45.17-59.35-46-60.78l6-3.25c.19.34,18.95,34.55,44.68,59.12,7.25,6.92,18.94,11.39,29.79,11.39a45.1,45.1,0,0,0,22.87-84l-1.45-.89a27.69,27.69,0,0,1-12-31.8L352,281l2-4.73,14.16-25.06,5.92,3.35L360,279.44l-1.72,4a20.89,20.89,0,0,0,9.07,23.82l1.4.86a51.9,51.9,0,0,1-26.38,96.6Z"/><path class="cls-18" d="M138,408.39c-17.85,0-29.88-19.39-34.13-31.16l6.4-2.31c.12.33,12.21,32.81,34.06,25.6,11-3.62,12.31-11.75,13.87-21.16,1.49-9,3.18-19.25,14.91-23.7,12.57-4.75,21.51,3,29.4,9.91s14.91,13,25.13,7.75c5.49-2.81,9-6.78,10.55-11.81,3.33-11.07-3.83-24-3.9-24.13l5.92-3.35c.35.63,8.66,15.54,4.5,29.41-2.06,6.88-6.76,12.24-14,15.94-14.32,7.34-24.08-1.17-32.7-8.68-7.39-6.43-13.77-12-22.53-8.68-7.68,2.91-9,8.9-10.61,18.44s-3.57,21.6-18.45,26.51A26.9,26.9,0,0,1,138,408.39Z"/><path class="cls-15" d="M94.62,127.11a10.08,10.08,0,0,1,12.45,6.95A10.08,10.08,0,0,0,119.52,141,10.08,10.08,0,0,1,132,147.95q.11.4.26.78t.26.78a10.08,10.08,0,0,0,12.45,6.95,10.08,10.08,0,0,1,12.45,6.95,10.08,10.08,0,0,0,12.45,6.95"/><path class="cls-19" d="M409.18,400.72a38.37,38.37,0,0,1-36.93-27.5,30.89,30.89,0,0,0-14.94-18.62,31.68,31.68,0,0,0-23.92-2.75c-20.35,5.69-41.61-6-47.39-26.05-.23-.81-.5-1.62-.8-2.41l6.47-2.38c.36,1,.69,1.95,1,2.93a31.58,31.58,0,0,0,38.87,21.37,38.62,38.62,0,0,1,29.17,3.35,37.68,37.68,0,0,1,18.22,22.7,31.57,31.57,0,0,0,38.87,21.37l1.89,6.54A38.82,38.82,0,0,1,409.18,400.72Z"/><path class="cls-15" d="M29.94,285.33a10.08,10.08,0,0,1,12.18,7.41,10.08,10.08,0,0,0,12.18,7.41,10.08,10.08,0,0,1,12.18,7.41q.1.4.23.79"/><path class="cls-15" d="M43.57,263.09a10.08,10.08,0,0,1,8.59,11.38,10.08,10.08,0,0,0,8.59,11.38,10.08,10.08,0,0,1,8.59,11.38q-.06.41-.08.82"/><path class="cls-15" d="M102.74,257.38a10.08,10.08,0,0,0-5.13,13.3A10.08,10.08,0,0,1,92.49,284a10.08,10.08,0,0,0-5.13,13.3q.17.38.3.76"/><path class="cls-15" d="M75.58,247.24a10.08,10.08,0,0,0,1.67,14.16,10.08,10.08,0,0,1,1.67,14.16,10.08,10.08,0,0,0,1.67,14.16q.33.26.62.53"/><path class="cls-15" d="M137.71,78.77a10.08,10.08,0,0,1,8.58,11.39,10.08,10.08,0,0,0,8.58,11.39,10.08,10.08,0,0,1,8.58,11.39q-.06.41-.08.82t-.08.82A10.08,10.08,0,0,0,171.87,126a10.08,10.08,0,0,1,8.58,11.39A10.08,10.08,0,0,0,189,148.73"/><path class="cls-15" d="M253.35,142a10.08,10.08,0,0,0,3.89-13.72,10.08,10.08,0,0,1,3.89-13.72A10.08,10.08,0,0,0,265,100.8q-.2-.36-.37-.73t-.37-.73a10.08,10.08,0,0,1,3.89-13.72,10.08,10.08,0,0,0,3.89-13.72A10.08,10.08,0,0,1,276,58.19"/><path class="cls-15" d="M221.78,136.69a10.08,10.08,0,0,0-.39-14.25,10.08,10.08,0,0,1-.39-14.25,10.08,10.08,0,0,0-.39-14.25q-.3-.29-.57-.59t-.57-.59a10.08,10.08,0,0,1-.39-14.25,10.08,10.08,0,0,0-.39-14.25A10.08,10.08,0,0,1,218.29,50"/><path class="cls-20" d="M202.37,127.2l-.42-.24-.36-.24a4.27,4.27,0,0,1,.37.22Z"/><path class="cls-20" d="M134.56,203.78c-.12-.22-.24-.44-.36-.68s-.24-.48-.34-.71a3.94,3.94,0,0,1,.37.7C134.35,203.31,134.45,203.55,134.56,203.78Z"/><path class="cls-20" d="M102,294.29c.09.28.17.56.23.84s.17.81.22,1.24a11.32,11.32,0,0,1-.29-1.27C102.12,294.84,102.07,294.56,102,294.29Z"/><path class="cls-21" d="M316.52,264.42a18.57,18.57,0,0,1-7.32,14.78q-.63.48-1.32.91l0,.08a18.59,18.59,0,0,0-5.78,20.17l-.08.07c.17.3.3.61.44.91a1.9,1.9,0,0,1,.12.27c.05.14.1.27.15.39a18.36,18.36,0,0,1,1.34,6.9,18.58,18.58,0,0,1-18.58,18.58c-.59,0-1.17,0-1.74-.08a23.48,23.48,0,1,1-44.08,16.11,18.55,18.55,0,0,1-27.85-14.39.25.25,0,0,1,0-.12c0-.19,0-.37-.05-.57a18.57,18.57,0,0,0-18.5-17H193a18.58,18.58,0,0,1-18.39-18.56,18.79,18.79,0,0,1,.76-5.29,23.48,23.48,0,0,1-16.11-35,33,33,0,0,1-10.43-24.11c0-.69,0-1.39.07-2.06a33.2,33.2,0,0,1,7.19-18.61s0,0,0,0c.3-.3.57-.61.85-.93s.36-.46.52-.69a.59.59,0,0,0,.08-.14,12.66,12.66,0,0,0,1.3-12.07c-.1-.24-.2-.47-.32-.69a3.92,3.92,0,0,0-.37-.69,23.5,23.5,0,0,1,16.52-32.85l0,0a18.56,18.56,0,0,0,13.58-11.78h0A26,26,0,0,1,225.65,135s0,0,0,0l.35.24.42.24,0,0a18.4,18.4,0,0,0,9.2,2.43,18.83,18.83,0,0,0,5.48-.81l.34-.12c.25-.08.52-.17.78-.27a23.82,23.82,0,0,1,7-1,23.49,23.49,0,0,1,23.42,21.79h0a12.69,12.69,0,0,0,7.1,10.33,12.13,12.13,0,0,0,3.21,1l0,0a32.95,32.95,0,0,1,16.42,9.94,33,33,0,0,1,8.2,26.43,23.5,23.5,0,0,1-.17,43.21A18.58,18.58,0,0,1,316.52,264.42Z"/><path class="cls-22" d="M212.5,139.57a17.81,17.81,0,0,1,8.9,2.37l0,0,.29.19.65.38.05,0a26.65,26.65,0,0,0,13.27,3.52,27,27,0,0,0,7.85-1.16l.49-.17.05,0,.12,0,.68-.23a15.72,15.72,0,0,1,4.38-.63A15.35,15.35,0,0,1,264.52,158q0,.4.09.79a21,21,0,0,0,11.57,16.29,20.21,20.21,0,0,0,4.39,1.56l.42.12a24.78,24.78,0,0,1,12.34,7.49,24.81,24.81,0,0,1,6.17,19.89,8.16,8.16,0,0,0,4.84,8.56,15.34,15.34,0,0,1-.1,28.21,8.16,8.16,0,0,0-1,14.53,10.41,10.41,0,0,1,1,17.24c-.23.18-.48.34-.73.5a8.15,8.15,0,0,0-1.87,1.61,26.75,26.75,0,0,0-7.74,26.58,8.08,8.08,0,0,0,1,3c.05.1.09.21.14.31v0l.17.42a10.17,10.17,0,0,1,.72,3.79,10.43,10.43,0,0,1-10.42,10.42c-.29,0-.61,0-1-.05q-.36,0-.72,0a8.16,8.16,0,0,0-7.56,11.25A15.32,15.32,0,1,1,247.47,341a8.16,8.16,0,0,0-11.9-4.54,10.33,10.33,0,0,1-5.22,1.41A10.46,10.46,0,0,1,220,328.42q0-.17,0-.33l0-.31a26.87,26.87,0,0,0-26.63-24.54h-.22a10.44,10.44,0,0,1-10.28-10.4,10.65,10.65,0,0,1,.43-3,8.16,8.16,0,0,0-6.41-10.34,15.32,15.32,0,0,1-10.5-22.84,8.16,8.16,0,0,0-1.44-10.1A24.68,24.68,0,0,1,157,228.4c0-.58,0-1.05,0-1.45v-.13a24.44,24.44,0,0,1,2.06-8.46,24.77,24.77,0,0,1,3-5.15c.35-.36.68-.74,1-1.16s.71-.91.94-1.22h0q.18-.25.34-.51a20.83,20.83,0,0,0,1.9-19.65c-.11-.25-.26-.61-.46-1s-.32-.66-.5-1a15.18,15.18,0,0,1-1.24-6,15.37,15.37,0,0,1,12.18-15q.35-.07.69-.17a26.89,26.89,0,0,0,18.58-16q.14-.28.26-.58a17.78,17.78,0,0,1,16.61-11.28m0-8.16a26,26,0,0,0-24.19,16.43h0a18.56,18.56,0,0,1-13.58,11.78l0,0a23.5,23.5,0,0,0-16.52,32.85,3.93,3.93,0,0,1,.37.69c.12.22.22.46.32.69a12.66,12.66,0,0,1-1.3,12.07.59.59,0,0,1-.08.14c-.17.24-.34.47-.52.69s-.54.63-.85.93c0,0,0,0,0,0a33.2,33.2,0,0,0-7.19,18.61c-.05.68-.07,1.37-.07,2.06a33,33,0,0,0,10.43,24.11,23.48,23.48,0,0,0,16.11,35,18.79,18.79,0,0,0-.76,5.29A18.58,18.58,0,0,0,193,311.39h.27a18.57,18.57,0,0,1,18.5,17c0,.2,0,.39.05.57a.25.25,0,0,0,0,.12,18.55,18.55,0,0,0,27.85,14.39,23.48,23.48,0,1,0,44.08-16.11c.57.05,1.15.08,1.74.08a18.58,18.58,0,0,0,18.58-18.58,18.36,18.36,0,0,0-1.34-6.9c-.05-.12-.1-.25-.15-.39a1.91,1.91,0,0,0-.12-.27c-.14-.3-.27-.61-.44-.91l.08-.07a18.59,18.59,0,0,1,5.78-20.17l0-.08q.68-.43,1.32-.91a18.58,18.58,0,0,0-1.78-30.75,23.5,23.5,0,0,0,.17-43.21,33,33,0,0,0-8.2-26.43A32.95,32.95,0,0,0,283,168.87l0,0a12.13,12.13,0,0,1-3.21-1,12.69,12.69,0,0,1-7.1-10.33h0a23.49,23.49,0,0,0-23.42-21.79,23.82,23.82,0,0,0-7,1c-.25.1-.52.19-.78.27l-.34.12a18.83,18.83,0,0,1-5.48.81,18.4,18.4,0,0,1-9.2-2.43l0,0-.42-.24-.35-.24s0,0,0,0a25.93,25.93,0,0,0-13.15-3.57Z"/><g class="cls-23"><path class="cls-24" d="M212.5,139.57a17.81,17.81,0,0,1,8.9,2.37l0,0,.29.19.65.38.05,0a26.65,26.65,0,0,0,13.27,3.52,27,27,0,0,0,7.85-1.16l.49-.17.05,0,.12,0,.68-.23a15.72,15.72,0,0,1,4.38-.63A15.35,15.35,0,0,1,264.52,158q0,.4.09.79a21,21,0,0,0,11.57,16.29,20.21,20.21,0,0,0,4.39,1.56l.42.12a24.78,24.78,0,0,1,12.34,7.49,24.81,24.81,0,0,1,6.17,19.89,8.16,8.16,0,0,0,4.84,8.56,15.34,15.34,0,0,1-.1,28.21,8.16,8.16,0,0,0-1,14.53,10.41,10.41,0,0,1,1,17.24c-.23.18-.48.34-.73.5a8.15,8.15,0,0,0-1.87,1.61,26.75,26.75,0,0,0-7.74,26.58,8.08,8.08,0,0,0,1,3c.05.1.09.21.14.31v0l.17.42a10.17,10.17,0,0,1,.72,3.79,10.43,10.43,0,0,1-10.42,10.42c-.29,0-.61,0-1-.05q-.36,0-.72,0a8.16,8.16,0,0,0-7.56,11.25A15.32,15.32,0,1,1,247.47,341a8.16,8.16,0,0,0-11.9-4.54,10.33,10.33,0,0,1-5.22,1.41A10.46,10.46,0,0,1,220,328.42q0-.17,0-.33l0-.31a26.87,26.87,0,0,0-26.63-24.54h-.22a10.44,10.44,0,0,1-10.28-10.4,10.65,10.65,0,0,1,.43-3,8.16,8.16,0,0,0-6.41-10.34,15.32,15.32,0,0,1-10.5-22.84,8.16,8.16,0,0,0-1.44-10.1A24.68,24.68,0,0,1,157,228.4c0-.58,0-1.05,0-1.45v-.13a24.44,24.44,0,0,1,2.06-8.46,24.77,24.77,0,0,1,3-5.15c.35-.36.68-.74,1-1.16s.71-.91.94-1.22h0q.18-.25.34-.51a20.83,20.83,0,0,0,1.9-19.65c-.11-.25-.26-.61-.46-1s-.32-.66-.5-1a15.18,15.18,0,0,1-1.24-6,15.37,15.37,0,0,1,12.18-15q.35-.07.69-.17a26.89,26.89,0,0,0,18.58-16q.14-.28.26-.58a17.78,17.78,0,0,1,16.61-11.28Zm0-8.16a26,26,0,0,0-24.19,16.43h0a18.56,18.56,0,0,1-13.58,11.78l0,0a23.5,23.5,0,0,0-16.52,32.85,3.93,3.93,0,0,1,.37.69c.12.22.22.46.32.69a12.66,12.66,0,0,1-1.3,12.07.59.59,0,0,1-.08.14c-.17.24-.34.47-.52.69s-.54.63-.85.93c0,0,0,0,0,0a33.2,33.2,0,0,0-7.19,18.61c-.05.68-.07,1.37-.07,2.06a33,33,0,0,0,10.43,24.11,23.48,23.48,0,0,0,16.11,35,18.79,18.79,0,0,0-.76,5.29A18.58,18.58,0,0,0,193,311.39h.27a18.57,18.57,0,0,1,18.5,17c0,.2,0,.39.05.57a.25.25,0,0,0,0,.12,18.55,18.55,0,0,0,27.85,14.39,23.48,23.48,0,1,0,44.08-16.11c.57.05,1.15.08,1.74.08a18.58,18.58,0,0,0,18.58-18.58,18.36,18.36,0,0,0-1.34-6.9c-.05-.12-.1-.25-.15-.39a1.91,1.91,0,0,0-.12-.27c-.14-.3-.27-.61-.44-.91l.08-.07a18.59,18.59,0,0,1,5.78-20.17l0-.08q.68-.43,1.32-.91a18.58,18.58,0,0,0-1.78-30.75,23.5,23.5,0,0,0,.17-43.21,33,33,0,0,0-8.2-26.43A32.95,32.95,0,0,0,283,168.87l0,0a12.13,12.13,0,0,1-3.21-1,12.69,12.69,0,0,1-7.1-10.33h0a23.49,23.49,0,0,0-23.42-21.79,23.82,23.82,0,0,0-7,1c-.25.1-.52.19-.78.27l-.34.12a18.83,18.83,0,0,1-5.48.81,18.4,18.4,0,0,1-9.2-2.43l0,0-.42-.24-.35-.24s0,0,0,0a25.93,25.93,0,0,0-13.15-3.57Z"/></g><path class="cls-25" d="M314.58,161a18.08,18.08,0,0,1-15.18,17.85A32.95,32.95,0,0,0,283,168.87l0,0a12.13,12.13,0,0,1-3.21-1,12.69,12.69,0,0,1-7.1-10.33h0a23.49,23.49,0,0,0-23.42-21.79,23.82,23.82,0,0,0-7,1c-.25.1-.52.19-.78.27l-.34.12a18.83,18.83,0,0,1-5.48.81,18.4,18.4,0,0,1-9.2-2.43l0,0-.41-.25a4.25,4.25,0,0,0-.37-.22s0,0,0,0a26,26,0,0,0-37.35,12.87h0a18.56,18.56,0,0,1-13.58,11.78l0,0a23.5,23.5,0,0,0-16.52,32.85c.1.24.22.47.34.71s.24.46.36.68a12.66,12.66,0,0,1-1.3,12.07.59.59,0,0,1-.08.14c-.19.2-.37.41-.54.63a11.26,11.26,0,0,0-.83,1s0,0,0,0a33.2,33.2,0,0,0-7.19,18.61,18.07,18.07,0,0,1-23.26-26.59c.24-.27.47-.54.71-.83.08-.12.19-.25.29-.37a18.09,18.09,0,0,0-2.84-24.63,1,1,0,0,1-.14-.14,19.72,19.72,0,0,1,6.15-32.83,14.42,14.42,0,0,0,4.21-.81,11.29,11.29,0,0,0,1.25-.49A14.92,14.92,0,0,0,144.11,126a14.39,14.39,0,0,0-.36-3.21,15.35,15.35,0,0,0-2.67-5.8,22.78,22.78,0,0,1,35.25-25,4.1,4.1,0,0,1,.34.24,18.07,18.07,0,0,0,26.63-6.49.06.06,0,0,1,0-.05,14,14,0,0,0,.63-1.35,22.78,22.78,0,0,1,42.59,4.94.32.32,0,0,0,0,.14l.1.46a15,15,0,0,0,21.45,9.64,19.78,19.78,0,0,1,27.51,23.64c0,.05,0,.1-.05.17l-.05.1,0,0a18.08,18.08,0,0,0,8.61,21.1l.07.05c.25.14.51.27.78.39l.14.07.66.36A18.08,18.08,0,0,1,314.58,161Z"/><path class="cls-20" d="M380.28,285.18h0l-.15.05a.43.43,0,0,1,.14-.07Z"/><path class="cls-26" d="M118.09,291.45a16.06,16.06,0,0,1,3.62,17.2,1,1,0,0,0-.08.2h0a.52.52,0,0,0-.06.18,10.59,10.59,0,0,0,2.38,11.31,10.78,10.78,0,0,0,3.52,2.35h0a16.1,16.1,0,0,1-2.92,30.81,22,22,0,1,1-40.13,16.75A16.09,16.09,0,0,1,60.31,351a.69.69,0,0,1,.07-.16h0a10.59,10.59,0,0,0-5.84-13.62.9.9,0,0,0-.19-.07s0,0-.08,0a16.09,16.09,0,0,1,2.08-30.51A22,22,0,1,1,97,290,16.1,16.1,0,0,1,118.09,291.45Z"/><path class="cls-15" d="M385.09,126.09a10.08,10.08,0,0,1,3.38,13.85,10.08,10.08,0,0,0,3.38,13.85,10.08,10.08,0,0,1,3.38,13.85q-.22.35-.4.72"/><path class="cls-15" d="M410.45,120a10.08,10.08,0,0,1-2,14.12,10.08,10.08,0,0,0-2,14.12,10.08,10.08,0,0,1-2,14.12q-.33.25-.64.52"/><path class="cls-15" d="M456.34,157.81a10.08,10.08,0,0,0-13,5.78,10.08,10.08,0,0,1-13,5.78,10.08,10.08,0,0,0-13,5.78q-.15.39-.33.75"/><path class="cls-15" d="M444.3,131.43a10.08,10.08,0,0,0-8.83,11.2,10.08,10.08,0,0,1-8.83,11.2,10.08,10.08,0,0,0-8.83,11.2q0,.41.06.82"/><path class="cls-27" d="M443.1,192.76a16.06,16.06,0,0,1-9.6,14.72,1,1,0,0,0-.2.08h0a.52.52,0,0,0-.17.08,10.59,10.59,0,0,0-6.31,9.69,10.78,10.78,0,0,0,.83,4.15v0a16.1,16.1,0,0,1-23.86,19.72,22,22,0,1,1-40.22-16.53A16.09,16.09,0,0,1,360.12,194a.69.69,0,0,1,.17-.07v0a10.59,10.59,0,0,0,5.5-13.76.9.9,0,0,0-.08-.18s0,0,0-.08a16.09,16.09,0,0,1,23-20.1,22,22,0,1,1,40.49,17A16.1,16.1,0,0,1,443.1,192.76Z"/><circle class="cls-28" cx="190.95" cy="258.27" r="12.69"/><circle class="cls-29" cx="229.21" cy="216.24" r="25.57"/><circle class="cls-30" cx="285.19" cy="267.89" r="12.69"/><circle class="cls-31" cx="224.54" cy="291.95" r="8.7"/><circle class="cls-32" cx="260.22" cy="308.35" r="6.87"/><line class="cls-33" x1="240.07" y1="188.49" x2="272.23" y2="198.31"/><line class="cls-33" x1="200.5" y1="197.93" x2="180.49" y2="221.66"/><line class="cls-34" x1="240.26" y1="186.06" x2="272.41" y2="195.89"/><line class="cls-34" x1="200.69" y1="195.51" x2="180.67" y2="219.23"/><path class="cls-33" d="M219.54,269.47a40.66,40.66,0,0,1-25.84-28.68"/><path class="cls-33" d="M267.63,252.89a40.7,40.7,0,0,1-48.09,16.58"/><path class="cls-35" d="M371.49,210.38a29.77,29.77,0,0,1,34.33,14.35"/><path class="cls-33" d="M272.77,221.51a40.57,40.57,0,0,1-5.14,31.38"/><path class="cls-34" d="M219.66,267.3a40.66,40.66,0,0,1-25.84-28.68"/><path class="cls-34" d="M272.89,219.34a40.57,40.57,0,0,1-5.14,31.38"/><path class="cls-33" d="M288.59,286.34q-.21-.23-.4-.47a7.55,7.55,0,0,0-10.59-1.38A7.55,7.55,0,0,1,267,283.11a7.55,7.55,0,0,0-10.59-1.38"/><path class="cls-35" d="M425.43,195l-.37-.15a4.9,4.9,0,0,0-6.49,2.43,4.9,4.9,0,0,1-6.49,2.43,4.9,4.9,0,0,0-6.49,2.43"/><path class="cls-35" d="M388,196.11q.07-.18.16-.36a4.9,4.9,0,0,0-2.2-6.57,4.9,4.9,0,0,1-2.2-6.57,4.9,4.9,0,0,0-2.2-6.57"/><path class="cls-35" d="M113.65,337.06a29.77,29.77,0,0,1-34.18,14.69"/><path class="cls-35" d="M107.46,307l-.37.16a4.9,4.9,0,0,0-2.77,6.36,4.9,4.9,0,0,1-2.77,6.36,4.9,4.9,0,0,0-2.77,6.36"/><path class="cls-35" d="M82.18,334.65q-.08-.18-.15-.37a4.9,4.9,0,0,0-6.25-3,4.9,4.9,0,0,1-6.25-3,4.9,4.9,0,0,0-6.25-3"/><path class="cls-33" d="M217,310.06q0-.31,0-.62a7.55,7.55,0,0,1,7.3-7.8,7.55,7.55,0,0,0,7.3-7.8,7.55,7.55,0,0,1,7.3-7.8"/></g></g></svg>