<svg id="prefix__Capa_1" data-name="Capa 1" xmlns="http://www.w3.org/2000/svg" xmlns:xlink="http://www.w3.org/1999/xlink" viewBox="0 0 480 480"><defs><linearGradient id="prefix__Degradado_sin_nombre_111" x1="99.42" y1="360.53" x2="102.66" y2="268.34" gradientUnits="userSpaceOnUse"><stop offset="0" stop-color="#e6e5c9"/><stop offset=".05" stop-color="#d1e1c9"/><stop offset=".16" stop-color="#a5d8ca"/><stop offset=".28" stop-color="#7fd1cb"/><stop offset=".41" stop-color="#60cbcc"/><stop offset=".54" stop-color="#48c6cc"/><stop offset=".67" stop-color="#36c3cd"/><stop offset=".82" stop-color="#2cc1cd"/><stop offset="1" stop-color="#29c0cd"/></linearGradient><linearGradient id="prefix__Degradado_sin_nombre_111-2" x1="407.86" y1="407" x2="409.91" y2="348.72" xlink:href="#prefix__Degradado_sin_nombre_111"/><linearGradient id="prefix__Degradado_sin_nombre_111-3" x1="360.49" y1="207.33" x2="364.3" y2="99.11" xlink:href="#prefix__Degradado_sin_nombre_111"/><linearGradient id="prefix__Degradado_sin_nombre_159" x1="239.47" y1="431.99" x2="227.51" y2="292.54" gradientUnits="userSpaceOnUse"><stop offset="0" stop-color="#f13681"/><stop offset=".18" stop-color="#ef4f8b"/><stop offset=".55" stop-color="#eb91a6"/><stop offset="1" stop-color="#e6e5c9"/></linearGradient><linearGradient id="prefix__Degradado_sin_nombre_92" x1="79.81" y1="419.29" x2="387.57" y2="419.29" gradientUnits="userSpaceOnUse"><stop offset="0" stop-color="#4a65b6"/><stop offset=".13" stop-color="#465fab" stop-opacity=".92"/><stop offset=".37" stop-color="#3b4e8e" stop-opacity=".72"/><stop offset=".71" stop-color="#29335f" stop-opacity=".4"/><stop offset="1" stop-color="#181a33" stop-opacity=".1"/></linearGradient><linearGradient id="prefix__Degradado_sin_nombre_111-4" x1="206.12" y1="158.8" x2="198.86" y2="435.54" xlink:href="#prefix__Degradado_sin_nombre_111"/><style>.prefix__cls-9{fill:none;stroke-miterlimit:10;stroke-width:4px;stroke:#29c0cd}.prefix__cls-10{fill:#f13681}</style></defs><path d="M179.65 328.78a27.56 27.56 0 01-27.56 27.56H48.43a27.56 27.56 0 01-8.68-53.53A22.14 22.14 0 0162 268.44a18.12 18.12 0 0125.5-14.22 17.33 17.33 0 0127.21.44 18.11 18.11 0 0126.36 13.5c.68-.07 1.37-.1 2.07-.1a22.13 22.13 0 0118.18 34.75 27.57 27.57 0 0118.33 25.97z" fill="url(#prefix__Degradado_sin_nombre_111)"/><path d="M458.58 386.93a17.42 17.42 0 01-17.42 17.42h-65.54a17.43 17.43 0 01-5.49-33.84 14 14 0 0114.07-21.73 11.45 11.45 0 0116.12-9 11 11 0 0117.2.28 11.45 11.45 0 0116.67 8.54c.43 0 .87-.06 1.31-.06a14 14 0 0111.49 22 17.43 17.43 0 0111.59 16.39z" fill="url(#prefix__Degradado_sin_nombre_111-2)"/><path d="M454.68 170.07a32.35 32.35 0 01-32.35 32.36h-121.7a32.36 32.36 0 01-10.19-62.84 26 26 0 0126.13-40.35 21.27 21.27 0 0129.94-16.7 20.34 20.34 0 0131.94.52A21.26 21.26 0 01409.4 98.9c.8-.08 1.61-.12 2.43-.12a26 26 0 0121.34 40.79 32.36 32.36 0 0121.51 30.5z" fill="url(#prefix__Degradado_sin_nombre_111-3)"/><path d="M387.57 310v109.29H79.81a116.93 116.93 0 01112.67-116.64v-.09l80.67-13.94V310l16.35-3.4v33.93a26.13 26.13 0 0052.19 0V310z" fill="url(#prefix__Degradado_sin_nombre_159)"/><path d="M211.83 354.38a15.28 15.28 0 10-1.43-30.52" stroke="#f13681" fill="none" stroke-miterlimit="10" stroke-width="4"/><ellipse cx="233.69" cy="419.29" rx="153.88" ry="13.36" fill="#29c0cd"/><ellipse cx="233.69" cy="419.29" rx="153.88" ry="13.36" fill="url(#prefix__Degradado_sin_nombre_92)"/><path d="M361.76 182.17l-.23.63c-.74 2.2-1.52 4.37-2.41 6.5L318.3 299.76v-62.85a100.37 100.37 0 01-52.3 14.61H146.66a100.76 100.76 0 110-201.52H266a100.73 100.73 0 0195.72 132.21z" fill="url(#prefix__Degradado_sin_nombre_111-4)"/><path class="prefix__cls-9" d="M385.16 256.7l-17.61 17.61M290.57 276.63l-19.93-19.93"/><path class="prefix__cls-10" d="M147.65 157v-9.16h6.05V157zM164.17 157v-9.16h6.05V157zM180.69 157v-9.16h6.05V157zM197.21 157v-9.16h6.05V157zM213.73 157v-9.16h6.05V157zM230.25 157v-9.16h6.05V157zM246.77 157v-9.16h6.05V157z"/></svg>