<svg id="Capa_1" data-name="Capa 1" xmlns="http://www.w3.org/2000/svg" xmlns:xlink="http://www.w3.org/1999/xlink" viewBox="0 0 480 480"><defs><style>.cls-1{fill:url(#Degradado_sin_nombre_111);}.cls-2{fill:url(#Degradado_sin_nombre_111-2);}.cls-3{fill:url(#Degradado_sin_nombre_111-3);}.cls-4{fill:url(#Degradado_sin_nombre_159);}.cls-5,.cls-9{fill:none;stroke-miterlimit:10;stroke-width:4px;}.cls-5{stroke:#f13681;}.cls-6{fill:#29c0cd;}.cls-7{fill:url(#Degradado_sin_nombre_92);}.cls-8{fill:url(#Degradado_sin_nombre_111-4);}.cls-9{stroke:#29c0cd;}.cls-10{fill:#f13681;}</style><linearGradient id="Degradado_sin_nombre_111" x1="99.42" y1="360.53" x2="102.66" y2="268.34" gradientUnits="userSpaceOnUse"><stop offset="0" stop-color="#e6e5c9"/><stop offset="0.05" stop-color="#d1e1c9"/><stop offset="0.16" stop-color="#a5d8ca"/><stop offset="0.28" stop-color="#7fd1cb"/><stop offset="0.41" stop-color="#60cbcc"/><stop offset="0.54" stop-color="#48c6cc"/><stop offset="0.67" stop-color="#36c3cd"/><stop offset="0.82" stop-color="#2cc1cd"/><stop offset="1" stop-color="#29c0cd"/></linearGradient><linearGradient id="Degradado_sin_nombre_111-2" x1="407.86" y1="407" x2="409.91" y2="348.72" xlink:href="#Degradado_sin_nombre_111"/><linearGradient id="Degradado_sin_nombre_111-3" x1="360.49" y1="207.33" x2="364.3" y2="99.11" xlink:href="#Degradado_sin_nombre_111"/><linearGradient id="Degradado_sin_nombre_159" x1="239.47" y1="431.99" x2="227.51" y2="292.54" gradientUnits="userSpaceOnUse"><stop offset="0" stop-color="#f13681"/><stop offset="0.18" stop-color="#ef4f8b"/><stop offset="0.55" stop-color="#eb91a6"/><stop offset="1" stop-color="#e6e5c9"/></linearGradient><linearGradient id="Degradado_sin_nombre_92" x1="79.81" y1="419.29" x2="387.57" y2="419.29" gradientUnits="userSpaceOnUse"><stop offset="0" stop-color="#4a65b6"/><stop offset="0.13" stop-color="#465fab" stop-opacity="0.92"/><stop offset="0.37" stop-color="#3b4e8e" stop-opacity="0.72"/><stop offset="0.71" stop-color="#29335f" stop-opacity="0.4"/><stop offset="1" stop-color="#181a33" stop-opacity="0.1"/></linearGradient><linearGradient id="Degradado_sin_nombre_111-4" x1="206.12" y1="158.8" x2="198.86" y2="435.54" xlink:href="#Degradado_sin_nombre_111"/></defs><title>Sin título-1</title><path class="cls-1" d="M179.65,328.78a27.56,27.56,0,0,1-27.56,27.56H48.43a27.56,27.56,0,0,1-8.68-53.53A22.14,22.14,0,0,1,62,268.44a18.12,18.12,0,0,1,25.5-14.22,17.33,17.33,0,0,1,27.21.44,18.11,18.11,0,0,1,26.36,13.5c.68-.07,1.37-.1,2.07-.1a22.13,22.13,0,0,1,18.18,34.75A27.57,27.57,0,0,1,179.65,328.78Z"/><path class="cls-2" d="M458.58,386.93a17.42,17.42,0,0,1-17.42,17.42H375.62a17.43,17.43,0,0,1-5.49-33.84,14,14,0,0,1,14.07-21.73,11.45,11.45,0,0,1,16.12-9,11,11,0,0,1,17.2.28,11.45,11.45,0,0,1,16.67,8.54c.43,0,.87-.06,1.31-.06a14,14,0,0,1,11.49,22A17.43,17.43,0,0,1,458.58,386.93Z"/><path class="cls-3" d="M454.68,170.07a32.35,32.35,0,0,1-32.35,32.36H300.63a32.36,32.36,0,0,1-10.19-62.84,26,26,0,0,1,26.13-40.35,21.27,21.27,0,0,1,29.94-16.7,20.34,20.34,0,0,1,31.94.52A21.26,21.26,0,0,1,409.4,98.9c.8-.08,1.61-.12,2.43-.12a26,26,0,0,1,21.34,40.79A32.36,32.36,0,0,1,454.68,170.07Z"/><path class="cls-4" d="M387.57,310V419.29H79.81A116.93,116.93,0,0,1,192.48,302.65v-.09l80.67-13.94V310l16.35-3.4v33.93h0a26.13,26.13,0,0,0,52.19,0h0V310Z"/><path class="cls-5" d="M211.83,354.38a15.28,15.28,0,1,0-1.43-30.52"/><ellipse class="cls-6" cx="233.69" cy="419.29" rx="153.88" ry="13.36"/><ellipse class="cls-7" cx="233.69" cy="419.29" rx="153.88" ry="13.36"/><path class="cls-8" d="M361.76,182.17l-.23.63c-.74,2.2-1.52,4.37-2.41,6.5L318.3,299.76V236.91A100.37,100.37,0,0,1,266,251.52H146.66a100.76,100.76,0,1,1,0-201.52H266a100.73,100.73,0,0,1,95.72,132.21Z"/><line class="cls-9" x1="385.16" y1="256.7" x2="367.55" y2="274.31"/><line class="cls-9" x1="290.57" y1="276.63" x2="270.64" y2="256.7"/><path class="cls-10" d="M147.65,157v-9.16h6.05V157Z"/><path class="cls-10" d="M164.17,157v-9.16h6.05V157Z"/><path class="cls-10" d="M180.69,157v-9.16h6.05V157Z"/><path class="cls-10" d="M197.21,157v-9.16h6.05V157Z"/><path class="cls-10" d="M213.73,157v-9.16h6.05V157Z"/><path class="cls-10" d="M230.25,157v-9.16h6.05V157Z"/><path class="cls-10" d="M246.77,157v-9.16h6.05V157Z"/></svg>