<svg id="Capa_1" data-name="Capa 1" xmlns="http://www.w3.org/2000/svg" xmlns:xlink="http://www.w3.org/1999/xlink" viewBox="0 0 480 480"><defs><style>.cls-1{fill:url(#Degradado_sin_nombre_11);}.cls-2{fill:url(#Degradado_sin_nombre_11-2);}.cls-3{fill:url(#Degradado_sin_nombre_11-3);}.cls-4{fill:url(#Degradado_sin_nombre_159);}.cls-5,.cls-9{fill:none;stroke-miterlimit:10;stroke-width:4px;}.cls-5{stroke:#f13681;}.cls-6{fill:#29c0cd;}.cls-7{fill:url(#Degradado_sin_nombre_92);}.cls-8{fill:url(#Degradado_sin_nombre_111);}.cls-9{stroke:#29c0cd;}.cls-10{fill:#f13681;}</style><linearGradient id="Degradado_sin_nombre_11" x1="104.95" y1="359.13" x2="108.17" y2="267.84" gradientUnits="userSpaceOnUse"><stop offset="0" stop-color="#e6e5c9"/><stop offset="0.02" stop-color="#dce1c9"/><stop offset="0.14" stop-color="#b0d1c8"/><stop offset="0.26" stop-color="#8ac2c7"/><stop offset="0.39" stop-color="#6bb7c6"/><stop offset="0.52" stop-color="#53adc6"/><stop offset="0.66" stop-color="#41a7c5"/><stop offset="0.82" stop-color="#37a3c5"/><stop offset="1" stop-color="#34a2c5"/></linearGradient><linearGradient id="Degradado_sin_nombre_11-2" x1="402.05" y1="405.15" x2="404.09" y2="347.44" xlink:href="#Degradado_sin_nombre_11"/><linearGradient id="Degradado_sin_nombre_11-3" x1="352.08" y1="207.43" x2="355.85" y2="100.26" xlink:href="#Degradado_sin_nombre_11"/><linearGradient id="Degradado_sin_nombre_159" x1="237.4" y1="429.89" x2="225.57" y2="291.8" gradientUnits="userSpaceOnUse"><stop offset="0" stop-color="#f13681"/><stop offset="0.18" stop-color="#ef4f8b"/><stop offset="0.55" stop-color="#eb91a6"/><stop offset="1" stop-color="#e6e5c9"/></linearGradient><linearGradient id="Degradado_sin_nombre_92" x1="79.31" y1="417.32" x2="384.07" y2="417.32" gradientUnits="userSpaceOnUse"><stop offset="0" stop-color="#4a65b6"/><stop offset="0.13" stop-color="#465fab" stop-opacity="0.92"/><stop offset="0.37" stop-color="#3b4e8e" stop-opacity="0.72"/><stop offset="0.71" stop-color="#29335f" stop-opacity="0.4"/><stop offset="1" stop-color="#181a33" stop-opacity="0.1"/></linearGradient><linearGradient id="Degradado_sin_nombre_111" x1="204.38" y1="159.37" x2="197.19" y2="433.41" gradientUnits="userSpaceOnUse"><stop offset="0" stop-color="#e6e5c9"/><stop offset="0.05" stop-color="#d1e1c9"/><stop offset="0.16" stop-color="#a5d8ca"/><stop offset="0.28" stop-color="#7fd1cb"/><stop offset="0.41" stop-color="#60cbcc"/><stop offset="0.54" stop-color="#48c6cc"/><stop offset="0.67" stop-color="#36c3cd"/><stop offset="0.82" stop-color="#2cc1cd"/><stop offset="1" stop-color="#29c0cd"/></linearGradient></defs><title>Iconoss</title><path class="cls-1" d="M184.4,327.7A27.29,27.29,0,0,1,157.12,355H54.46a27.3,27.3,0,0,1-8.6-53,21.92,21.92,0,0,1,22-34,17.94,17.94,0,0,1,25.25-14.08,17.16,17.16,0,0,1,26.94.44,17.94,17.94,0,0,1,26.11,13.37c.67-.06,1.36-.1,2.05-.1a21.91,21.91,0,0,1,18,34.41A27.3,27.3,0,0,1,184.4,327.7Z"/><path class="cls-2" d="M452.28,385.28A17.25,17.25,0,0,1,435,402.53h-64.9A17.26,17.26,0,0,1,364.7,369a13.86,13.86,0,0,1,13.93-21.52,11.34,11.34,0,0,1,16-8.9,10.85,10.85,0,0,1,17,.28,11.34,11.34,0,0,1,16.5,8.45c.43,0,.86-.06,1.3-.06A13.85,13.85,0,0,1,440.81,369,17.26,17.26,0,0,1,452.28,385.28Z"/><path class="cls-3" d="M445.35,170.53a32,32,0,0,1-32,32H292.81a32,32,0,0,1-10.09-62.22,25.73,25.73,0,0,1,25.87-40,21.06,21.06,0,0,1,29.65-16.53,20.14,20.14,0,0,1,31.63.51,21.06,21.06,0,0,1,30.65,15.7c.79-.08,1.59-.11,2.41-.11A25.72,25.72,0,0,1,424,140.33,32,32,0,0,1,445.35,170.53Z"/><path class="cls-4" d="M384.07,309.09V417.32H79.31A115.79,115.79,0,0,1,190.87,301.82v-.09l79.89-13.8v21.17l16.19-3.36v33.6h0a25.88,25.88,0,0,0,51.68,0h0V309.09Z"/><path class="cls-5" d="M210,353a15.13,15.13,0,0,0-1.42-30.22"/><ellipse class="cls-6" cx="231.69" cy="417.32" rx="152.38" ry="13.23"/><ellipse class="cls-7" cx="231.69" cy="417.32" rx="152.38" ry="13.23"/><path class="cls-8" d="M358.5,182.51l-.23.62c-.73,2.18-1.51,4.33-2.38,6.44L315.47,299V236.71a99.39,99.39,0,0,1-51.79,14.47H145.51a99.78,99.78,0,1,1,0-199.56H263.67a99.74,99.74,0,0,1,94.79,130.92Z"/><line class="cls-9" x1="381.67" y1="256.31" x2="364.24" y2="273.75"/><line class="cls-9" x1="288" y1="276.05" x2="268.27" y2="256.31"/><path class="cls-10" d="M146.49,157.56v-9.07h6v9.07Z"/><path class="cls-10" d="M162.84,157.56v-9.07h6v9.07Z"/><path class="cls-10" d="M179.2,157.56v-9.07h6v9.07Z"/><path class="cls-10" d="M195.56,157.56v-9.07h6v9.07Z"/><path class="cls-10" d="M211.92,157.56v-9.07h6v9.07Z"/><path class="cls-10" d="M228.28,157.56v-9.07h6v9.07Z"/><path class="cls-10" d="M244.63,157.56v-9.07h6v9.07Z"/></svg>